SplineFontDB: 3.2
FontName: HwanaKwana
FullName: HwanaKwana
FamilyName: HwanaKwana
Weight: Regular
Copyright: Copyright (c) fANhAN iNSiDE 2021, 
UComments: "2021-7-20: Created with FontForge (http://fontforge.org)"
Version: 001.000
StrokeWidth: 300
ItalicAngle: 0
UnderlinePosition: -1200
UnderlineWidth: 500
Ascent: 3277
Descent: 819
InvalidEm: 0
LayerCount: 2
Layer: 0 0 "Back" 1
Layer: 1 0 "Fore" 0
XUID: [1021 991 -1287261736 25104]
FSType: 0
OS2Version: 0
OS2_WeightWidthSlopeOnly: 0
OS2_UseTypoMetrics: 1
CreationTime: 1626745112
ModificationTime: 1626831749
PfmFamily: 17
TTFWeight: 400
TTFWidth: 5
LineGap: 1511
VLineGap: 0
OS2TypoAscent: 0
OS2TypoAOffset: 1
OS2TypoDescent: 0
OS2TypoDOffset: 1
OS2TypoLinegap: 1511
OS2WinAscent: 0
OS2WinAOffset: 1
OS2WinDescent: 0
OS2WinDOffset: 1
HheadAscent: 0
HheadAOffset: 1
HheadDescent: 0
HheadDOffset: 1
OS2Vendor: 'PfEd'
MarkAttachClasses: 1
DEI: 91125
LangName: 1033
Encoding: UnicodeFull
UnicodeInterp: none
NameList: AGL For New Fonts
DisplaySize: -48
AntiAlias: 1
FitToEm: 0
WinInfo: 58558 38 14
BeginPrivate: 0
EndPrivate
TeXData: 1 0 0 346030 173015 115343 0 1048576 115343 783286 444596 497025 792723 393216 433062 380633 303038 157286 324010 404750 52429 2506097 1059062 262144
BeginChars: 1114112 112

StartChar: uniE501
Encoding: 58625 58625 0
Width: 4224
Flags: HW
LayerCount: 2
Fore
SplineSet
2812 2829 m 0
 2812 2780.90332031 2823.34277344 2735.43554688 2843.49707031 2695.12695312 c 0
 3013.35449219 2355.41113281 3143.97753906 2018.01367188 3225.44628906 1704.36132812 c 0
 3290.61523438 1453.45996094 3324 1218.09765625 3324 1011.40039062 c 0
 3324 699.366210938 3249.37109375 458.653320312 3114.6640625 290.270507812 c 0
 3013.96582031 164.396484375 2876.18847656 73.2021484375 2700.06347656 13.2060546875 c 0
 2546.48046875 -39.111328125 2351.99023438 -71 2112 -71 c 0
 1872.00976562 -71 1677.51953125 -39.111328125 1523.93652344 13.2060546875 c 0
 1347.68847656 73.244140625 1210.09863281 164.31640625 1109.3359375 290.270507812 c 0
 974.62890625 458.653320312 900 699.366210938 900 1011.40039062 c 0
 900 1218.09765625 933.384765625 1453.45996094 998.553710938 1704.36132812 c 0
 1080.02246094 2018.01367188 1210.64550781 2355.41113281 1380.50292969 2695.12695312 c 0
 1400.65722656 2735.43554688 1412 2780.90332031 1412 2829 c 0
 1412 2994.57421875 1277.57421875 3129 1112 3129 c 0
 994.521484375 3129 892.724609375 3061.328125 843.497070312 2962.87304688 c 0
 657.799804688 2591.47753906 511.87890625 2217.76464844 417.763671875 1855.421875 c 0
 342.466796875 1565.52734375 300 1282.56933594 300 1011.40039062 c 0
 300 606.633789062 396.038085938 221.568359375 640.590820312 -84.1220703125 c 0
 734.387695312 -201.368164062 848.854492188 -304.477539062 981.147460938 -388.815429688 c 0
 1086.97949219 -456.283203125 1203.86523438 -511.741210938 1330.59765625 -554.911132812 c 0
 1558.82617188 -632.65625 1818.65722656 -671 2112 -671 c 0
 2405.34277344 -671 2665.17382812 -632.65625 2893.40234375 -554.911132812 c 0
 3020.13476562 -511.741210938 3137.02050781 -456.283203125 3242.85253906 -388.815429688 c 0
 3375.14550781 -304.477539062 3489.61230469 -201.368164062 3583.40917969 -84.1220703125 c 0
 3827.96191406 221.568359375 3924 606.633789062 3924 1011.40039062 c 0
 3924 1282.56933594 3881.53320312 1565.52734375 3806.23632812 1855.421875 c 0
 3712.12109375 2217.76464844 3566.20019531 2591.47753906 3380.50292969 2962.87304688 c 0
 3331.27539062 3061.328125 3229.47851562 3129 3112 3129 c 0
 2946.42578125 3129 2812 2994.57421875 2812 2829 c 0
EndSplineSet
Validated: 524297
EndChar

StartChar: uniE502
Encoding: 58626 58626 1
Width: 4400
Flags: HW
LayerCount: 2
Fore
SplineSet
4100 229 m 0
 4100 394.57421875 3965.57421875 529 3800 529 c 0
 3751.90332031 529 3706.43554688 517.657226562 3666.12695312 497.502929688 c 0
 3326.41113281 327.645507812 2989.01367188 197.022460938 2675.36132812 115.553710938 c 0
 2424.45996094 50.384765625 2189.09765625 17 1982.40039062 17 c 0
 1670.36621094 17 1429.65332031 91.62890625 1261.27050781 226.3359375 c 0
 1135.39648438 327.034179688 1044.20214844 464.811523438 984.206054688 640.936523438 c 0
 931.888671875 794.51953125 900 989.009765625 900 1229 c 0
 900 1468.99023438 931.888671875 1663.48046875 984.206054688 1817.06347656 c 0
 1044.24414062 1993.31152344 1135.31640625 2130.90136719 1261.27050781 2231.6640625 c 0
 1429.65332031 2366.37109375 1670.36621094 2441 1982.40039062 2441 c 0
 2189.09765625 2441 2424.45996094 2407.61523438 2675.36132812 2342.44628906 c 0
 2989.01367188 2260.97753906 3326.41113281 2130.35449219 3666.12695312 1960.49707031 c 0
 3706.43554688 1940.34277344 3751.90332031 1929 3800 1929 c 0
 3965.57421875 1929 4100 2063.42578125 4100 2229 c 0
 4100 2346.47851562 4032.328125 2448.27539062 3933.87304688 2497.50292969 c 0
 3562.47753906 2683.20019531 3188.76464844 2829.12109375 2826.421875 2923.23632812 c 0
 2536.52734375 2998.53320312 2253.56933594 3041 1982.40039062 3041 c 0
 1577.63378906 3041 1192.56835938 2944.96191406 886.877929688 2700.40917969 c 0
 769.631835938 2606.61230469 666.522460938 2492.14550781 582.184570312 2359.85253906 c 0
 514.716796875 2254.02050781 459.258789062 2137.13476562 416.088867188 2010.40234375 c 0
 338.34375 1782.17382812 300 1522.34277344 300 1229 c 0
 300 935.657226562 338.34375 675.826171875 416.088867188 447.59765625 c 0
 459.258789062 320.865234375 514.716796875 203.979492188 582.184570312 98.1474609375 c 0
 666.522460938 -34.1455078125 769.631835938 -148.612304688 886.877929688 -242.409179688 c 0
 1192.56835938 -486.961914062 1577.63378906 -583 1982.40039062 -583 c 0
 2253.56933594 -583 2536.52734375 -540.533203125 2826.421875 -465.236328125 c 0
 3188.76464844 -371.12109375 3562.47753906 -225.200195312 3933.87304688 -39.5029296875 c 0
 4032.328125 9.724609375 4100 111.521484375 4100 229 c 0
EndSplineSet
Validated: 524297
EndChar

StartChar: uniE503
Encoding: 58627 58627 2
Width: 4224
Flags: HW
LayerCount: 2
Fore
SplineSet
1112 -671 m 0
 1277.57421875 -671 1412 -536.57421875 1412 -371 c 0
 1412 -322.903320312 1400.65722656 -277.435546875 1380.50292969 -237.126953125 c 0
 1210.64550781 102.588867188 1080.02246094 439.986328125 998.553710938 753.638671875 c 0
 933.384765625 1004.54003906 900 1239.90234375 900 1446.59960938 c 0
 900 1758.63378906 974.62890625 1999.34667969 1109.3359375 2167.72949219 c 0
 1210.03417969 2293.60351562 1347.81152344 2384.79785156 1523.93652344 2444.79394531 c 0
 1677.51953125 2497.11132812 1872.00976562 2529 2112 2529 c 0
 2351.99023438 2529 2546.48046875 2497.11132812 2700.06347656 2444.79394531 c 0
 2876.31152344 2384.75585938 3013.90136719 2293.68359375 3114.6640625 2167.72949219 c 0
 3249.37109375 1999.34667969 3324 1758.63378906 3324 1446.59960938 c 0
 3324 1239.90234375 3290.61523438 1004.54003906 3225.44628906 753.638671875 c 0
 3143.97753906 439.986328125 3013.35449219 102.588867188 2843.49707031 -237.126953125 c 0
 2823.34277344 -277.435546875 2812 -322.903320312 2812 -371 c 0
 2812 -536.57421875 2946.42578125 -671 3112 -671 c 0
 3229.47851562 -671 3331.27539062 -603.328125 3380.50292969 -504.873046875 c 0
 3566.20019531 -133.477539062 3712.12109375 240.235351562 3806.23632812 602.578125 c 0
 3881.53320312 892.47265625 3924 1175.43066406 3924 1446.59960938 c 0
 3924 1851.36621094 3827.96191406 2236.43164062 3583.40917969 2542.12207031 c 0
 3489.61230469 2659.36816406 3375.14550781 2762.47753906 3242.85253906 2846.81542969 c 0
 3137.02050781 2914.28320312 3020.13476562 2969.74121094 2893.40234375 3012.91113281 c 0
 2665.17382812 3090.65625 2405.34277344 3129 2112 3129 c 0
 1818.65722656 3129 1558.82617188 3090.65625 1330.59765625 3012.91113281 c 0
 1203.86523438 2969.74121094 1086.97949219 2914.28320312 981.147460938 2846.81542969 c 0
 848.854492188 2762.47753906 734.387695312 2659.36816406 640.590820312 2542.12207031 c 0
 396.038085938 2236.43164062 300 1851.36621094 300 1446.59960938 c 0
 300 1175.43066406 342.466796875 892.47265625 417.763671875 602.578125 c 0
 511.87890625 240.235351562 657.799804688 -133.477539062 843.497070312 -504.873046875 c 0
 892.724609375 -603.328125 994.521484375 -671 1112 -671 c 0
EndSplineSet
Validated: 524297
EndChar

StartChar: uniE504
Encoding: 58628 58628 3
Width: 4400
Flags: HW
LayerCount: 2
Fore
SplineSet
600 1929 m 0
 648.096679688 1929 693.564453125 1940.34277344 733.873046875 1960.49707031 c 0
 1073.58886719 2130.35449219 1410.98632812 2260.97753906 1724.63867188 2342.44628906 c 0
 1975.54003906 2407.61523438 2210.90234375 2441 2417.59960938 2441 c 0
 2729.63378906 2441 2970.34667969 2366.37109375 3138.72949219 2231.6640625 c 0
 3264.60351562 2130.96582031 3355.79785156 1993.18847656 3415.79394531 1817.06347656 c 0
 3468.11132812 1663.48046875 3500 1468.99023438 3500 1229 c 0
 3500 989.009765625 3468.11132812 794.51953125 3415.79394531 640.936523438 c 0
 3355.75585938 464.688476562 3264.68359375 327.098632812 3138.72949219 226.3359375 c 0
 2970.34667969 91.62890625 2729.63378906 17 2417.59960938 17 c 0
 2210.90234375 17 1975.54003906 50.384765625 1724.63867188 115.553710938 c 0
 1410.98632812 197.022460938 1073.58886719 327.645507812 733.873046875 497.502929688 c 0
 693.564453125 517.657226562 648.096679688 529 600 529 c 0
 434.42578125 529 300 394.57421875 300 229 c 0
 300 111.521484375 367.671875 9.724609375 466.126953125 -39.5029296875 c 0
 837.522460938 -225.200195312 1211.23535156 -371.12109375 1573.578125 -465.236328125 c 0
 1863.47265625 -540.533203125 2146.43066406 -583 2417.59960938 -583 c 0
 2822.36621094 -583 3207.43164062 -486.961914062 3513.12207031 -242.409179688 c 0
 3630.36816406 -148.612304688 3733.47753906 -34.1455078125 3817.81542969 98.1474609375 c 0
 3885.28320312 203.979492188 3940.74121094 320.865234375 3983.91113281 447.59765625 c 0
 4061.65625 675.826171875 4100 935.657226562 4100 1229 c 0
 4100 1522.34277344 4061.65625 1782.17382812 3983.91113281 2010.40234375 c 0
 3940.74121094 2137.13476562 3885.28320312 2254.02050781 3817.81542969 2359.85253906 c 0
 3733.47753906 2492.14550781 3630.36816406 2606.61230469 3513.12207031 2700.40917969 c 0
 3207.43164062 2944.96191406 2822.36621094 3041 2417.59960938 3041 c 0
 2146.43066406 3041 1863.47265625 2998.53320312 1573.578125 2923.23632812 c 0
 1211.23535156 2829.12109375 837.522460938 2683.20019531 466.126953125 2497.50292969 c 0
 367.671875 2448.27539062 300 2346.47851562 300 2229 c 0
 300 2063.42578125 434.42578125 1929 600 1929 c 0
EndSplineSet
Validated: 524297
EndChar

StartChar: uniE505
Encoding: 58629 58629 4
Width: 4224
Flags: HW
LayerCount: 2
Fore
SplineSet
2812 2829 m 0
 2812 2780.90332031 2823.34277344 2735.43554688 2843.49707031 2695.12695312 c 0
 3013.35449219 2355.41113281 3143.97753906 2018.01367188 3225.44628906 1704.36132812 c 0
 3290.61523438 1453.45996094 3324 1218.09765625 3324 1011.40039062 c 0
 3324 699.366210938 3249.37109375 458.653320312 3114.6640625 290.270507812 c 0
 3013.96582031 164.396484375 2876.18847656 73.2021484375 2700.06347656 13.2060546875 c 0
 2546.48046875 -39.111328125 2351.99023438 -71 2112 -71 c 0
 1872.00976562 -71 1677.51953125 -39.111328125 1523.93652344 13.2060546875 c 0
 1347.68847656 73.244140625 1210.09863281 164.31640625 1109.3359375 290.270507812 c 0
 974.62890625 458.653320312 900 699.366210938 900 1011.40039062 c 0
 900 1218.09765625 933.384765625 1453.45996094 998.553710938 1704.36132812 c 0
 1080.02246094 2018.01367188 1210.64550781 2355.41113281 1380.50292969 2695.12695312 c 0
 1384.16699219 2702.45410156 1387.5390625 2709.95214844 1390.60449219 2717.60449219 c 2
 2390.60449219 5213.60449219 l 2
 2404.40625 5248.05175781 2412 5285.64648438 2412 5325 c 0
 2412 5490.57421875 2277.57421875 5625 2112 5625 c 0
 1985.77929688 5625 1877.66015625 5546.88085938 1833.39550781 5436.39550781 c 2
 837.928710938 2951.71191406 l 1
 654.881835938 2583.9921875 510.936523438 2214.13476562 417.763671875 1855.421875 c 0
 342.466796875 1565.52734375 300 1282.56933594 300 1011.40039062 c 0
 300 606.633789062 396.038085938 221.568359375 640.590820312 -84.1220703125 c 0
 734.387695312 -201.368164062 848.854492188 -304.477539062 981.147460938 -388.815429688 c 0
 1086.97949219 -456.283203125 1203.86523438 -511.741210938 1330.59765625 -554.911132812 c 0
 1558.82617188 -632.65625 1818.65722656 -671 2112 -671 c 0
 2405.34277344 -671 2665.17382812 -632.65625 2893.40234375 -554.911132812 c 0
 3020.13476562 -511.741210938 3137.02050781 -456.283203125 3242.85253906 -388.815429688 c 0
 3375.14550781 -304.477539062 3489.61230469 -201.368164062 3583.40917969 -84.1220703125 c 0
 3827.96191406 221.568359375 3924 606.633789062 3924 1011.40039062 c 0
 3924 1282.56933594 3881.53320312 1565.52734375 3806.23632812 1855.421875 c 0
 3712.12109375 2217.76464844 3566.20019531 2591.47753906 3380.50292969 2962.87304688 c 0
 3331.27539062 3061.328125 3229.47851562 3129 3112 3129 c 0
 2946.42578125 3129 2812 2994.57421875 2812 2829 c 0
EndSplineSet
Validated: 524297
EndChar

StartChar: uniE506
Encoding: 58630 58630 5
Width: 4224
Flags: HW
LayerCount: 2
Fore
SplineSet
1412 2829 m 0
 1412 2994.57421875 1277.57421875 3129 1112 3129 c 0
 994.521484375 3129 892.724609375 3061.328125 843.497070312 2962.87304688 c 0
 657.799804688 2591.47753906 511.87890625 2217.76464844 417.763671875 1855.421875 c 0
 342.466796875 1565.52734375 300 1282.56933594 300 1011.40039062 c 0
 300 606.633789062 396.038085938 221.568359375 640.590820312 -84.1220703125 c 0
 734.387695312 -201.368164062 848.854492188 -304.477539062 981.147460938 -388.815429688 c 0
 1086.97949219 -456.283203125 1203.86523438 -511.741210938 1330.59765625 -554.911132812 c 0
 1558.82617188 -632.65625 1818.65722656 -671 2112 -671 c 0
 2405.34277344 -671 2665.17382812 -632.65625 2893.40234375 -554.911132812 c 0
 3020.13476562 -511.741210938 3137.02050781 -456.283203125 3242.85253906 -388.815429688 c 0
 3375.14550781 -304.477539062 3489.61230469 -201.368164062 3583.40917969 -84.1220703125 c 0
 3827.96191406 221.568359375 3924 606.633789062 3924 1011.40039062 c 0
 3924 1282.56933594 3881.53320312 1565.52734375 3806.23632812 1855.421875 c 0
 3713.06347656 2214.13476562 3538.83398438 2570.41503906 3386.07128906 2951.71191406 c 2
 2390.60449219 5436.39550781 l 2
 2346.33984375 5546.88085938 2238.22070312 5625 2112 5625 c 0
 1946.42578125 5625 1812 5490.57421875 1812 5325 c 0
 1812 5285.64648438 1819.59375 5248.05175781 1833.39550781 5213.60449219 c 2
 2833.39550781 2717.60449219 l 2
 2836.4609375 2709.95214844 2839.83300781 2702.45410156 2843.49707031 2695.12695312 c 0
 3013.35449219 2355.41113281 3143.97753906 2018.01367188 3225.44628906 1704.36132812 c 0
 3290.61523438 1453.45996094 3324 1218.09765625 3324 1011.40039062 c 0
 3324 699.366210938 3249.37109375 458.653320312 3114.6640625 290.270507812 c 0
 3013.96582031 164.396484375 2876.18847656 73.2021484375 2700.06347656 13.2060546875 c 0
 2546.48046875 -39.111328125 2351.99023438 -71 2112 -71 c 0
 1872.00976562 -71 1677.51953125 -39.111328125 1523.93652344 13.2060546875 c 0
 1347.68847656 73.244140625 1210.09863281 164.31640625 1109.3359375 290.270507812 c 0
 974.62890625 458.653320312 900 699.366210938 900 1011.40039062 c 0
 900 1218.09765625 933.384765625 1453.45996094 998.553710938 1704.36132812 c 0
 1080.02246094 2018.01367188 1210.64550781 2355.41113281 1380.50292969 2695.12695312 c 0
 1400.65722656 2735.43554688 1412 2780.90332031 1412 2829 c 0
EndSplineSet
Validated: 524297
EndChar

StartChar: uniE507
Encoding: 58631 58631 6
Width: 4224
Flags: HW
LayerCount: 2
Fore
SplineSet
2812 -371 m 0
 2812 -536.57421875 2946.42578125 -671 3112 -671 c 0
 3229.47851562 -671 3331.27539062 -603.328125 3380.50292969 -504.873046875 c 0
 3566.20019531 -133.477539062 3712.12109375 240.235351562 3806.23632812 602.578125 c 0
 3881.53320312 892.47265625 3924 1175.43066406 3924 1446.59960938 c 0
 3924 1851.36621094 3827.96191406 2236.43164062 3583.40917969 2542.12207031 c 0
 3489.61230469 2659.36816406 3375.14550781 2762.47753906 3242.85253906 2846.81542969 c 0
 3137.02050781 2914.28320312 3020.13476562 2969.74121094 2893.40234375 3012.91113281 c 0
 2665.17382812 3090.65625 2405.34277344 3129 2112 3129 c 0
 1818.65722656 3129 1558.82617188 3090.65625 1330.59765625 3012.91113281 c 0
 1203.86523438 2969.74121094 1086.97949219 2914.28320312 981.147460938 2846.81542969 c 0
 848.854492188 2762.47753906 734.387695312 2659.36816406 640.590820312 2542.12207031 c 0
 396.038085938 2236.43164062 300 1851.36621094 300 1446.59960938 c 0
 300 1175.43066406 342.466796875 892.47265625 417.763671875 602.578125 c 0
 510.936523438 243.865234375 685.166015625 -112.415039062 837.928710938 -493.711914062 c 2
 1833.39550781 -2978.39550781 l 2
 1877.66015625 -3088.88085938 1985.77929688 -3167 2112 -3167 c 0
 2277.57421875 -3167 2412 -3032.57421875 2412 -2867 c 0
 2412 -2827.64648438 2404.40625 -2790.05175781 2390.60449219 -2755.60449219 c 2
 1390.60449219 -259.604492188 l 2
 1387.5390625 -251.952148438 1384.16699219 -244.454101562 1380.50292969 -237.126953125 c 0
 1210.64550781 102.588867188 1080.02246094 439.986328125 998.553710938 753.638671875 c 0
 933.384765625 1004.54003906 900 1239.90234375 900 1446.59960938 c 0
 900 1758.63378906 974.62890625 1999.34667969 1109.3359375 2167.72949219 c 0
 1210.03417969 2293.60351562 1347.81152344 2384.79785156 1523.93652344 2444.79394531 c 0
 1677.51953125 2497.11132812 1872.00976562 2529 2112 2529 c 0
 2351.99023438 2529 2546.48046875 2497.11132812 2700.06347656 2444.79394531 c 0
 2876.31152344 2384.75585938 3013.90136719 2293.68359375 3114.6640625 2167.72949219 c 0
 3249.37109375 1999.34667969 3324 1758.63378906 3324 1446.59960938 c 0
 3324 1239.90234375 3290.61523438 1004.54003906 3225.44628906 753.638671875 c 0
 3143.97753906 439.986328125 3013.35449219 102.588867188 2843.49707031 -237.126953125 c 0
 2823.34277344 -277.435546875 2812 -322.903320312 2812 -371 c 0
EndSplineSet
Validated: 524297
EndChar

StartChar: uniE508
Encoding: 58632 58632 7
Width: 4224
Flags: HW
LayerCount: 2
Fore
SplineSet
1112 -671 m 0
 1277.57421875 -671 1412 -536.57421875 1412 -371 c 0
 1412 -322.903320312 1400.65722656 -277.435546875 1380.50292969 -237.126953125 c 0
 1210.64550781 102.588867188 1080.02246094 439.986328125 998.553710938 753.638671875 c 0
 933.384765625 1004.54003906 900 1239.90234375 900 1446.59960938 c 0
 900 1758.63378906 974.62890625 1999.34667969 1109.3359375 2167.72949219 c 0
 1210.03417969 2293.60351562 1347.81152344 2384.79785156 1523.93652344 2444.79394531 c 0
 1677.51953125 2497.11132812 1872.00976562 2529 2112 2529 c 0
 2351.99023438 2529 2546.48046875 2497.11132812 2700.06347656 2444.79394531 c 0
 2876.31152344 2384.75585938 3013.90136719 2293.68359375 3114.6640625 2167.72949219 c 0
 3249.37109375 1999.34667969 3324 1758.63378906 3324 1446.59960938 c 0
 3324 1239.90234375 3290.61523438 1004.54003906 3225.44628906 753.638671875 c 0
 3143.97753906 439.986328125 3013.35449219 102.588867188 2843.49707031 -237.126953125 c 0
 2839.83300781 -244.454101562 2836.4609375 -251.952148438 2833.39550781 -259.604492188 c 2
 1833.39550781 -2755.60449219 l 2
 1819.59375 -2790.05175781 1812 -2827.64648438 1812 -2867 c 0
 1812 -3032.57421875 1946.42578125 -3167 2112 -3167 c 0
 2238.22070312 -3167 2346.33984375 -3088.88085938 2390.60449219 -2978.39550781 c 2
 3386.07128906 -493.711914062 l 1
 3569.11816406 -125.9921875 3713.06347656 243.865234375 3806.23632812 602.578125 c 0
 3881.53320312 892.47265625 3924 1175.43066406 3924 1446.59960938 c 0
 3924 1851.36621094 3827.96191406 2236.43164062 3583.40917969 2542.12207031 c 0
 3489.61230469 2659.36816406 3375.14550781 2762.47753906 3242.85253906 2846.81542969 c 0
 3137.02050781 2914.28320312 3020.13476562 2969.74121094 2893.40234375 3012.91113281 c 0
 2665.17382812 3090.65625 2405.34277344 3129 2112 3129 c 0
 1818.65722656 3129 1558.82617188 3090.65625 1330.59765625 3012.91113281 c 0
 1203.86523438 2969.74121094 1086.97949219 2914.28320312 981.147460938 2846.81542969 c 0
 848.854492188 2762.47753906 734.387695312 2659.36816406 640.590820312 2542.12207031 c 0
 396.038085938 2236.43164062 300 1851.36621094 300 1446.59960938 c 0
 300 1175.43066406 342.466796875 892.47265625 417.763671875 602.578125 c 0
 511.87890625 240.235351562 657.799804688 -133.477539062 843.497070312 -504.873046875 c 0
 892.724609375 -603.328125 994.521484375 -671 1112 -671 c 0
EndSplineSet
Validated: 524297
EndChar

StartChar: uniE509
Encoding: 58633 58633 8
Width: 4400
Flags: HW
LayerCount: 2
Fore
SplineSet
2500 5325 m 0
 2500 5490.57421875 2365.57421875 5625 2200 5625 c 0
 2083.94238281 5625 1983.18945312 5558.95507812 1933.30566406 5462.43066406 c 2
 333.305664062 2366.43066406 l 2
 312.022460938 2325.24804688 300 2278.51660156 300 2229 c 0
 300 2063.42578125 434.42578125 1929 600 1929 c 0
 648.096679688 1929 693.564453125 1940.34277344 733.873046875 1960.49707031 c 0
 1073.58886719 2130.35449219 1410.98632812 2260.97753906 1724.63867188 2342.44628906 c 0
 1975.54003906 2407.61523438 2210.90234375 2441 2417.59960938 2441 c 0
 2729.63378906 2441 2970.34667969 2366.37109375 3138.72949219 2231.6640625 c 0
 3264.60351562 2130.96582031 3355.79785156 1993.18847656 3415.79394531 1817.06347656 c 0
 3468.11132812 1663.48046875 3500 1468.99023438 3500 1229 c 0
 3500 989.009765625 3468.11132812 794.51953125 3415.79394531 640.936523438 c 0
 3355.75585938 464.688476562 3264.68359375 327.098632812 3138.72949219 226.3359375 c 0
 2970.34667969 91.62890625 2729.63378906 17 2417.59960938 17 c 0
 2210.90234375 17 1975.54003906 50.384765625 1724.63867188 115.553710938 c 0
 1410.98632812 197.022460938 1073.58886719 327.645507812 733.873046875 497.502929688 c 0
 693.564453125 517.657226562 648.096679688 529 600 529 c 0
 434.42578125 529 300 394.57421875 300 229 c 0
 300 111.521484375 367.671875 9.724609375 466.126953125 -39.5029296875 c 0
 837.522460938 -225.200195312 1211.23535156 -371.12109375 1573.578125 -465.236328125 c 0
 1863.47265625 -540.533203125 2146.43066406 -583 2417.59960938 -583 c 0
 2822.36621094 -583 3207.43164062 -486.961914062 3513.12207031 -242.409179688 c 0
 3630.36816406 -148.612304688 3733.47753906 -34.1455078125 3817.81542969 98.1474609375 c 0
 3885.28320312 203.979492188 3940.74121094 320.865234375 3983.91113281 447.59765625 c 0
 4061.65625 675.826171875 4100 935.657226562 4100 1229 c 0
 4100 1522.34277344 4061.65625 1782.17382812 3983.91113281 2010.40234375 c 0
 3940.74121094 2137.13476562 3885.28320312 2254.02050781 3817.81542969 2359.85253906 c 0
 3733.47753906 2492.14550781 3630.36816406 2606.61230469 3513.12207031 2700.40917969 c 0
 3207.43164062 2944.96191406 2822.36621094 3041 2417.59960938 3041 c 0
 2146.43066406 3041 1863.47265625 2998.53320312 1573.578125 2923.23632812 c 0
 1465.22949219 2895.09375 1355.86523438 2862.31933594 1245.84863281 2825.234375 c 1
 2466.69433594 5187.56933594 l 2
 2487.97753906 5228.75195312 2500 5275.48339844 2500 5325 c 0
EndSplineSet
Validated: 524297
EndChar

StartChar: uniE50A
Encoding: 58634 58634 9
Width: 4400
Flags: HW
LayerCount: 2
Fore
SplineSet
2200 5625 m 0
 2034.42578125 5625 1900 5490.57421875 1900 5325 c 0
 1900 5275.48339844 1912.02246094 5228.75195312 1933.30566406 5187.56933594 c 2
 3154.15136719 2825.234375 l 1
 3044.13476562 2862.31933594 2934.77050781 2895.09375 2826.421875 2923.23632812 c 0
 2536.52734375 2998.53320312 2253.56933594 3041 1982.40039062 3041 c 0
 1577.63378906 3041 1192.56835938 2944.96191406 886.877929688 2700.40917969 c 0
 769.631835938 2606.61230469 666.522460938 2492.14550781 582.184570312 2359.85253906 c 0
 514.716796875 2254.02050781 459.258789062 2137.13476562 416.088867188 2010.40234375 c 0
 338.34375 1782.17382812 300 1522.34277344 300 1229 c 0
 300 935.657226562 338.34375 675.826171875 416.088867188 447.59765625 c 0
 459.258789062 320.865234375 514.716796875 203.979492188 582.184570312 98.1474609375 c 0
 666.522460938 -34.1455078125 769.631835938 -148.612304688 886.877929688 -242.409179688 c 0
 1192.56835938 -486.961914062 1577.63378906 -583 1982.40039062 -583 c 0
 2253.56933594 -583 2536.52734375 -540.533203125 2826.421875 -465.236328125 c 0
 3188.76464844 -371.12109375 3562.47753906 -225.200195312 3933.87304688 -39.5029296875 c 0
 4032.328125 9.724609375 4100 111.521484375 4100 229 c 0
 4100 394.57421875 3965.57421875 529 3800 529 c 0
 3751.90332031 529 3706.43554688 517.657226562 3666.12695312 497.502929688 c 0
 3326.41113281 327.645507812 2989.01367188 197.022460938 2675.36132812 115.553710938 c 0
 2424.45996094 50.384765625 2189.09765625 17 1982.40039062 17 c 0
 1670.36621094 17 1429.65332031 91.62890625 1261.27050781 226.3359375 c 0
 1135.39648438 327.034179688 1044.20214844 464.811523438 984.206054688 640.936523438 c 0
 931.888671875 794.51953125 900 989.009765625 900 1229 c 0
 900 1468.99023438 931.888671875 1663.48046875 984.206054688 1817.06347656 c 0
 1044.24414062 1993.31152344 1135.31640625 2130.90136719 1261.27050781 2231.6640625 c 0
 1429.65332031 2366.37109375 1670.36621094 2441 1982.40039062 2441 c 0
 2189.09765625 2441 2424.45996094 2407.61523438 2675.36132812 2342.44628906 c 0
 2989.01367188 2260.97753906 3326.41113281 2130.35449219 3666.12695312 1960.49707031 c 0
 3706.43554688 1940.34277344 3751.90332031 1929 3800 1929 c 0
 3965.57421875 1929 4100 2063.42578125 4100 2229 c 0
 4100 2278.51660156 4087.97753906 2325.24804688 4066.69433594 2366.43066406 c 2
 2466.69433594 5462.43066406 l 2
 2416.81054688 5558.95507812 2316.05761719 5625 2200 5625 c 0
EndSplineSet
Validated: 524297
EndChar

StartChar: uniE50B
Encoding: 58635 58635 10
Width: 4400
Flags: HW
LayerCount: 2
Fore
SplineSet
600 1929 m 0
 648.096679688 1929 693.564453125 1940.34277344 733.873046875 1960.49707031 c 0
 1073.58886719 2130.35449219 1410.98632812 2260.97753906 1724.63867188 2342.44628906 c 0
 1975.54003906 2407.61523438 2210.90234375 2441 2417.59960938 2441 c 0
 2729.63378906 2441 2970.34667969 2366.37109375 3138.72949219 2231.6640625 c 0
 3264.60351562 2130.96582031 3355.79785156 1993.18847656 3415.79394531 1817.06347656 c 0
 3468.11132812 1663.48046875 3500 1468.99023438 3500 1229 c 0
 3500 989.009765625 3468.11132812 794.51953125 3415.79394531 640.936523438 c 0
 3355.75585938 464.688476562 3264.68359375 327.098632812 3138.72949219 226.3359375 c 0
 2970.34667969 91.62890625 2729.63378906 17 2417.59960938 17 c 0
 2210.90234375 17 1975.54003906 50.384765625 1724.63867188 115.553710938 c 0
 1410.98632812 197.022460938 1073.58886719 327.645507812 733.873046875 497.502929688 c 0
 693.564453125 517.657226562 648.096679688 529 600 529 c 0
 434.42578125 529 300 394.57421875 300 229 c 0
 300 179.483398438 312.022460938 132.751953125 333.305664062 91.5693359375 c 2
 1933.30566406 -3004.43066406 l 2
 1983.18945312 -3100.95507812 2083.94238281 -3167 2200 -3167 c 0
 2365.57421875 -3167 2500 -3032.57421875 2500 -2867 c 0
 2500 -2817.48339844 2487.97753906 -2770.75195312 2466.69433594 -2729.56933594 c 2
 1245.84863281 -367.234375 l 1
 1355.86523438 -404.319335938 1465.22949219 -437.09375 1573.578125 -465.236328125 c 0
 1863.47265625 -540.533203125 2146.43066406 -583 2417.59960938 -583 c 0
 2822.36621094 -583 3207.43164062 -486.961914062 3513.12207031 -242.409179688 c 0
 3630.36816406 -148.612304688 3733.47753906 -34.1455078125 3817.81542969 98.1474609375 c 0
 3885.28320312 203.979492188 3940.74121094 320.865234375 3983.91113281 447.59765625 c 0
 4061.65625 675.826171875 4100 935.657226562 4100 1229 c 0
 4100 1522.34277344 4061.65625 1782.17382812 3983.91113281 2010.40234375 c 0
 3940.74121094 2137.13476562 3885.28320312 2254.02050781 3817.81542969 2359.85253906 c 0
 3733.47753906 2492.14550781 3630.36816406 2606.61230469 3513.12207031 2700.40917969 c 0
 3207.43164062 2944.96191406 2822.36621094 3041 2417.59960938 3041 c 0
 2146.43066406 3041 1863.47265625 2998.53320312 1573.578125 2923.23632812 c 0
 1211.23535156 2829.12109375 837.522460938 2683.20019531 466.126953125 2497.50292969 c 0
 367.671875 2448.27539062 300 2346.47851562 300 2229 c 0
 300 2063.42578125 434.42578125 1929 600 1929 c 0
EndSplineSet
Validated: 524297
EndChar

StartChar: uniE50C
Encoding: 58636 58636 11
Width: 4400
Flags: HW
LayerCount: 2
Fore
SplineSet
3800 1929 m 0
 3965.57421875 1929 4100 2063.42578125 4100 2229 c 0
 4100 2346.47851562 4032.328125 2448.27539062 3933.87304688 2497.50292969 c 0
 3562.47753906 2683.20019531 3188.76464844 2829.12109375 2826.421875 2923.23632812 c 0
 2536.52734375 2998.53320312 2253.56933594 3041 1982.40039062 3041 c 0
 1577.63378906 3041 1192.56835938 2944.96191406 886.877929688 2700.40917969 c 0
 769.631835938 2606.61230469 666.522460938 2492.14550781 582.184570312 2359.85253906 c 0
 514.716796875 2254.02050781 459.258789062 2137.13476562 416.088867188 2010.40234375 c 0
 338.34375 1782.17382812 300 1522.34277344 300 1229 c 0
 300 935.657226562 338.34375 675.826171875 416.088867188 447.59765625 c 0
 459.258789062 320.865234375 514.716796875 203.979492188 582.184570312 98.1474609375 c 0
 666.522460938 -34.1455078125 769.631835938 -148.612304688 886.877929688 -242.409179688 c 0
 1192.56835938 -486.961914062 1577.63378906 -583 1982.40039062 -583 c 0
 2253.56933594 -583 2536.52734375 -540.533203125 2826.421875 -465.236328125 c 0
 2934.77050781 -437.09375 3044.13476562 -404.319335938 3154.15136719 -367.234375 c 1
 1933.30566406 -2729.56933594 l 2
 1912.02246094 -2770.75195312 1900 -2817.48339844 1900 -2867 c 0
 1900 -3032.57421875 2034.42578125 -3167 2200 -3167 c 0
 2316.05761719 -3167 2416.81054688 -3100.95507812 2466.69433594 -3004.43066406 c 2
 4066.69433594 91.5693359375 l 2
 4087.97753906 132.751953125 4100 179.483398438 4100 229 c 0
 4100 394.57421875 3965.57421875 529 3800 529 c 0
 3751.90332031 529 3706.43554688 517.657226562 3666.12695312 497.502929688 c 0
 3326.41113281 327.645507812 2989.01367188 197.022460938 2675.36132812 115.553710938 c 0
 2424.45996094 50.384765625 2189.09765625 17 1982.40039062 17 c 0
 1670.36621094 17 1429.65332031 91.62890625 1261.27050781 226.3359375 c 0
 1135.39648438 327.034179688 1044.20214844 464.811523438 984.206054688 640.936523438 c 0
 931.888671875 794.51953125 900 989.009765625 900 1229 c 0
 900 1468.99023438 931.888671875 1663.48046875 984.206054688 1817.06347656 c 0
 1044.24414062 1993.31152344 1135.31640625 2130.90136719 1261.27050781 2231.6640625 c 0
 1429.65332031 2366.37109375 1670.36621094 2441 1982.40039062 2441 c 0
 2189.09765625 2441 2424.45996094 2407.61523438 2675.36132812 2342.44628906 c 0
 2989.01367188 2260.97753906 3326.41113281 2130.35449219 3666.12695312 1960.49707031 c 0
 3706.43554688 1940.34277344 3751.90332031 1929 3800 1929 c 0
EndSplineSet
Validated: 524297
EndChar

StartChar: uniE50D
Encoding: 58637 58637 12
Width: 4400
Flags: HW
LayerCount: 2
Fore
SplineSet
600 2129 m 0
 648.096679688 2129 693.564453125 2140.34277344 733.873046875 2160.49707031 c 0
 1069.62011719 2328.37109375 1404.0546875 2448.75683594 1717.56347656 2522.04492188 c 0
 1968.32910156 2580.66503906 2205.55957031 2609 2417.59960938 2609 c 0
 2723.60253906 2609 2984.96972656 2550.38574219 3171.8984375 2438.22851562 c 0
 3225.92285156 2405.81347656 3272.11230469 2369.94921875 3311.43652344 2330.87695312 c 0
 3360.58886719 2282.04199219 3399.53417969 2228.07128906 3429.83300781 2165.6953125 c 0
 3473.32421875 2076.15722656 3500 1966.60058594 3500 1829 c 0
 3500 1742.9921875 3482.89648438 1696.23535156 3465.94726562 1667.55957031 c 0
 3453.91601562 1647.203125 3439.7734375 1631.30078125 3415.953125 1613.88574219 c 0
 3396.91699219 1599.96875 3371.1328125 1585.45214844 3337.23242188 1571.90429688 c 0
 3288.49121094 1552.42578125 3223.55273438 1535.56640625 3145.91796875 1523.984375 c 0
 3048.90625 1509.51171875 2932.97167969 1503.1796875 2805.90625 1503.1796875 c 0
 2626.6328125 1503.1796875 2425.421875 1515.50585938 2218.96289062 1528.40917969 c 0
 2012.30371094 1541.32519531 1800.39550781 1554.8203125 1594.09375 1554.8203125 c 0
 1309.97753906 1554.8203125 1053.02734375 1528.44628906 840.458984375 1443.49902344 c 0
 767.819335938 1414.46972656 696.802734375 1377.27832031 630.462890625 1328.77734375 c 0
 547.563476562 1268.16894531 472.837890625 1189.3125 417.145507812 1095.08691406 c 0
 336.573242188 958.763671875 300 799.416992188 300 629 c 0
 300 411.044921875 343.557617188 208.94140625 430.126953125 30.7158203125 c 0
 490.149414062 -92.85546875 570.376953125 -203.663085938 665.765625 -298.4375 c 0
 742.073242188 -374.252929688 827.751953125 -439.728515625 920.046875 -495.10546875 c 0
 1053.02148438 -574.889648438 1199.58203125 -633.9140625 1355.53613281 -675.19921875 c 0
 1550.546875 -726.82421875 1760.86621094 -751 1982.40039062 -751 c 0
 2248.22558594 -751 2529.31640625 -716.125 2819.34667969 -648.326171875 c 0
 3181.83203125 -563.588867188 3558.50878906 -427.184570312 3933.87304688 -239.502929688 c 0
 4032.328125 -190.275390625 4100 -88.478515625 4100 29 c 0
 4100 194.57421875 3965.57421875 329 3800 329 c 0
 3751.90332031 329 3706.43554688 317.657226562 3666.12695312 297.502929688 c 0
 3330.37988281 129.62890625 2995.9453125 9.2431640625 2682.43652344 -64.044921875 c 0
 2431.67089844 -122.665039062 2194.44042969 -151 1982.40039062 -151 c 0
 1676.39746094 -151 1415.03027344 -92.3857421875 1228.1015625 19.771484375 c 0
 1174.07714844 52.1865234375 1127.88769531 88.05078125 1088.56347656 127.123046875 c 0
 1039.41113281 175.958007812 1000.46582031 229.928710938 970.166992188 292.3046875 c 0
 926.67578125 381.842773438 900 491.399414062 900 629 c 0
 900 715.0078125 917.103515625 761.764648438 934.052734375 790.440429688 c 0
 946.083984375 810.796875 960.2265625 826.69921875 984.046875 844.114257812 c 0
 1003.08300781 858.03125 1028.8671875 872.547851562 1062.76757812 886.095703125 c 0
 1111.50878906 905.57421875 1176.44726562 922.43359375 1254.08203125 934.015625 c 0
 1351.09375 948.48828125 1467.02832031 954.8203125 1594.09375 954.8203125 c 0
 1773.3671875 954.8203125 1974.578125 942.494140625 2181.03710938 929.590820312 c 0
 2387.69628906 916.674804688 2599.60449219 903.1796875 2805.90625 903.1796875 c 0
 3090.02246094 903.1796875 3346.97265625 929.553710938 3559.54101562 1014.50097656 c 0
 3632.18066406 1043.53027344 3703.19726562 1080.72167969 3769.53710938 1129.22265625 c 0
 3852.43652344 1189.83105469 3927.16210938 1268.6875 3982.85449219 1362.91308594 c 0
 4063.42675781 1499.23632812 4100 1658.58300781 4100 1829 c 0
 4100 2046.95507812 4056.44238281 2249.05859375 3969.87304688 2427.28417969 c 0
 3909.85058594 2550.85546875 3829.62304688 2661.66308594 3734.234375 2756.4375 c 0
 3657.92675781 2832.25292969 3572.24804688 2897.72851562 3479.953125 2953.10546875 c 0
 3346.97851562 3032.88964844 3200.41796875 3091.9140625 3044.46386719 3133.19921875 c 0
 2849.453125 3184.82421875 2639.13378906 3209 2417.59960938 3209 c 0
 2151.77441406 3209 1870.68359375 3174.125 1580.65332031 3106.32617188 c 0
 1218.16796875 3021.58886719 841.491210938 2885.18457031 466.126953125 2697.50292969 c 0
 367.671875 2648.27539062 300 2546.47851562 300 2429 c 0
 300 2263.42578125 434.42578125 2129 600 2129 c 0
EndSplineSet
Validated: 524297
EndChar

StartChar: uniE50E
Encoding: 58638 58638 13
Width: 4560
Flags: HW
LayerCount: 2
Fore
SplineSet
1080 -671 m 0
 1245.57421875 -671 1380 -536.57421875 1380 -371 c 0
 1380 -322.903320312 1368.65722656 -277.435546875 1348.50292969 -237.126953125 c 0
 1180.62890625 98.6201171875 1060.24316406 433.0546875 986.955078125 746.563476562 c 0
 928.334960938 997.329101562 900 1234.55957031 900 1446.59960938 c 0
 900 1752.60253906 958.614257812 2013.96972656 1070.77148438 2200.8984375 c 0
 1103.18652344 2254.92285156 1139.05078125 2301.11230469 1178.12304688 2340.43652344 c 0
 1226.95800781 2389.58886719 1280.92871094 2428.53417969 1343.3046875 2458.83300781 c 0
 1432.84277344 2502.32421875 1542.39941406 2529 1680 2529 c 0
 1766.0078125 2529 1812.76464844 2511.89648438 1841.44042969 2494.94726562 c 0
 1861.796875 2482.91601562 1877.69921875 2468.7734375 1895.11425781 2444.953125 c 0
 1909.03125 2425.91699219 1923.54785156 2400.1328125 1937.09570312 2366.23242188 c 0
 1956.57421875 2317.49121094 1973.43359375 2252.55273438 1985.015625 2174.91796875 c 0
 1999.48828125 2077.90625 2005.8203125 1961.97167969 2005.8203125 1834.90625 c 0
 2005.8203125 1655.6328125 1993.49414062 1454.421875 1980.59082031 1247.96289062 c 0
 1967.67480469 1041.30371094 1954.1796875 829.395507812 1954.1796875 623.09375 c 0
 1954.1796875 338.977539062 1980.55371094 82.02734375 2065.50097656 -130.541015625 c 0
 2094.53027344 -203.180664062 2131.72167969 -274.197265625 2180.22265625 -340.537109375 c 0
 2240.83105469 -423.436523438 2319.6875 -498.162109375 2413.91308594 -553.854492188 c 0
 2550.23632812 -634.426757812 2709.58300781 -671 2880 -671 c 0
 3097.95507812 -671 3300.05859375 -627.442382812 3478.28417969 -540.873046875 c 0
 3601.85546875 -480.850585938 3712.66308594 -400.623046875 3807.4375 -305.234375 c 0
 3883.25292969 -228.926757812 3948.72851562 -143.248046875 4004.10546875 -50.953125 c 0
 4083.88964844 82.021484375 4142.9140625 228.58203125 4184.19921875 384.536132812 c 0
 4235.82421875 579.546875 4260 789.866210938 4260 1011.40039062 c 0
 4260 1277.22558594 4225.125 1558.31640625 4157.32617188 1848.34667969 c 0
 4072.58886719 2210.83203125 3936.18457031 2587.50878906 3748.50292969 2962.87304688 c 0
 3699.27539062 3061.328125 3597.47851562 3129 3480 3129 c 0
 3314.42578125 3129 3180 2994.57421875 3180 2829 c 0
 3180 2780.90332031 3191.34277344 2735.43554688 3211.49707031 2695.12695312 c 0
 3379.37109375 2359.37988281 3499.75683594 2024.9453125 3573.04492188 1711.43652344 c 0
 3631.66503906 1460.67089844 3660 1223.44042969 3660 1011.40039062 c 0
 3660 705.397460938 3601.38574219 444.030273438 3489.22851562 257.1015625 c 0
 3456.81347656 203.077148438 3420.94921875 156.887695312 3381.87695312 117.563476562 c 0
 3333.04199219 68.4111328125 3279.07128906 29.4658203125 3216.6953125 -0.8330078125 c 0
 3127.15722656 -44.32421875 3017.60058594 -71 2880 -71 c 0
 2793.9921875 -71 2747.23535156 -53.896484375 2718.55957031 -36.947265625 c 0
 2698.203125 -24.916015625 2682.30078125 -10.7734375 2664.88574219 13.046875 c 0
 2650.96875 32.0830078125 2636.45214844 57.8671875 2622.90429688 91.767578125 c 0
 2603.42578125 140.508789062 2586.56640625 205.447265625 2574.984375 283.08203125 c 0
 2560.51171875 380.09375 2554.1796875 496.028320312 2554.1796875 623.09375 c 0
 2554.1796875 802.3671875 2566.50585938 1003.578125 2579.40917969 1210.03710938 c 0
 2592.32519531 1416.69628906 2605.8203125 1628.60449219 2605.8203125 1834.90625 c 0
 2605.8203125 2119.02246094 2579.44628906 2375.97265625 2494.49902344 2588.54101562 c 0
 2465.46972656 2661.18066406 2428.27832031 2732.19726562 2379.77734375 2798.53710938 c 0
 2319.16894531 2881.43652344 2240.3125 2956.16210938 2146.08691406 3011.85449219 c 0
 2009.76367188 3092.42675781 1850.41699219 3129 1680 3129 c 0
 1462.04492188 3129 1259.94140625 3085.44238281 1081.71582031 2998.87304688 c 0
 958.14453125 2938.85058594 847.336914062 2858.62304688 752.5625 2763.234375 c 0
 676.747070312 2686.92675781 611.271484375 2601.24804688 555.89453125 2508.953125 c 0
 476.110351562 2375.97851562 417.0859375 2229.41796875 375.80078125 2073.46386719 c 0
 324.17578125 1878.453125 300 1668.13378906 300 1446.59960938 c 0
 300 1180.77441406 334.875 899.68359375 402.673828125 609.653320312 c 0
 487.411132812 247.16796875 623.815429688 -129.508789062 811.497070312 -504.873046875 c 0
 860.724609375 -603.328125 962.521484375 -671 1080 -671 c 0
EndSplineSet
Validated: 524297
EndChar

StartChar: uniE50F
Encoding: 58639 58639 14
Width: 4400
Flags: HW
LayerCount: 2
Fore
SplineSet
600 329 m 0
 434.42578125 329 300 194.57421875 300 29 c 0
 300 -88.478515625 367.671875 -190.275390625 466.126953125 -239.502929688 c 0
 841.491210938 -427.184570312 1218.16796875 -563.588867188 1580.65332031 -648.326171875 c 0
 1870.68359375 -716.125 2151.77441406 -751 2417.59960938 -751 c 0
 2639.13378906 -751 2849.453125 -726.82421875 3044.46386719 -675.19921875 c 0
 3200.41796875 -633.9140625 3346.97851562 -574.889648438 3479.953125 -495.10546875 c 0
 3572.24804688 -439.728515625 3657.92675781 -374.252929688 3734.234375 -298.4375 c 0
 3829.62304688 -203.663085938 3909.85058594 -92.85546875 3969.87304688 30.7158203125 c 0
 4056.44238281 208.94140625 4100 411.044921875 4100 629 c 0
 4100 799.416992188 4063.42675781 958.763671875 3982.85449219 1095.08691406 c 0
 3927.16210938 1189.3125 3852.43652344 1268.16894531 3769.53710938 1328.77734375 c 0
 3703.19726562 1377.27832031 3632.18066406 1414.46972656 3559.54101562 1443.49902344 c 0
 3346.70410156 1528.55371094 3090.27832031 1554.8203125 2805.90625 1554.8203125 c 0
 2599.60449219 1554.8203125 2387.69628906 1541.32519531 2181.03710938 1528.40917969 c 0
 1974.578125 1515.50585938 1773.3671875 1503.1796875 1594.09375 1503.1796875 c 0
 1467.02832031 1503.1796875 1351.09375 1509.51171875 1254.08203125 1523.984375 c 0
 1176.44726562 1535.56640625 1111.50878906 1552.42578125 1062.76757812 1571.90429688 c 0
 1028.8671875 1585.45214844 1003.08300781 1599.96875 984.046875 1613.88574219 c 0
 960.2265625 1631.30078125 946.083984375 1647.203125 934.052734375 1667.55957031 c 0
 917.103515625 1696.23535156 900 1742.9921875 900 1829 c 0
 900 1966.60058594 926.67578125 2076.15722656 970.166992188 2165.6953125 c 0
 1000.46582031 2228.07128906 1039.41113281 2282.04199219 1088.56347656 2330.87695312 c 0
 1127.88769531 2369.94921875 1174.07714844 2405.81347656 1228.1015625 2438.22851562 c 0
 1414.91992188 2550.31933594 1676.51464844 2609 1982.40039062 2609 c 0
 2194.44042969 2609 2431.67089844 2580.66503906 2682.43652344 2522.04492188 c 0
 2995.9453125 2448.75683594 3330.37988281 2328.37109375 3666.12695312 2160.49707031 c 0
 3706.43554688 2140.34277344 3751.90332031 2129 3800 2129 c 0
 3965.57421875 2129 4100 2263.42578125 4100 2429 c 0
 4100 2546.47851562 4032.328125 2648.27539062 3933.87304688 2697.50292969 c 0
 3558.50878906 2885.18457031 3181.83203125 3021.58886719 2819.34667969 3106.32617188 c 0
 2529.31640625 3174.125 2248.22558594 3209 1982.40039062 3209 c 0
 1760.86621094 3209 1550.546875 3184.82421875 1355.53613281 3133.19921875 c 0
 1199.58203125 3091.9140625 1053.02148438 3032.88964844 920.046875 2953.10546875 c 0
 827.751953125 2897.72851562 742.073242188 2832.25292969 665.765625 2756.4375 c 0
 570.376953125 2661.66308594 490.149414062 2550.85546875 430.126953125 2427.28417969 c 0
 343.557617188 2249.05859375 300 2046.95507812 300 1829 c 0
 300 1658.58300781 336.573242188 1499.23632812 417.145507812 1362.91308594 c 0
 472.837890625 1268.6875 547.563476562 1189.83105469 630.462890625 1129.22265625 c 0
 696.802734375 1080.72167969 767.819335938 1043.53027344 840.458984375 1014.50097656 c 0
 1053.29589844 929.446289062 1309.72167969 903.1796875 1594.09375 903.1796875 c 0
 1800.39550781 903.1796875 2012.30371094 916.674804688 2218.96289062 929.590820312 c 0
 2425.421875 942.494140625 2626.6328125 954.8203125 2805.90625 954.8203125 c 0
 2932.97167969 954.8203125 3048.90625 948.48828125 3145.91796875 934.015625 c 0
 3223.55273438 922.43359375 3288.49121094 905.57421875 3337.23242188 886.095703125 c 0
 3371.1328125 872.547851562 3396.91699219 858.03125 3415.953125 844.114257812 c 0
 3439.7734375 826.69921875 3453.91601562 810.796875 3465.94726562 790.440429688 c 0
 3482.89648438 761.764648438 3500 715.0078125 3500 629 c 0
 3500 491.399414062 3473.32421875 381.842773438 3429.83300781 292.3046875 c 0
 3399.53417969 229.928710938 3360.58886719 175.958007812 3311.43652344 127.123046875 c 0
 3272.11230469 88.05078125 3225.92285156 52.1865234375 3171.8984375 19.771484375 c 0
 2985.08007812 -92.3193359375 2723.48535156 -151 2417.59960938 -151 c 0
 2205.55957031 -151 1968.32910156 -122.665039062 1717.56347656 -64.044921875 c 0
 1404.0546875 9.2431640625 1069.62011719 129.62890625 733.873046875 297.502929688 c 0
 693.564453125 317.657226562 648.096679688 329 600 329 c 0
EndSplineSet
Validated: 524297
EndChar

StartChar: uniE510
Encoding: 58640 58640 15
Width: 4560
Flags: HW
LayerCount: 2
Fore
SplineSet
3180 -371 m 0
 3180 -536.57421875 3314.42578125 -671 3480 -671 c 0
 3597.47851562 -671 3699.27539062 -603.328125 3748.50292969 -504.873046875 c 0
 3936.18457031 -129.508789062 4072.58886719 247.16796875 4157.32617188 609.653320312 c 0
 4225.125 899.68359375 4260 1180.77441406 4260 1446.59960938 c 0
 4260 1668.13378906 4235.82421875 1878.453125 4184.19921875 2073.46386719 c 0
 4142.9140625 2229.41796875 4083.88964844 2375.97851562 4004.10546875 2508.953125 c 0
 3948.72851562 2601.24804688 3883.25292969 2686.92675781 3807.4375 2763.234375 c 0
 3712.66308594 2858.62304688 3601.85546875 2938.85058594 3478.28417969 2998.87304688 c 0
 3300.05859375 3085.44238281 3097.95507812 3129 2880 3129 c 0
 2709.58300781 3129 2550.23632812 3092.42675781 2413.91308594 3011.85449219 c 0
 2319.6875 2956.16210938 2240.83105469 2881.43652344 2180.22265625 2798.53710938 c 0
 2131.72167969 2732.19726562 2094.53027344 2661.18066406 2065.50097656 2588.54101562 c 0
 1980.44628906 2375.70410156 1954.1796875 2119.27832031 1954.1796875 1834.90625 c 0
 1954.1796875 1628.60449219 1967.67480469 1416.69628906 1980.59082031 1210.03710938 c 0
 1993.49414062 1003.578125 2005.8203125 802.3671875 2005.8203125 623.09375 c 0
 2005.8203125 496.028320312 1999.48828125 380.09375 1985.015625 283.08203125 c 0
 1973.43359375 205.447265625 1956.57421875 140.508789062 1937.09570312 91.767578125 c 0
 1923.54785156 57.8671875 1909.03125 32.0830078125 1895.11425781 13.046875 c 0
 1877.69921875 -10.7734375 1861.796875 -24.916015625 1841.44042969 -36.947265625 c 0
 1812.76464844 -53.896484375 1766.0078125 -71 1680 -71 c 0
 1542.39941406 -71 1432.84277344 -44.32421875 1343.3046875 -0.8330078125 c 0
 1280.92871094 29.4658203125 1226.95800781 68.4111328125 1178.12304688 117.563476562 c 0
 1139.05078125 156.887695312 1103.18652344 203.077148438 1070.77148438 257.1015625 c 0
 958.680664062 443.919921875 900 705.514648438 900 1011.40039062 c 0
 900 1223.44042969 928.334960938 1460.67089844 986.955078125 1711.43652344 c 0
 1060.24316406 2024.9453125 1180.62890625 2359.37988281 1348.50292969 2695.12695312 c 0
 1368.65722656 2735.43554688 1380 2780.90332031 1380 2829 c 0
 1380 2994.57421875 1245.57421875 3129 1080 3129 c 0
 962.521484375 3129 860.724609375 3061.328125 811.497070312 2962.87304688 c 0
 623.815429688 2587.50878906 487.411132812 2210.83203125 402.673828125 1848.34667969 c 0
 334.875 1558.31640625 300 1277.22558594 300 1011.40039062 c 0
 300 789.866210938 324.17578125 579.546875 375.80078125 384.536132812 c 0
 417.0859375 228.58203125 476.110351562 82.021484375 555.89453125 -50.953125 c 0
 611.271484375 -143.248046875 676.747070312 -228.926757812 752.5625 -305.234375 c 0
 847.336914062 -400.623046875 958.14453125 -480.850585938 1081.71582031 -540.873046875 c 0
 1259.94140625 -627.442382812 1462.04492188 -671 1680 -671 c 0
 1850.41699219 -671 2009.76367188 -634.426757812 2146.08691406 -553.854492188 c 0
 2240.3125 -498.162109375 2319.16894531 -423.436523438 2379.77734375 -340.537109375 c 0
 2428.27832031 -274.197265625 2465.46972656 -203.180664062 2494.49902344 -130.541015625 c 0
 2579.55371094 82.2958984375 2605.8203125 338.721679688 2605.8203125 623.09375 c 0
 2605.8203125 829.395507812 2592.32519531 1041.30371094 2579.40917969 1247.96289062 c 0
 2566.50585938 1454.421875 2554.1796875 1655.6328125 2554.1796875 1834.90625 c 0
 2554.1796875 1961.97167969 2560.51171875 2077.90625 2574.984375 2174.91796875 c 0
 2586.56640625 2252.55273438 2603.42578125 2317.49121094 2622.90429688 2366.23242188 c 0
 2636.45214844 2400.1328125 2650.96875 2425.91699219 2664.88574219 2444.953125 c 0
 2682.30078125 2468.7734375 2698.203125 2482.91601562 2718.55957031 2494.94726562 c 0
 2747.23535156 2511.89648438 2793.9921875 2529 2880 2529 c 0
 3017.60058594 2529 3127.15722656 2502.32421875 3216.6953125 2458.83300781 c 0
 3279.07128906 2428.53417969 3333.04199219 2389.58886719 3381.87695312 2340.43652344 c 0
 3420.94921875 2301.11230469 3456.81347656 2254.92285156 3489.22851562 2200.8984375 c 0
 3601.31933594 2014.08007812 3660 1752.48535156 3660 1446.59960938 c 0
 3660 1234.55957031 3631.66503906 997.329101562 3573.04492188 746.563476562 c 0
 3499.75683594 433.0546875 3379.37109375 98.6201171875 3211.49707031 -237.126953125 c 0
 3191.34277344 -277.435546875 3180 -322.903320312 3180 -371 c 0
EndSplineSet
Validated: 524297
EndChar

StartChar: uniE511
Encoding: 58641 58641 16
Width: 4400
Flags: HW
LayerCount: 2
Fore
SplineSet
2500 5325 m 0
 2500 5490.57421875 2365.57421875 5625 2200 5625 c 0
 2086.90429688 5625 1988.34082031 5562.28222656 1937.22265625 5469.75976562 c 2
 337.22265625 2573.75976562 l 2
 313.50390625 2530.82714844 300 2481.47851562 300 2429 c 0
 300 2263.42578125 434.42578125 2129 600 2129 c 0
 648.096679688 2129 693.564453125 2140.34277344 733.873046875 2160.49707031 c 0
 1069.62011719 2328.37109375 1404.0546875 2448.75683594 1717.56347656 2522.04492188 c 0
 1968.32910156 2580.66503906 2205.55957031 2609 2417.59960938 2609 c 0
 2723.60253906 2609 2984.96972656 2550.38574219 3171.8984375 2438.22851562 c 0
 3225.92285156 2405.81347656 3272.11230469 2369.94921875 3311.43652344 2330.87695312 c 0
 3360.58886719 2282.04199219 3399.53417969 2228.07128906 3429.83300781 2165.6953125 c 0
 3473.32421875 2076.15722656 3500 1966.60058594 3500 1829 c 0
 3500 1742.9921875 3482.89648438 1696.23535156 3465.94726562 1667.55957031 c 0
 3453.91601562 1647.203125 3439.7734375 1631.30078125 3415.953125 1613.88574219 c 0
 3396.91699219 1599.96875 3371.1328125 1585.45214844 3337.23242188 1571.90429688 c 0
 3288.49121094 1552.42578125 3223.55273438 1535.56640625 3145.91796875 1523.984375 c 0
 3048.90625 1509.51171875 2932.97167969 1503.1796875 2805.90625 1503.1796875 c 0
 2626.6328125 1503.1796875 2425.421875 1515.50585938 2218.96289062 1528.40917969 c 0
 2012.30371094 1541.32519531 1800.39550781 1554.8203125 1594.09375 1554.8203125 c 0
 1309.97753906 1554.8203125 1053.02734375 1528.44628906 840.458984375 1443.49902344 c 0
 767.819335938 1414.46972656 696.802734375 1377.27832031 630.462890625 1328.77734375 c 0
 547.563476562 1268.16894531 472.837890625 1189.3125 417.145507812 1095.08691406 c 0
 336.573242188 958.763671875 300 799.416992188 300 629 c 0
 300 411.044921875 343.557617188 208.94140625 430.126953125 30.7158203125 c 0
 490.149414062 -92.85546875 570.376953125 -203.663085938 665.765625 -298.4375 c 0
 742.073242188 -374.252929688 827.751953125 -439.728515625 920.046875 -495.10546875 c 0
 1053.02148438 -574.889648438 1199.58203125 -633.9140625 1355.53613281 -675.19921875 c 0
 1550.546875 -726.82421875 1760.86621094 -751 1982.40039062 -751 c 0
 2248.22558594 -751 2529.31640625 -716.125 2819.34667969 -648.326171875 c 0
 3181.83203125 -563.588867188 3558.50878906 -427.184570312 3933.87304688 -239.502929688 c 0
 4032.328125 -190.275390625 4100 -88.478515625 4100 29 c 0
 4100 194.57421875 3965.57421875 329 3800 329 c 0
 3751.90332031 329 3706.43554688 317.657226562 3666.12695312 297.502929688 c 0
 3330.37988281 129.62890625 2995.9453125 9.2431640625 2682.43652344 -64.044921875 c 0
 2431.67089844 -122.665039062 2194.44042969 -151 1982.40039062 -151 c 0
 1676.39746094 -151 1415.03027344 -92.3857421875 1228.1015625 19.771484375 c 0
 1174.07714844 52.1865234375 1127.88769531 88.05078125 1088.56347656 127.123046875 c 0
 1039.41113281 175.958007812 1000.46582031 229.928710938 970.166992188 292.3046875 c 0
 926.67578125 381.842773438 900 491.399414062 900 629 c 0
 900 715.0078125 917.103515625 761.764648438 934.052734375 790.440429688 c 0
 946.083984375 810.796875 960.2265625 826.69921875 984.046875 844.114257812 c 0
 1003.08300781 858.03125 1028.8671875 872.547851562 1062.76757812 886.095703125 c 0
 1111.50878906 905.57421875 1176.44726562 922.43359375 1254.08203125 934.015625 c 0
 1351.09375 948.48828125 1467.02832031 954.8203125 1594.09375 954.8203125 c 0
 1773.3671875 954.8203125 1974.578125 942.494140625 2181.03710938 929.590820312 c 0
 2387.69628906 916.674804688 2599.60449219 903.1796875 2805.90625 903.1796875 c 0
 3090.02246094 903.1796875 3346.97265625 929.553710938 3559.54101562 1014.50097656 c 0
 3632.18066406 1043.53027344 3703.19726562 1080.72167969 3769.53710938 1129.22265625 c 0
 3852.43652344 1189.83105469 3927.16210938 1268.6875 3982.85449219 1362.91308594 c 0
 4063.42675781 1499.23632812 4100 1658.58300781 4100 1829 c 0
 4100 2046.95507812 4056.44238281 2249.05859375 3969.87304688 2427.28417969 c 0
 3909.85058594 2550.85546875 3829.62304688 2661.66308594 3734.234375 2756.4375 c 0
 3657.92675781 2832.25292969 3572.24804688 2897.72851562 3479.953125 2953.10546875 c 0
 3346.97851562 3032.88964844 3200.41796875 3091.9140625 3044.46386719 3133.19921875 c 0
 2849.453125 3184.82421875 2639.13378906 3209 2417.59960938 3209 c 0
 2151.77441406 3209 1870.68359375 3174.125 1580.65332031 3106.32617188 c 0
 1478.27539062 3082.39355469 1374.76660156 3054.33984375 1270.47460938 3022.17382812 c 1
 2462.77734375 5180.24023438 l 2
 2486.49609375 5223.17285156 2500 5272.52148438 2500 5325 c 0
EndSplineSet
Validated: 524297
EndChar

StartChar: uniE512
Encoding: 58642 58642 17
Width: 4400
Flags: HW
LayerCount: 2
Fore
SplineSet
2200 5625 m 0
 2034.42578125 5625 1900 5490.57421875 1900 5325 c 0
 1900 5272.52148438 1913.50390625 5223.17285156 1937.22265625 5180.24023438 c 2
 3129.52539062 3022.17382812 l 1
 3025.23339844 3054.33984375 2921.72460938 3082.39355469 2819.34667969 3106.32617188 c 0
 2529.31640625 3174.125 2248.22558594 3209 1982.40039062 3209 c 0
 1760.86621094 3209 1550.546875 3184.82421875 1355.53613281 3133.19921875 c 0
 1199.58203125 3091.9140625 1053.02148438 3032.88964844 920.046875 2953.10546875 c 0
 827.751953125 2897.72851562 742.073242188 2832.25292969 665.765625 2756.4375 c 0
 570.376953125 2661.66308594 490.149414062 2550.85546875 430.126953125 2427.28417969 c 0
 343.557617188 2249.05859375 300 2046.95507812 300 1829 c 0
 300 1658.58300781 336.573242188 1499.23632812 417.145507812 1362.91308594 c 0
 472.837890625 1268.6875 547.563476562 1189.83105469 630.462890625 1129.22265625 c 0
 696.802734375 1080.72167969 767.819335938 1043.53027344 840.458984375 1014.50097656 c 0
 1053.29589844 929.446289062 1309.72167969 903.1796875 1594.09375 903.1796875 c 0
 1800.39550781 903.1796875 2012.30371094 916.674804688 2218.96289062 929.590820312 c 0
 2425.421875 942.494140625 2626.6328125 954.8203125 2805.90625 954.8203125 c 0
 2932.97167969 954.8203125 3048.90625 948.48828125 3145.91796875 934.015625 c 0
 3223.55273438 922.43359375 3288.49121094 905.57421875 3337.23242188 886.095703125 c 0
 3371.1328125 872.547851562 3396.91699219 858.03125 3415.953125 844.114257812 c 0
 3439.7734375 826.69921875 3453.91601562 810.796875 3465.94726562 790.440429688 c 0
 3482.89648438 761.764648438 3500 715.0078125 3500 629 c 0
 3500 491.399414062 3473.32421875 381.842773438 3429.83300781 292.3046875 c 0
 3399.53417969 229.928710938 3360.58886719 175.958007812 3311.43652344 127.123046875 c 0
 3272.11230469 88.05078125 3225.92285156 52.1865234375 3171.8984375 19.771484375 c 0
 2985.08007812 -92.3193359375 2723.48535156 -151 2417.59960938 -151 c 0
 2205.55957031 -151 1968.32910156 -122.665039062 1717.56347656 -64.044921875 c 0
 1404.0546875 9.2431640625 1069.62011719 129.62890625 733.873046875 297.502929688 c 0
 693.564453125 317.657226562 648.096679688 329 600 329 c 0
 434.42578125 329 300 194.57421875 300 29 c 0
 300 -88.478515625 367.671875 -190.275390625 466.126953125 -239.502929688 c 0
 841.491210938 -427.184570312 1218.16796875 -563.588867188 1580.65332031 -648.326171875 c 0
 1870.68359375 -716.125 2151.77441406 -751 2417.59960938 -751 c 0
 2639.13378906 -751 2849.453125 -726.82421875 3044.46386719 -675.19921875 c 0
 3200.41796875 -633.9140625 3346.97851562 -574.889648438 3479.953125 -495.10546875 c 0
 3572.24804688 -439.728515625 3657.92675781 -374.252929688 3734.234375 -298.4375 c 0
 3829.62304688 -203.663085938 3909.85058594 -92.85546875 3969.87304688 30.7158203125 c 0
 4056.44238281 208.94140625 4100 411.044921875 4100 629 c 0
 4100 799.416992188 4063.42675781 958.763671875 3982.85449219 1095.08691406 c 0
 3927.16210938 1189.3125 3852.43652344 1268.16894531 3769.53710938 1328.77734375 c 0
 3703.19726562 1377.27832031 3632.18066406 1414.46972656 3559.54101562 1443.49902344 c 0
 3346.70410156 1528.55371094 3090.27832031 1554.8203125 2805.90625 1554.8203125 c 0
 2599.60449219 1554.8203125 2387.69628906 1541.32519531 2181.03710938 1528.40917969 c 0
 1974.578125 1515.50585938 1773.3671875 1503.1796875 1594.09375 1503.1796875 c 0
 1467.02832031 1503.1796875 1351.09375 1509.51171875 1254.08203125 1523.984375 c 0
 1176.44726562 1535.56640625 1111.50878906 1552.42578125 1062.76757812 1571.90429688 c 0
 1028.8671875 1585.45214844 1003.08300781 1599.96875 984.046875 1613.88574219 c 0
 960.2265625 1631.30078125 946.083984375 1647.203125 934.052734375 1667.55957031 c 0
 917.103515625 1696.23535156 900 1742.9921875 900 1829 c 0
 900 1966.60058594 926.67578125 2076.15722656 970.166992188 2165.6953125 c 0
 1000.46582031 2228.07128906 1039.41113281 2282.04199219 1088.56347656 2330.87695312 c 0
 1127.88769531 2369.94921875 1174.07714844 2405.81347656 1228.1015625 2438.22851562 c 0
 1414.91992188 2550.31933594 1676.51464844 2609 1982.40039062 2609 c 0
 2194.44042969 2609 2431.67089844 2580.66503906 2682.43652344 2522.04492188 c 0
 2995.9453125 2448.75683594 3330.37988281 2328.37109375 3666.12695312 2160.49707031 c 0
 3706.43554688 2140.34277344 3751.90332031 2129 3800 2129 c 0
 3965.57421875 2129 4100 2263.42578125 4100 2429 c 0
 4100 2481.47851562 4086.49609375 2530.82714844 4062.77734375 2573.75976562 c 2
 2462.77734375 5469.75976562 l 2
 2411.65917969 5562.28222656 2313.09570312 5625 2200 5625 c 0
EndSplineSet
Validated: 524297
EndChar

StartChar: uniE513
Encoding: 58643 58643 18
Width: 4400
Flags: HW
LayerCount: 2
Fore
SplineSet
2200 -3167 m 0
 2365.57421875 -3167 2500 -3032.57421875 2500 -2867 c 0
 2500 -2814.52148438 2486.49609375 -2765.17285156 2462.77734375 -2722.24023438 c 2
 1270.47460938 -564.173828125 l 1
 1374.76660156 -596.33984375 1478.27539062 -624.393554688 1580.65332031 -648.326171875 c 0
 1870.68359375 -716.125 2151.77441406 -751 2417.59960938 -751 c 0
 2639.13378906 -751 2849.453125 -726.82421875 3044.46386719 -675.19921875 c 0
 3200.41796875 -633.9140625 3346.97851562 -574.889648438 3479.953125 -495.10546875 c 0
 3572.24804688 -439.728515625 3657.92675781 -374.252929688 3734.234375 -298.4375 c 0
 3829.62304688 -203.663085938 3909.85058594 -92.85546875 3969.87304688 30.7158203125 c 0
 4056.44238281 208.94140625 4100 411.044921875 4100 629 c 0
 4100 799.416992188 4063.42675781 958.763671875 3982.85449219 1095.08691406 c 0
 3927.16210938 1189.3125 3852.43652344 1268.16894531 3769.53710938 1328.77734375 c 0
 3703.19726562 1377.27832031 3632.18066406 1414.46972656 3559.54101562 1443.49902344 c 0
 3346.70410156 1528.55371094 3090.27832031 1554.8203125 2805.90625 1554.8203125 c 0
 2599.60449219 1554.8203125 2387.69628906 1541.32519531 2181.03710938 1528.40917969 c 0
 1974.578125 1515.50585938 1773.3671875 1503.1796875 1594.09375 1503.1796875 c 0
 1467.02832031 1503.1796875 1351.09375 1509.51171875 1254.08203125 1523.984375 c 0
 1176.44726562 1535.56640625 1111.50878906 1552.42578125 1062.76757812 1571.90429688 c 0
 1028.8671875 1585.45214844 1003.08300781 1599.96875 984.046875 1613.88574219 c 0
 960.2265625 1631.30078125 946.083984375 1647.203125 934.052734375 1667.55957031 c 0
 917.103515625 1696.23535156 900 1742.9921875 900 1829 c 0
 900 1966.60058594 926.67578125 2076.15722656 970.166992188 2165.6953125 c 0
 1000.46582031 2228.07128906 1039.41113281 2282.04199219 1088.56347656 2330.87695312 c 0
 1127.88769531 2369.94921875 1174.07714844 2405.81347656 1228.1015625 2438.22851562 c 0
 1414.91992188 2550.31933594 1676.51464844 2609 1982.40039062 2609 c 0
 2194.44042969 2609 2431.67089844 2580.66503906 2682.43652344 2522.04492188 c 0
 2995.9453125 2448.75683594 3330.37988281 2328.37109375 3666.12695312 2160.49707031 c 0
 3706.43554688 2140.34277344 3751.90332031 2129 3800 2129 c 0
 3965.57421875 2129 4100 2263.42578125 4100 2429 c 0
 4100 2546.47851562 4032.328125 2648.27539062 3933.87304688 2697.50292969 c 0
 3558.50878906 2885.18457031 3181.83203125 3021.58886719 2819.34667969 3106.32617188 c 0
 2529.31640625 3174.125 2248.22558594 3209 1982.40039062 3209 c 0
 1760.86621094 3209 1550.546875 3184.82421875 1355.53613281 3133.19921875 c 0
 1199.58203125 3091.9140625 1053.02148438 3032.88964844 920.046875 2953.10546875 c 0
 827.751953125 2897.72851562 742.073242188 2832.25292969 665.765625 2756.4375 c 0
 570.376953125 2661.66308594 490.149414062 2550.85546875 430.126953125 2427.28417969 c 0
 343.557617188 2249.05859375 300 2046.95507812 300 1829 c 0
 300 1658.58300781 336.573242188 1499.23632812 417.145507812 1362.91308594 c 0
 472.837890625 1268.6875 547.563476562 1189.83105469 630.462890625 1129.22265625 c 0
 696.802734375 1080.72167969 767.819335938 1043.53027344 840.458984375 1014.50097656 c 0
 1053.29589844 929.446289062 1309.72167969 903.1796875 1594.09375 903.1796875 c 0
 1800.39550781 903.1796875 2012.30371094 916.674804688 2218.96289062 929.590820312 c 0
 2425.421875 942.494140625 2626.6328125 954.8203125 2805.90625 954.8203125 c 0
 2932.97167969 954.8203125 3048.90625 948.48828125 3145.91796875 934.015625 c 0
 3223.55273438 922.43359375 3288.49121094 905.57421875 3337.23242188 886.095703125 c 0
 3371.1328125 872.547851562 3396.91699219 858.03125 3415.953125 844.114257812 c 0
 3439.7734375 826.69921875 3453.91601562 810.796875 3465.94726562 790.440429688 c 0
 3482.89648438 761.764648438 3500 715.0078125 3500 629 c 0
 3500 491.399414062 3473.32421875 381.842773438 3429.83300781 292.3046875 c 0
 3399.53417969 229.928710938 3360.58886719 175.958007812 3311.43652344 127.123046875 c 0
 3272.11230469 88.05078125 3225.92285156 52.1865234375 3171.8984375 19.771484375 c 0
 2985.08007812 -92.3193359375 2723.48535156 -151 2417.59960938 -151 c 0
 2205.55957031 -151 1968.32910156 -122.665039062 1717.56347656 -64.044921875 c 0
 1404.0546875 9.2431640625 1069.62011719 129.62890625 733.873046875 297.502929688 c 0
 693.564453125 317.657226562 648.096679688 329 600 329 c 0
 434.42578125 329 300 194.57421875 300 29 c 0
 300 -23.478515625 313.50390625 -72.8271484375 337.22265625 -115.759765625 c 2
 1937.22265625 -3011.75976562 l 2
 1988.34082031 -3104.28222656 2086.90429688 -3167 2200 -3167 c 0
EndSplineSet
Validated: 524297
EndChar

StartChar: uniE514
Encoding: 58644 58644 19
Width: 4400
Flags: HW
LayerCount: 2
Fore
SplineSet
1900 -2867 m 0
 1900 -3032.57421875 2034.42578125 -3167 2200 -3167 c 0
 2313.09570312 -3167 2411.65917969 -3104.28222656 2462.77734375 -3011.75976562 c 2
 4062.77734375 -115.759765625 l 2
 4086.49609375 -72.8271484375 4100 -23.478515625 4100 29 c 0
 4100 194.57421875 3965.57421875 329 3800 329 c 0
 3751.90332031 329 3706.43554688 317.657226562 3666.12695312 297.502929688 c 0
 3330.37988281 129.62890625 2995.9453125 9.2431640625 2682.43652344 -64.044921875 c 0
 2431.67089844 -122.665039062 2194.44042969 -151 1982.40039062 -151 c 0
 1676.39746094 -151 1415.03027344 -92.3857421875 1228.1015625 19.771484375 c 0
 1174.07714844 52.1865234375 1127.88769531 88.05078125 1088.56347656 127.123046875 c 0
 1039.41113281 175.958007812 1000.46582031 229.928710938 970.166992188 292.3046875 c 0
 926.67578125 381.842773438 900 491.399414062 900 629 c 0
 900 715.0078125 917.103515625 761.764648438 934.052734375 790.440429688 c 0
 946.083984375 810.796875 960.2265625 826.69921875 984.046875 844.114257812 c 0
 1003.08300781 858.03125 1028.8671875 872.547851562 1062.76757812 886.095703125 c 0
 1111.50878906 905.57421875 1176.44726562 922.43359375 1254.08203125 934.015625 c 0
 1351.09375 948.48828125 1467.02832031 954.8203125 1594.09375 954.8203125 c 0
 1773.3671875 954.8203125 1974.578125 942.494140625 2181.03710938 929.590820312 c 0
 2387.69628906 916.674804688 2599.60449219 903.1796875 2805.90625 903.1796875 c 0
 3090.02246094 903.1796875 3346.97265625 929.553710938 3559.54101562 1014.50097656 c 0
 3632.18066406 1043.53027344 3703.19726562 1080.72167969 3769.53710938 1129.22265625 c 0
 3852.43652344 1189.83105469 3927.16210938 1268.6875 3982.85449219 1362.91308594 c 0
 4063.42675781 1499.23632812 4100 1658.58300781 4100 1829 c 0
 4100 2046.95507812 4056.44238281 2249.05859375 3969.87304688 2427.28417969 c 0
 3909.85058594 2550.85546875 3829.62304688 2661.66308594 3734.234375 2756.4375 c 0
 3657.92675781 2832.25292969 3572.24804688 2897.72851562 3479.953125 2953.10546875 c 0
 3346.97851562 3032.88964844 3200.41796875 3091.9140625 3044.46386719 3133.19921875 c 0
 2849.453125 3184.82421875 2639.13378906 3209 2417.59960938 3209 c 0
 2151.77441406 3209 1870.68359375 3174.125 1580.65332031 3106.32617188 c 0
 1218.16796875 3021.58886719 841.491210938 2885.18457031 466.126953125 2697.50292969 c 0
 367.671875 2648.27539062 300 2546.47851562 300 2429 c 0
 300 2263.42578125 434.42578125 2129 600 2129 c 0
 648.096679688 2129 693.564453125 2140.34277344 733.873046875 2160.49707031 c 0
 1069.62011719 2328.37109375 1404.0546875 2448.75683594 1717.56347656 2522.04492188 c 0
 1968.32910156 2580.66503906 2205.55957031 2609 2417.59960938 2609 c 0
 2723.60253906 2609 2984.96972656 2550.38574219 3171.8984375 2438.22851562 c 0
 3225.92285156 2405.81347656 3272.11230469 2369.94921875 3311.43652344 2330.87695312 c 0
 3360.58886719 2282.04199219 3399.53417969 2228.07128906 3429.83300781 2165.6953125 c 0
 3473.32421875 2076.15722656 3500 1966.60058594 3500 1829 c 0
 3500 1742.9921875 3482.89648438 1696.23535156 3465.94726562 1667.55957031 c 0
 3453.91601562 1647.203125 3439.7734375 1631.30078125 3415.953125 1613.88574219 c 0
 3396.91699219 1599.96875 3371.1328125 1585.45214844 3337.23242188 1571.90429688 c 0
 3288.49121094 1552.42578125 3223.55273438 1535.56640625 3145.91796875 1523.984375 c 0
 3048.90625 1509.51171875 2932.97167969 1503.1796875 2805.90625 1503.1796875 c 0
 2626.6328125 1503.1796875 2425.421875 1515.50585938 2218.96289062 1528.40917969 c 0
 2012.30371094 1541.32519531 1800.39550781 1554.8203125 1594.09375 1554.8203125 c 0
 1309.97753906 1554.8203125 1053.02734375 1528.44628906 840.458984375 1443.49902344 c 0
 767.819335938 1414.46972656 696.802734375 1377.27832031 630.462890625 1328.77734375 c 0
 547.563476562 1268.16894531 472.837890625 1189.3125 417.145507812 1095.08691406 c 0
 336.573242188 958.763671875 300 799.416992188 300 629 c 0
 300 411.044921875 343.557617188 208.94140625 430.126953125 30.7158203125 c 0
 490.149414062 -92.85546875 570.376953125 -203.663085938 665.765625 -298.4375 c 0
 742.073242188 -374.252929688 827.751953125 -439.728515625 920.046875 -495.10546875 c 0
 1053.02148438 -574.889648438 1199.58203125 -633.9140625 1355.53613281 -675.19921875 c 0
 1550.546875 -726.82421875 1760.86621094 -751 1982.40039062 -751 c 0
 2248.22558594 -751 2529.31640625 -716.125 2819.34667969 -648.326171875 c 0
 2921.72460938 -624.393554688 3025.23339844 -596.33984375 3129.52539062 -564.173828125 c 1
 1937.22265625 -2722.24023438 l 2
 1913.50390625 -2765.17285156 1900 -2814.52148438 1900 -2867 c 0
EndSplineSet
Validated: 524297
EndChar

StartChar: uniE515
Encoding: 58645 58645 20
Width: 4560
Flags: HW
LayerCount: 2
Fore
SplineSet
2580 5325 m 0
 2580 5490.57421875 2445.57421875 5625 2280 5625 c 0
 2160.87402344 5625 2057.87207031 5555.41699219 2009.45703125 5454.71191406 c 2
 810.447265625 2960.77148438 l 1
 623.306640625 2586.10351562 487.252929688 2210.15625 402.673828125 1848.34667969 c 0
 334.875 1558.31640625 300 1277.22558594 300 1011.40039062 c 0
 300 789.866210938 324.17578125 579.546875 375.80078125 384.536132812 c 0
 417.0859375 228.58203125 476.110351562 82.021484375 555.89453125 -50.953125 c 0
 611.271484375 -143.248046875 676.747070312 -228.926757812 752.5625 -305.234375 c 0
 847.336914062 -400.623046875 958.14453125 -480.850585938 1081.71582031 -540.873046875 c 0
 1259.94140625 -627.442382812 1462.04492188 -671 1680 -671 c 0
 1850.41699219 -671 2009.76367188 -634.426757812 2146.08691406 -553.854492188 c 0
 2240.3125 -498.162109375 2319.16894531 -423.436523438 2379.77734375 -340.537109375 c 0
 2428.27832031 -274.197265625 2465.46972656 -203.180664062 2494.49902344 -130.541015625 c 0
 2579.55371094 82.2958984375 2605.8203125 338.721679688 2605.8203125 623.09375 c 0
 2605.8203125 829.395507812 2592.32519531 1041.30371094 2579.40917969 1247.96289062 c 0
 2566.50585938 1454.421875 2554.1796875 1655.6328125 2554.1796875 1834.90625 c 0
 2554.1796875 1961.97167969 2560.51171875 2077.90625 2574.984375 2174.91796875 c 0
 2586.56640625 2252.55273438 2603.42578125 2317.49121094 2622.90429688 2366.23242188 c 0
 2636.45214844 2400.1328125 2650.96875 2425.91699219 2664.88574219 2444.953125 c 0
 2682.30078125 2468.7734375 2698.203125 2482.91601562 2718.55957031 2494.94726562 c 0
 2747.23535156 2511.89648438 2793.9921875 2529 2880 2529 c 0
 3017.60058594 2529 3127.15722656 2502.32421875 3216.6953125 2458.83300781 c 0
 3279.07128906 2428.53417969 3333.04199219 2389.58886719 3381.87695312 2340.43652344 c 0
 3420.94921875 2301.11230469 3456.81347656 2254.92285156 3489.22851562 2200.8984375 c 0
 3601.31933594 2014.08007812 3660 1752.48535156 3660 1446.59960938 c 0
 3660 1234.55957031 3631.66503906 997.329101562 3573.04492188 746.563476562 c 0
 3499.75683594 433.0546875 3379.37109375 98.6201171875 3211.49707031 -237.126953125 c 0
 3191.34277344 -277.435546875 3180 -322.903320312 3180 -371 c 0
 3180 -536.57421875 3314.42578125 -671 3480 -671 c 0
 3597.47851562 -671 3699.27539062 -603.328125 3748.50292969 -504.873046875 c 0
 3936.18457031 -129.508789062 4072.58886719 247.16796875 4157.32617188 609.653320312 c 0
 4225.125 899.68359375 4260 1180.77441406 4260 1446.59960938 c 0
 4260 1668.13378906 4235.82421875 1878.453125 4184.19921875 2073.46386719 c 0
 4142.9140625 2229.41796875 4083.88964844 2375.97851562 4004.10546875 2508.953125 c 0
 3948.72851562 2601.24804688 3883.25292969 2686.92675781 3807.4375 2763.234375 c 0
 3712.66308594 2858.62304688 3601.85546875 2938.85058594 3478.28417969 2998.87304688 c 0
 3300.05859375 3085.44238281 3097.95507812 3129 2880 3129 c 0
 2709.58300781 3129 2550.23632812 3092.42675781 2413.91308594 3011.85449219 c 0
 2319.6875 2956.16210938 2240.83105469 2881.43652344 2180.22265625 2798.53710938 c 0
 2131.72167969 2732.19726562 2094.53027344 2661.18066406 2065.50097656 2588.54101562 c 0
 1980.44628906 2375.70410156 1954.1796875 2119.27832031 1954.1796875 1834.90625 c 0
 1954.1796875 1628.60449219 1967.67480469 1416.69628906 1980.59082031 1210.03710938 c 0
 1993.49414062 1003.578125 2005.8203125 802.3671875 2005.8203125 623.09375 c 0
 2005.8203125 496.028320312 1999.48828125 380.09375 1985.015625 283.08203125 c 0
 1973.43359375 205.447265625 1956.57421875 140.508789062 1937.09570312 91.767578125 c 0
 1923.54785156 57.8671875 1909.03125 32.0830078125 1895.11425781 13.046875 c 0
 1877.69921875 -10.7734375 1861.796875 -24.916015625 1841.44042969 -36.947265625 c 0
 1812.76464844 -53.896484375 1766.0078125 -71 1680 -71 c 0
 1542.39941406 -71 1432.84277344 -44.32421875 1343.3046875 -0.8330078125 c 0
 1280.92871094 29.4658203125 1226.95800781 68.4111328125 1178.12304688 117.563476562 c 0
 1139.05078125 156.887695312 1103.18652344 203.077148438 1070.77148438 257.1015625 c 0
 958.680664062 443.919921875 900 705.514648438 900 1011.40039062 c 0
 900 1223.44042969 928.334960938 1460.67089844 986.955078125 1711.43652344 c 0
 1060.24316406 2024.9453125 1180.62890625 2359.37988281 1348.50292969 2695.12695312 c 0
 1349.19335938 2696.5078125 1349.87304688 2697.89453125 1350.54296875 2699.28808594 c 2
 2550.54296875 5195.28808594 l 2
 2569.42089844 5234.55371094 2580 5278.55078125 2580 5325 c 0
EndSplineSet
Validated: 524297
EndChar

StartChar: uniE516
Encoding: 58646 58646 21
Width: 4560
Flags: HW
LayerCount: 2
Fore
SplineSet
2280 5625 m 0
 2114.42578125 5625 1980 5490.57421875 1980 5325 c 0
 1980 5278.55078125 1990.57910156 5234.55371094 2009.45703125 5195.28808594 c 2
 3209.45703125 2699.28808594 l 2
 3210.12695312 2697.89453125 3210.80664062 2696.5078125 3211.49707031 2695.12695312 c 0
 3379.37109375 2359.37988281 3499.75683594 2024.9453125 3573.04492188 1711.43652344 c 0
 3631.66503906 1460.67089844 3660 1223.44042969 3660 1011.40039062 c 0
 3660 705.397460938 3601.38574219 444.030273438 3489.22851562 257.1015625 c 0
 3456.81347656 203.077148438 3420.94921875 156.887695312 3381.87695312 117.563476562 c 0
 3333.04199219 68.4111328125 3279.07128906 29.4658203125 3216.6953125 -0.8330078125 c 0
 3127.15722656 -44.32421875 3017.60058594 -71 2880 -71 c 0
 2793.9921875 -71 2747.23535156 -53.896484375 2718.55957031 -36.947265625 c 0
 2698.203125 -24.916015625 2682.30078125 -10.7734375 2664.88574219 13.046875 c 0
 2650.96875 32.0830078125 2636.45214844 57.8671875 2622.90429688 91.767578125 c 0
 2603.42578125 140.508789062 2586.56640625 205.447265625 2574.984375 283.08203125 c 0
 2560.51171875 380.09375 2554.1796875 496.028320312 2554.1796875 623.09375 c 0
 2554.1796875 802.3671875 2566.50585938 1003.578125 2579.40917969 1210.03710938 c 0
 2592.32519531 1416.69628906 2605.8203125 1628.60449219 2605.8203125 1834.90625 c 0
 2605.8203125 2119.02246094 2579.44628906 2375.97265625 2494.49902344 2588.54101562 c 0
 2465.46972656 2661.18066406 2428.27832031 2732.19726562 2379.77734375 2798.53710938 c 0
 2319.16894531 2881.43652344 2240.3125 2956.16210938 2146.08691406 3011.85449219 c 0
 2009.76367188 3092.42675781 1850.41699219 3129 1680 3129 c 0
 1462.04492188 3129 1259.94140625 3085.44238281 1081.71582031 2998.87304688 c 0
 958.14453125 2938.85058594 847.336914062 2858.62304688 752.5625 2763.234375 c 0
 676.747070312 2686.92675781 611.271484375 2601.24804688 555.89453125 2508.953125 c 0
 476.110351562 2375.97851562 417.0859375 2229.41796875 375.80078125 2073.46386719 c 0
 324.17578125 1878.453125 300 1668.13378906 300 1446.59960938 c 0
 300 1180.77441406 334.875 899.68359375 402.673828125 609.653320312 c 0
 487.411132812 247.16796875 623.815429688 -129.508789062 811.497070312 -504.873046875 c 0
 860.724609375 -603.328125 962.521484375 -671 1080 -671 c 0
 1245.57421875 -671 1380 -536.57421875 1380 -371 c 0
 1380 -322.903320312 1368.65722656 -277.435546875 1348.50292969 -237.126953125 c 0
 1180.62890625 98.6201171875 1060.24316406 433.0546875 986.955078125 746.563476562 c 0
 928.334960938 997.329101562 900 1234.55957031 900 1446.59960938 c 0
 900 1752.60253906 958.614257812 2013.96972656 1070.77148438 2200.8984375 c 0
 1103.18652344 2254.92285156 1139.05078125 2301.11230469 1178.12304688 2340.43652344 c 0
 1226.95800781 2389.58886719 1280.92871094 2428.53417969 1343.3046875 2458.83300781 c 0
 1432.84277344 2502.32421875 1542.39941406 2529 1680 2529 c 0
 1766.0078125 2529 1812.76464844 2511.89648438 1841.44042969 2494.94726562 c 0
 1861.796875 2482.91601562 1877.69921875 2468.7734375 1895.11425781 2444.953125 c 0
 1909.03125 2425.91699219 1923.54785156 2400.1328125 1937.09570312 2366.23242188 c 0
 1956.57421875 2317.49121094 1973.43359375 2252.55273438 1985.015625 2174.91796875 c 0
 1999.48828125 2077.90625 2005.8203125 1961.97167969 2005.8203125 1834.90625 c 0
 2005.8203125 1655.6328125 1993.49414062 1454.421875 1980.59082031 1247.96289062 c 0
 1967.67480469 1041.30371094 1954.1796875 829.395507812 1954.1796875 623.09375 c 0
 1954.1796875 338.977539062 1980.55371094 82.02734375 2065.50097656 -130.541015625 c 0
 2094.53027344 -203.180664062 2131.72167969 -274.197265625 2180.22265625 -340.537109375 c 0
 2240.83105469 -423.436523438 2319.6875 -498.162109375 2413.91308594 -553.854492188 c 0
 2550.23632812 -634.426757812 2709.58300781 -671 2880 -671 c 0
 3097.95507812 -671 3300.05859375 -627.442382812 3478.28417969 -540.873046875 c 0
 3601.85546875 -480.850585938 3712.66308594 -400.623046875 3807.4375 -305.234375 c 0
 3883.25292969 -228.926757812 3948.72851562 -143.248046875 4004.10546875 -50.953125 c 0
 4083.88964844 82.021484375 4142.9140625 228.58203125 4184.19921875 384.536132812 c 0
 4235.82421875 579.546875 4260 789.866210938 4260 1011.40039062 c 0
 4260 1277.22558594 4225.125 1558.31640625 4157.32617188 1848.34667969 c 0
 4072.74707031 2210.15625 3931.01855469 2583.32324219 3749.55273438 2960.77148438 c 2
 2550.54296875 5454.71191406 l 2
 2502.12792969 5555.41699219 2399.12597656 5625 2280 5625 c 0
EndSplineSet
Validated: 524297
EndChar

StartChar: uniE517
Encoding: 58647 58647 22
Width: 4560
Flags: HW
LayerCount: 2
Fore
SplineSet
2280 -3167 m 0
 2445.57421875 -3167 2580 -3032.57421875 2580 -2867 c 0
 2580 -2820.55078125 2569.42089844 -2776.55371094 2550.54296875 -2737.28808594 c 2
 1350.54296875 -241.288085938 l 2
 1349.87304688 -239.89453125 1349.19335938 -238.5078125 1348.50292969 -237.126953125 c 0
 1180.62890625 98.6201171875 1060.24316406 433.0546875 986.955078125 746.563476562 c 0
 928.334960938 997.329101562 900 1234.55957031 900 1446.59960938 c 0
 900 1752.60253906 958.614257812 2013.96972656 1070.77148438 2200.8984375 c 0
 1103.18652344 2254.92285156 1139.05078125 2301.11230469 1178.12304688 2340.43652344 c 0
 1226.95800781 2389.58886719 1280.92871094 2428.53417969 1343.3046875 2458.83300781 c 0
 1432.84277344 2502.32421875 1542.39941406 2529 1680 2529 c 0
 1766.0078125 2529 1812.76464844 2511.89648438 1841.44042969 2494.94726562 c 0
 1861.796875 2482.91601562 1877.69921875 2468.7734375 1895.11425781 2444.953125 c 0
 1909.03125 2425.91699219 1923.54785156 2400.1328125 1937.09570312 2366.23242188 c 0
 1956.57421875 2317.49121094 1973.43359375 2252.55273438 1985.015625 2174.91796875 c 0
 1999.48828125 2077.90625 2005.8203125 1961.97167969 2005.8203125 1834.90625 c 0
 2005.8203125 1655.6328125 1993.49414062 1454.421875 1980.59082031 1247.96289062 c 0
 1967.67480469 1041.30371094 1954.1796875 829.395507812 1954.1796875 623.09375 c 0
 1954.1796875 338.977539062 1980.55371094 82.02734375 2065.50097656 -130.541015625 c 0
 2094.53027344 -203.180664062 2131.72167969 -274.197265625 2180.22265625 -340.537109375 c 0
 2240.83105469 -423.436523438 2319.6875 -498.162109375 2413.91308594 -553.854492188 c 0
 2550.23632812 -634.426757812 2709.58300781 -671 2880 -671 c 0
 3097.95507812 -671 3300.05859375 -627.442382812 3478.28417969 -540.873046875 c 0
 3601.85546875 -480.850585938 3712.66308594 -400.623046875 3807.4375 -305.234375 c 0
 3883.25292969 -228.926757812 3948.72851562 -143.248046875 4004.10546875 -50.953125 c 0
 4083.88964844 82.021484375 4142.9140625 228.58203125 4184.19921875 384.536132812 c 0
 4235.82421875 579.546875 4260 789.866210938 4260 1011.40039062 c 0
 4260 1277.22558594 4225.125 1558.31640625 4157.32617188 1848.34667969 c 0
 4072.58886719 2210.83203125 3936.18457031 2587.50878906 3748.50292969 2962.87304688 c 0
 3699.27539062 3061.328125 3597.47851562 3129 3480 3129 c 0
 3314.42578125 3129 3180 2994.57421875 3180 2829 c 0
 3180 2780.90332031 3191.34277344 2735.43554688 3211.49707031 2695.12695312 c 0
 3379.37109375 2359.37988281 3499.75683594 2024.9453125 3573.04492188 1711.43652344 c 0
 3631.66503906 1460.67089844 3660 1223.44042969 3660 1011.40039062 c 0
 3660 705.397460938 3601.38574219 444.030273438 3489.22851562 257.1015625 c 0
 3456.81347656 203.077148438 3420.94921875 156.887695312 3381.87695312 117.563476562 c 0
 3333.04199219 68.4111328125 3279.07128906 29.4658203125 3216.6953125 -0.8330078125 c 0
 3127.15722656 -44.32421875 3017.60058594 -71 2880 -71 c 0
 2793.9921875 -71 2747.23535156 -53.896484375 2718.55957031 -36.947265625 c 0
 2698.203125 -24.916015625 2682.30078125 -10.7734375 2664.88574219 13.046875 c 0
 2650.96875 32.0830078125 2636.45214844 57.8671875 2622.90429688 91.767578125 c 0
 2603.42578125 140.508789062 2586.56640625 205.447265625 2574.984375 283.08203125 c 0
 2560.51171875 380.09375 2554.1796875 496.028320312 2554.1796875 623.09375 c 0
 2554.1796875 802.3671875 2566.50585938 1003.578125 2579.40917969 1210.03710938 c 0
 2592.32519531 1416.69628906 2605.8203125 1628.60449219 2605.8203125 1834.90625 c 0
 2605.8203125 2119.02246094 2579.44628906 2375.97265625 2494.49902344 2588.54101562 c 0
 2465.46972656 2661.18066406 2428.27832031 2732.19726562 2379.77734375 2798.53710938 c 0
 2319.16894531 2881.43652344 2240.3125 2956.16210938 2146.08691406 3011.85449219 c 0
 2009.76367188 3092.42675781 1850.41699219 3129 1680 3129 c 0
 1462.04492188 3129 1259.94140625 3085.44238281 1081.71582031 2998.87304688 c 0
 958.14453125 2938.85058594 847.336914062 2858.62304688 752.5625 2763.234375 c 0
 676.747070312 2686.92675781 611.271484375 2601.24804688 555.89453125 2508.953125 c 0
 476.110351562 2375.97851562 417.0859375 2229.41796875 375.80078125 2073.46386719 c 0
 324.17578125 1878.453125 300 1668.13378906 300 1446.59960938 c 0
 300 1180.77441406 334.875 899.68359375 402.673828125 609.653320312 c 0
 487.252929688 247.84375 628.981445312 -125.323242188 810.447265625 -502.771484375 c 2
 2009.45703125 -2996.71191406 l 2
 2057.87207031 -3097.41699219 2160.87402344 -3167 2280 -3167 c 0
EndSplineSet
Validated: 524297
EndChar

StartChar: uniE518
Encoding: 58648 58648 23
Width: 4560
Flags: HW
LayerCount: 2
Fore
SplineSet
1980 -2867 m 0
 1980 -3032.57421875 2114.42578125 -3167 2280 -3167 c 0
 2399.12597656 -3167 2502.12792969 -3097.41699219 2550.54296875 -2996.71191406 c 2
 3749.55273438 -502.771484375 l 1
 3936.69335938 -128.103515625 4072.74707031 247.84375 4157.32617188 609.653320312 c 0
 4225.125 899.68359375 4260 1180.77441406 4260 1446.59960938 c 0
 4260 1668.13378906 4235.82421875 1878.453125 4184.19921875 2073.46386719 c 0
 4142.9140625 2229.41796875 4083.88964844 2375.97851562 4004.10546875 2508.953125 c 0
 3948.72851562 2601.24804688 3883.25292969 2686.92675781 3807.4375 2763.234375 c 0
 3712.66308594 2858.62304688 3601.85546875 2938.85058594 3478.28417969 2998.87304688 c 0
 3300.05859375 3085.44238281 3097.95507812 3129 2880 3129 c 0
 2709.58300781 3129 2550.23632812 3092.42675781 2413.91308594 3011.85449219 c 0
 2319.6875 2956.16210938 2240.83105469 2881.43652344 2180.22265625 2798.53710938 c 0
 2131.72167969 2732.19726562 2094.53027344 2661.18066406 2065.50097656 2588.54101562 c 0
 1980.44628906 2375.70410156 1954.1796875 2119.27832031 1954.1796875 1834.90625 c 0
 1954.1796875 1628.60449219 1967.67480469 1416.69628906 1980.59082031 1210.03710938 c 0
 1993.49414062 1003.578125 2005.8203125 802.3671875 2005.8203125 623.09375 c 0
 2005.8203125 496.028320312 1999.48828125 380.09375 1985.015625 283.08203125 c 0
 1973.43359375 205.447265625 1956.57421875 140.508789062 1937.09570312 91.767578125 c 0
 1923.54785156 57.8671875 1909.03125 32.0830078125 1895.11425781 13.046875 c 0
 1877.69921875 -10.7734375 1861.796875 -24.916015625 1841.44042969 -36.947265625 c 0
 1812.76464844 -53.896484375 1766.0078125 -71 1680 -71 c 0
 1542.39941406 -71 1432.84277344 -44.32421875 1343.3046875 -0.8330078125 c 0
 1280.92871094 29.4658203125 1226.95800781 68.4111328125 1178.12304688 117.563476562 c 0
 1139.05078125 156.887695312 1103.18652344 203.077148438 1070.77148438 257.1015625 c 0
 958.680664062 443.919921875 900 705.514648438 900 1011.40039062 c 0
 900 1223.44042969 928.334960938 1460.67089844 986.955078125 1711.43652344 c 0
 1060.24316406 2024.9453125 1180.62890625 2359.37988281 1348.50292969 2695.12695312 c 0
 1368.65722656 2735.43554688 1380 2780.90332031 1380 2829 c 0
 1380 2994.57421875 1245.57421875 3129 1080 3129 c 0
 962.521484375 3129 860.724609375 3061.328125 811.497070312 2962.87304688 c 0
 623.815429688 2587.50878906 487.411132812 2210.83203125 402.673828125 1848.34667969 c 0
 334.875 1558.31640625 300 1277.22558594 300 1011.40039062 c 0
 300 789.866210938 324.17578125 579.546875 375.80078125 384.536132812 c 0
 417.0859375 228.58203125 476.110351562 82.021484375 555.89453125 -50.953125 c 0
 611.271484375 -143.248046875 676.747070312 -228.926757812 752.5625 -305.234375 c 0
 847.336914062 -400.623046875 958.14453125 -480.850585938 1081.71582031 -540.873046875 c 0
 1259.94140625 -627.442382812 1462.04492188 -671 1680 -671 c 0
 1850.41699219 -671 2009.76367188 -634.426757812 2146.08691406 -553.854492188 c 0
 2240.3125 -498.162109375 2319.16894531 -423.436523438 2379.77734375 -340.537109375 c 0
 2428.27832031 -274.197265625 2465.46972656 -203.180664062 2494.49902344 -130.541015625 c 0
 2579.55371094 82.2958984375 2605.8203125 338.721679688 2605.8203125 623.09375 c 0
 2605.8203125 829.395507812 2592.32519531 1041.30371094 2579.40917969 1247.96289062 c 0
 2566.50585938 1454.421875 2554.1796875 1655.6328125 2554.1796875 1834.90625 c 0
 2554.1796875 1961.97167969 2560.51171875 2077.90625 2574.984375 2174.91796875 c 0
 2586.56640625 2252.55273438 2603.42578125 2317.49121094 2622.90429688 2366.23242188 c 0
 2636.45214844 2400.1328125 2650.96875 2425.91699219 2664.88574219 2444.953125 c 0
 2682.30078125 2468.7734375 2698.203125 2482.91601562 2718.55957031 2494.94726562 c 0
 2747.23535156 2511.89648438 2793.9921875 2529 2880 2529 c 0
 3017.60058594 2529 3127.15722656 2502.32421875 3216.6953125 2458.83300781 c 0
 3279.07128906 2428.53417969 3333.04199219 2389.58886719 3381.87695312 2340.43652344 c 0
 3420.94921875 2301.11230469 3456.81347656 2254.92285156 3489.22851562 2200.8984375 c 0
 3601.31933594 2014.08007812 3660 1752.48535156 3660 1446.59960938 c 0
 3660 1234.55957031 3631.66503906 997.329101562 3573.04492188 746.563476562 c 0
 3499.75683594 433.0546875 3379.37109375 98.6201171875 3211.49707031 -237.126953125 c 0
 3210.80664062 -238.5078125 3210.12695312 -239.89453125 3209.45703125 -241.288085938 c 2
 2009.45703125 -2737.28808594 l 2
 1990.57910156 -2776.55371094 1980 -2820.55078125 1980 -2867 c 0
EndSplineSet
Validated: 524297
EndChar

StartChar: uniE519
Encoding: 58649 58649 24
Width: 4224
Flags: HW
LayerCount: 2
Fore
SplineSet
2412 1829 m 2
 2412 1994.57421875 2277.57421875 2129 2112 2129 c 0
 1946.42578125 2129 1812 1994.57421875 1812 1829 c 2
 1812 -52.2421875 l 1
 1500.25585938 -10.5703125 1262.52441406 98.7841796875 1109.3359375 290.270507812 c 0
 974.62890625 458.653320312 900 699.366210938 900 1011.40039062 c 0
 900 1218.09765625 933.384765625 1453.45996094 998.553710938 1704.36132812 c 0
 1080.02246094 2018.01367188 1210.64550781 2355.41113281 1380.50292969 2695.12695312 c 0
 1400.65722656 2735.43554688 1412 2780.90332031 1412 2829 c 0
 1412 2994.57421875 1277.57421875 3129 1112 3129 c 0
 994.521484375 3129 892.724609375 3061.328125 843.497070312 2962.87304688 c 0
 657.799804688 2591.47753906 511.87890625 2217.76464844 417.763671875 1855.421875 c 0
 342.466796875 1565.52734375 300 1282.56933594 300 1011.40039062 c 0
 300 606.633789062 396.038085938 221.568359375 640.590820312 -84.1220703125 c 0
 734.387695312 -201.368164062 848.854492188 -304.477539062 981.147460938 -388.815429688 c 0
 1086.97949219 -456.283203125 1203.86523438 -511.741210938 1330.59765625 -554.911132812 c 0
 1558.82617188 -632.65625 1818.65722656 -671 2112 -671 c 0
 2405.34277344 -671 2665.17382812 -632.65625 2893.40234375 -554.911132812 c 0
 3020.13476562 -511.741210938 3137.02050781 -456.283203125 3242.85253906 -388.815429688 c 0
 3375.14550781 -304.477539062 3489.61230469 -201.368164062 3583.40917969 -84.1220703125 c 0
 3827.96191406 221.568359375 3924 606.633789062 3924 1011.40039062 c 0
 3924 1282.56933594 3881.53320312 1565.52734375 3806.23632812 1855.421875 c 0
 3712.12109375 2217.76464844 3566.20019531 2591.47753906 3380.50292969 2962.87304688 c 0
 3331.27539062 3061.328125 3229.47851562 3129 3112 3129 c 0
 2946.42578125 3129 2812 2994.57421875 2812 2829 c 0
 2812 2780.90332031 2823.34277344 2735.43554688 2843.49707031 2695.12695312 c 0
 3013.35449219 2355.41113281 3143.97753906 2018.01367188 3225.44628906 1704.36132812 c 0
 3290.61523438 1453.45996094 3324 1218.09765625 3324 1011.40039062 c 0
 3324 699.366210938 3249.37109375 458.653320312 3114.6640625 290.270507812 c 0
 2961.91503906 99.3330078125 2723.01074219 -10.6689453125 2412 -52.2421875 c 1
 2412 1829 l 2
EndSplineSet
Validated: 524297
EndChar

StartChar: uniE51A
Encoding: 58650 58650 25
Width: 4400
Flags: HW
LayerCount: 2
Fore
SplineSet
2800 929 m 2
 2965.57421875 929 3100 1063.42578125 3100 1229 c 0
 3100 1394.57421875 2965.57421875 1529 2800 1529 c 2
 918.7578125 1529 l 1
 960.4296875 1840.74414062 1069.78417969 2078.47558594 1261.27050781 2231.6640625 c 0
 1429.65332031 2366.37109375 1670.36621094 2441 1982.40039062 2441 c 0
 2189.09765625 2441 2424.45996094 2407.61523438 2675.36132812 2342.44628906 c 0
 2989.01367188 2260.97753906 3326.41113281 2130.35449219 3666.12695312 1960.49707031 c 0
 3706.43554688 1940.34277344 3751.90332031 1929 3800 1929 c 0
 3965.57421875 1929 4100 2063.42578125 4100 2229 c 0
 4100 2346.47851562 4032.328125 2448.27539062 3933.87304688 2497.50292969 c 0
 3562.47753906 2683.20019531 3188.76464844 2829.12109375 2826.421875 2923.23632812 c 0
 2536.52734375 2998.53320312 2253.56933594 3041 1982.40039062 3041 c 0
 1577.63378906 3041 1192.56835938 2944.96191406 886.877929688 2700.40917969 c 0
 769.631835938 2606.61230469 666.522460938 2492.14550781 582.184570312 2359.85253906 c 0
 514.716796875 2254.02050781 459.258789062 2137.13476562 416.088867188 2010.40234375 c 0
 338.34375 1782.17382812 300 1522.34277344 300 1229 c 0
 300 935.657226562 338.34375 675.826171875 416.088867188 447.59765625 c 0
 459.258789062 320.865234375 514.716796875 203.979492188 582.184570312 98.1474609375 c 0
 666.522460938 -34.1455078125 769.631835938 -148.612304688 886.877929688 -242.409179688 c 0
 1192.56835938 -486.961914062 1577.63378906 -583 1982.40039062 -583 c 0
 2253.56933594 -583 2536.52734375 -540.533203125 2826.421875 -465.236328125 c 0
 3188.76464844 -371.12109375 3562.47753906 -225.200195312 3933.87304688 -39.5029296875 c 0
 4032.328125 9.724609375 4100 111.521484375 4100 229 c 0
 4100 394.57421875 3965.57421875 529 3800 529 c 0
 3751.90332031 529 3706.43554688 517.657226562 3666.12695312 497.502929688 c 0
 3326.41113281 327.645507812 2989.01367188 197.022460938 2675.36132812 115.553710938 c 0
 2424.45996094 50.384765625 2189.09765625 17 1982.40039062 17 c 0
 1670.36621094 17 1429.65332031 91.62890625 1261.27050781 226.3359375 c 0
 1070.33300781 379.084960938 960.331054688 617.989257812 918.7578125 929 c 1
 2800 929 l 2
EndSplineSet
Validated: 524297
EndChar

StartChar: uniE51B
Encoding: 58651 58651 26
Width: 4224
Flags: HW
LayerCount: 2
Fore
SplineSet
1812 629 m 2
 1812 463.42578125 1946.42578125 329 2112 329 c 0
 2277.57421875 329 2412 463.42578125 2412 629 c 2
 2412 2510.2421875 l 1
 2723.74414062 2468.5703125 2961.47558594 2359.21582031 3114.6640625 2167.72949219 c 0
 3249.37109375 1999.34667969 3324 1758.63378906 3324 1446.59960938 c 0
 3324 1239.90234375 3290.61523438 1004.54003906 3225.44628906 753.638671875 c 0
 3143.97753906 439.986328125 3013.35449219 102.588867188 2843.49707031 -237.126953125 c 0
 2823.34277344 -277.435546875 2812 -322.903320312 2812 -371 c 0
 2812 -536.57421875 2946.42578125 -671 3112 -671 c 0
 3229.47851562 -671 3331.27539062 -603.328125 3380.50292969 -504.873046875 c 0
 3566.20019531 -133.477539062 3712.12109375 240.235351562 3806.23632812 602.578125 c 0
 3881.53320312 892.47265625 3924 1175.43066406 3924 1446.59960938 c 0
 3924 1851.36621094 3827.96191406 2236.43164062 3583.40917969 2542.12207031 c 0
 3489.61230469 2659.36816406 3375.14550781 2762.47753906 3242.85253906 2846.81542969 c 0
 3137.02050781 2914.28320312 3020.13476562 2969.74121094 2893.40234375 3012.91113281 c 0
 2665.17382812 3090.65625 2405.34277344 3129 2112 3129 c 0
 1818.65722656 3129 1558.82617188 3090.65625 1330.59765625 3012.91113281 c 0
 1203.86523438 2969.74121094 1086.97949219 2914.28320312 981.147460938 2846.81542969 c 0
 848.854492188 2762.47753906 734.387695312 2659.36816406 640.590820312 2542.12207031 c 0
 396.038085938 2236.43164062 300 1851.36621094 300 1446.59960938 c 0
 300 1175.43066406 342.466796875 892.47265625 417.763671875 602.578125 c 0
 511.87890625 240.235351562 657.799804688 -133.477539062 843.497070312 -504.873046875 c 0
 892.724609375 -603.328125 994.521484375 -671 1112 -671 c 0
 1277.57421875 -671 1412 -536.57421875 1412 -371 c 0
 1412 -322.903320312 1400.65722656 -277.435546875 1380.50292969 -237.126953125 c 0
 1210.64550781 102.588867188 1080.02246094 439.986328125 998.553710938 753.638671875 c 0
 933.384765625 1004.54003906 900 1239.90234375 900 1446.59960938 c 0
 900 1758.63378906 974.62890625 1999.34667969 1109.3359375 2167.72949219 c 0
 1262.08496094 2358.66699219 1500.98925781 2468.66894531 1812 2510.2421875 c 1
 1812 629 l 2
EndSplineSet
Validated: 524297
EndChar

StartChar: uniE51C
Encoding: 58652 58652 27
Width: 4400
Flags: HW
LayerCount: 2
Fore
SplineSet
1600 1529 m 2
 1434.42578125 1529 1300 1394.57421875 1300 1229 c 0
 1300 1063.42578125 1434.42578125 929 1600 929 c 2
 3481.2421875 929 l 1
 3439.5703125 617.255859375 3330.21582031 379.524414062 3138.72949219 226.3359375 c 0
 2970.34667969 91.62890625 2729.63378906 17 2417.59960938 17 c 0
 2210.90234375 17 1975.54003906 50.384765625 1724.63867188 115.553710938 c 0
 1410.98632812 197.022460938 1073.58886719 327.645507812 733.873046875 497.502929688 c 0
 693.564453125 517.657226562 648.096679688 529 600 529 c 0
 434.42578125 529 300 394.57421875 300 229 c 0
 300 111.521484375 367.671875 9.724609375 466.126953125 -39.5029296875 c 0
 837.522460938 -225.200195312 1211.23535156 -371.12109375 1573.578125 -465.236328125 c 0
 1863.47265625 -540.533203125 2146.43066406 -583 2417.59960938 -583 c 0
 2822.36621094 -583 3207.43164062 -486.961914062 3513.12207031 -242.409179688 c 0
 3630.36816406 -148.612304688 3733.47753906 -34.1455078125 3817.81542969 98.1474609375 c 0
 3885.28320312 203.979492188 3940.74121094 320.865234375 3983.91113281 447.59765625 c 0
 4061.65625 675.826171875 4100 935.657226562 4100 1229 c 0
 4100 1522.34277344 4061.65625 1782.17382812 3983.91113281 2010.40234375 c 0
 3940.74121094 2137.13476562 3885.28320312 2254.02050781 3817.81542969 2359.85253906 c 0
 3733.47753906 2492.14550781 3630.36816406 2606.61230469 3513.12207031 2700.40917969 c 0
 3207.43164062 2944.96191406 2822.36621094 3041 2417.59960938 3041 c 0
 2146.43066406 3041 1863.47265625 2998.53320312 1573.578125 2923.23632812 c 0
 1211.23535156 2829.12109375 837.522460938 2683.20019531 466.126953125 2497.50292969 c 0
 367.671875 2448.27539062 300 2346.47851562 300 2229 c 0
 300 2063.42578125 434.42578125 1929 600 1929 c 0
 648.096679688 1929 693.564453125 1940.34277344 733.873046875 1960.49707031 c 0
 1073.58886719 2130.35449219 1410.98632812 2260.97753906 1724.63867188 2342.44628906 c 0
 1975.54003906 2407.61523438 2210.90234375 2441 2417.59960938 2441 c 0
 2729.63378906 2441 2970.34667969 2366.37109375 3138.72949219 2231.6640625 c 0
 3329.66699219 2078.91503906 3439.66894531 1840.01074219 3481.2421875 1529 c 1
 1600 1529 l 2
EndSplineSet
Validated: 524297
EndChar

StartChar: uniE51D
Encoding: 58653 58653 28
Width: 4224
Flags: HW
LayerCount: 2
Fore
SplineSet
2412 1829 m 2
 2412 1994.57421875 2277.57421875 2129 2112 2129 c 0
 1946.42578125 2129 1812 1994.57421875 1812 1829 c 2
 1812 -52.2421875 l 1
 1500.25585938 -10.5703125 1262.52441406 98.7841796875 1109.3359375 290.270507812 c 0
 974.62890625 458.653320312 900 699.366210938 900 1011.40039062 c 0
 900 1218.09765625 933.384765625 1453.45996094 998.553710938 1704.36132812 c 0
 1080.02246094 2018.01367188 1210.64550781 2355.41113281 1380.50292969 2695.12695312 c 0
 1384.16699219 2702.45410156 1387.5390625 2709.95214844 1390.60449219 2717.60449219 c 2
 2390.60449219 5213.60449219 l 2
 2404.40625 5248.05175781 2412 5285.64648438 2412 5325 c 0
 2412 5490.57421875 2277.57421875 5625 2112 5625 c 0
 1985.77929688 5625 1877.66015625 5546.88085938 1833.39550781 5436.39550781 c 2
 837.928710938 2951.71191406 l 1
 654.881835938 2583.9921875 510.936523438 2214.13476562 417.763671875 1855.421875 c 0
 342.466796875 1565.52734375 300 1282.56933594 300 1011.40039062 c 0
 300 606.633789062 396.038085938 221.568359375 640.590820312 -84.1220703125 c 0
 734.387695312 -201.368164062 848.854492188 -304.477539062 981.147460938 -388.815429688 c 0
 1086.97949219 -456.283203125 1203.86523438 -511.741210938 1330.59765625 -554.911132812 c 0
 1558.82617188 -632.65625 1818.65722656 -671 2112 -671 c 0
 2405.34277344 -671 2665.17382812 -632.65625 2893.40234375 -554.911132812 c 0
 3020.13476562 -511.741210938 3137.02050781 -456.283203125 3242.85253906 -388.815429688 c 0
 3375.14550781 -304.477539062 3489.61230469 -201.368164062 3583.40917969 -84.1220703125 c 0
 3827.96191406 221.568359375 3924 606.633789062 3924 1011.40039062 c 0
 3924 1282.56933594 3881.53320312 1565.52734375 3806.23632812 1855.421875 c 0
 3712.12109375 2217.76464844 3566.20019531 2591.47753906 3380.50292969 2962.87304688 c 0
 3331.27539062 3061.328125 3229.47851562 3129 3112 3129 c 0
 2946.42578125 3129 2812 2994.57421875 2812 2829 c 0
 2812 2780.90332031 2823.34277344 2735.43554688 2843.49707031 2695.12695312 c 0
 3013.35449219 2355.41113281 3143.97753906 2018.01367188 3225.44628906 1704.36132812 c 0
 3290.61523438 1453.45996094 3324 1218.09765625 3324 1011.40039062 c 0
 3324 699.366210938 3249.37109375 458.653320312 3114.6640625 290.270507812 c 0
 2961.91503906 99.3330078125 2723.01074219 -10.6689453125 2412 -52.2421875 c 1
 2412 1829 l 2
EndSplineSet
Validated: 524297
EndChar

StartChar: uniE51E
Encoding: 58654 58654 29
Width: 4224
Flags: HW
LayerCount: 2
Fore
SplineSet
2412 1829 m 2
 2412 1994.57421875 2277.57421875 2129 2112 2129 c 0
 1946.42578125 2129 1812 1994.57421875 1812 1829 c 2
 1812 -52.2421875 l 1
 1500.25585938 -10.5703125 1262.52441406 98.7841796875 1109.3359375 290.270507812 c 0
 974.62890625 458.653320312 900 699.366210938 900 1011.40039062 c 0
 900 1218.09765625 933.384765625 1453.45996094 998.553710938 1704.36132812 c 0
 1080.02246094 2018.01367188 1210.64550781 2355.41113281 1380.50292969 2695.12695312 c 0
 1400.65722656 2735.43554688 1412 2780.90332031 1412 2829 c 0
 1412 2994.57421875 1277.57421875 3129 1112 3129 c 0
 994.521484375 3129 892.724609375 3061.328125 843.497070312 2962.87304688 c 0
 657.799804688 2591.47753906 511.87890625 2217.76464844 417.763671875 1855.421875 c 0
 342.466796875 1565.52734375 300 1282.56933594 300 1011.40039062 c 0
 300 606.633789062 396.038085938 221.568359375 640.590820312 -84.1220703125 c 0
 734.387695312 -201.368164062 848.854492188 -304.477539062 981.147460938 -388.815429688 c 0
 1086.97949219 -456.283203125 1203.86523438 -511.741210938 1330.59765625 -554.911132812 c 0
 1558.82617188 -632.65625 1818.65722656 -671 2112 -671 c 0
 2405.34277344 -671 2665.17382812 -632.65625 2893.40234375 -554.911132812 c 0
 3020.13476562 -511.741210938 3137.02050781 -456.283203125 3242.85253906 -388.815429688 c 0
 3375.14550781 -304.477539062 3489.61230469 -201.368164062 3583.40917969 -84.1220703125 c 0
 3827.96191406 221.568359375 3924 606.633789062 3924 1011.40039062 c 0
 3924 1282.56933594 3881.53320312 1565.52734375 3806.23632812 1855.421875 c 0
 3713.06347656 2214.13476562 3538.83398438 2570.41503906 3386.07128906 2951.71191406 c 2
 2390.60449219 5436.39550781 l 2
 2346.33984375 5546.88085938 2238.22070312 5625 2112 5625 c 0
 1946.42578125 5625 1812 5490.57421875 1812 5325 c 0
 1812 5285.64648438 1819.59375 5248.05175781 1833.39550781 5213.60449219 c 2
 2833.39550781 2717.60449219 l 2
 2836.4609375 2709.95214844 2839.83300781 2702.45410156 2843.49707031 2695.12695312 c 0
 3013.35449219 2355.41113281 3143.97753906 2018.01367188 3225.44628906 1704.36132812 c 0
 3290.61523438 1453.45996094 3324 1218.09765625 3324 1011.40039062 c 0
 3324 699.366210938 3249.37109375 458.653320312 3114.6640625 290.270507812 c 0
 2961.91503906 99.3330078125 2723.01074219 -10.6689453125 2412 -52.2421875 c 1
 2412 1829 l 2
EndSplineSet
Validated: 524297
EndChar

StartChar: uniE51F
Encoding: 58655 58655 30
Width: 4224
Flags: HW
LayerCount: 2
Fore
SplineSet
1812 629 m 2
 1812 463.42578125 1946.42578125 329 2112 329 c 0
 2277.57421875 329 2412 463.42578125 2412 629 c 2
 2412 2510.2421875 l 1
 2723.74414062 2468.5703125 2961.47558594 2359.21582031 3114.6640625 2167.72949219 c 0
 3249.37109375 1999.34667969 3324 1758.63378906 3324 1446.59960938 c 0
 3324 1239.90234375 3290.61523438 1004.54003906 3225.44628906 753.638671875 c 0
 3143.97753906 439.986328125 3013.35449219 102.588867188 2843.49707031 -237.126953125 c 0
 2823.34277344 -277.435546875 2812 -322.903320312 2812 -371 c 0
 2812 -536.57421875 2946.42578125 -671 3112 -671 c 0
 3229.47851562 -671 3331.27539062 -603.328125 3380.50292969 -504.873046875 c 0
 3566.20019531 -133.477539062 3712.12109375 240.235351562 3806.23632812 602.578125 c 0
 3881.53320312 892.47265625 3924 1175.43066406 3924 1446.59960938 c 0
 3924 1851.36621094 3827.96191406 2236.43164062 3583.40917969 2542.12207031 c 0
 3489.61230469 2659.36816406 3375.14550781 2762.47753906 3242.85253906 2846.81542969 c 0
 3137.02050781 2914.28320312 3020.13476562 2969.74121094 2893.40234375 3012.91113281 c 0
 2665.17382812 3090.65625 2405.34277344 3129 2112 3129 c 0
 1818.65722656 3129 1558.82617188 3090.65625 1330.59765625 3012.91113281 c 0
 1203.86523438 2969.74121094 1086.97949219 2914.28320312 981.147460938 2846.81542969 c 0
 848.854492188 2762.47753906 734.387695312 2659.36816406 640.590820312 2542.12207031 c 0
 396.038085938 2236.43164062 300 1851.36621094 300 1446.59960938 c 0
 300 1175.43066406 342.466796875 892.47265625 417.763671875 602.578125 c 0
 510.936523438 243.865234375 685.166015625 -112.415039062 837.928710938 -493.711914062 c 2
 1833.39550781 -2978.39550781 l 2
 1877.66015625 -3088.88085938 1985.77929688 -3167 2112 -3167 c 0
 2277.57421875 -3167 2412 -3032.57421875 2412 -2867 c 0
 2412 -2827.64648438 2404.40625 -2790.05175781 2390.60449219 -2755.60449219 c 2
 1390.60449219 -259.604492188 l 2
 1387.5390625 -251.952148438 1384.16699219 -244.454101562 1380.50292969 -237.126953125 c 0
 1210.64550781 102.588867188 1080.02246094 439.986328125 998.553710938 753.638671875 c 0
 933.384765625 1004.54003906 900 1239.90234375 900 1446.59960938 c 0
 900 1758.63378906 974.62890625 1999.34667969 1109.3359375 2167.72949219 c 0
 1262.08496094 2358.66699219 1500.98925781 2468.66894531 1812 2510.2421875 c 1
 1812 629 l 2
EndSplineSet
Validated: 524297
EndChar

StartChar: uniE520
Encoding: 58656 58656 31
Width: 4224
Flags: HW
LayerCount: 2
Fore
SplineSet
1812 629 m 2
 1812 463.42578125 1946.42578125 329 2112 329 c 0
 2277.57421875 329 2412 463.42578125 2412 629 c 2
 2412 2510.2421875 l 1
 2723.74414062 2468.5703125 2961.47558594 2359.21582031 3114.6640625 2167.72949219 c 0
 3249.37109375 1999.34667969 3324 1758.63378906 3324 1446.59960938 c 0
 3324 1239.90234375 3290.61523438 1004.54003906 3225.44628906 753.638671875 c 0
 3143.97753906 439.986328125 3013.35449219 102.588867188 2843.49707031 -237.126953125 c 0
 2839.83300781 -244.454101562 2836.4609375 -251.952148438 2833.39550781 -259.604492188 c 2
 1833.39550781 -2755.60449219 l 2
 1819.59375 -2790.05175781 1812 -2827.64648438 1812 -2867 c 0
 1812 -3032.57421875 1946.42578125 -3167 2112 -3167 c 0
 2238.22070312 -3167 2346.33984375 -3088.88085938 2390.60449219 -2978.39550781 c 2
 3386.07128906 -493.711914062 l 1
 3569.11816406 -125.9921875 3713.06347656 243.865234375 3806.23632812 602.578125 c 0
 3881.53320312 892.47265625 3924 1175.43066406 3924 1446.59960938 c 0
 3924 1851.36621094 3827.96191406 2236.43164062 3583.40917969 2542.12207031 c 0
 3489.61230469 2659.36816406 3375.14550781 2762.47753906 3242.85253906 2846.81542969 c 0
 3137.02050781 2914.28320312 3020.13476562 2969.74121094 2893.40234375 3012.91113281 c 0
 2665.17382812 3090.65625 2405.34277344 3129 2112 3129 c 0
 1818.65722656 3129 1558.82617188 3090.65625 1330.59765625 3012.91113281 c 0
 1203.86523438 2969.74121094 1086.97949219 2914.28320312 981.147460938 2846.81542969 c 0
 848.854492188 2762.47753906 734.387695312 2659.36816406 640.590820312 2542.12207031 c 0
 396.038085938 2236.43164062 300 1851.36621094 300 1446.59960938 c 0
 300 1175.43066406 342.466796875 892.47265625 417.763671875 602.578125 c 0
 511.87890625 240.235351562 657.799804688 -133.477539062 843.497070312 -504.873046875 c 0
 892.724609375 -603.328125 994.521484375 -671 1112 -671 c 0
 1277.57421875 -671 1412 -536.57421875 1412 -371 c 0
 1412 -322.903320312 1400.65722656 -277.435546875 1380.50292969 -237.126953125 c 0
 1210.64550781 102.588867188 1080.02246094 439.986328125 998.553710938 753.638671875 c 0
 933.384765625 1004.54003906 900 1239.90234375 900 1446.59960938 c 0
 900 1758.63378906 974.62890625 1999.34667969 1109.3359375 2167.72949219 c 0
 1262.08496094 2358.66699219 1500.98925781 2468.66894531 1812 2510.2421875 c 1
 1812 629 l 2
EndSplineSet
Validated: 524297
EndChar

StartChar: uniE521
Encoding: 58657 58657 32
Width: 4400
Flags: HW
LayerCount: 2
Fore
SplineSet
1600 1529 m 2
 1434.42578125 1529 1300 1394.57421875 1300 1229 c 0
 1300 1063.42578125 1434.42578125 929 1600 929 c 2
 3481.2421875 929 l 1
 3439.5703125 617.255859375 3330.21582031 379.524414062 3138.72949219 226.3359375 c 0
 2970.34667969 91.62890625 2729.63378906 17 2417.59960938 17 c 0
 2210.90234375 17 1975.54003906 50.384765625 1724.63867188 115.553710938 c 0
 1410.98632812 197.022460938 1073.58886719 327.645507812 733.873046875 497.502929688 c 0
 693.564453125 517.657226562 648.096679688 529 600 529 c 0
 434.42578125 529 300 394.57421875 300 229 c 0
 300 111.521484375 367.671875 9.724609375 466.126953125 -39.5029296875 c 0
 837.522460938 -225.200195312 1211.23535156 -371.12109375 1573.578125 -465.236328125 c 0
 1863.47265625 -540.533203125 2146.43066406 -583 2417.59960938 -583 c 0
 2822.36621094 -583 3207.43164062 -486.961914062 3513.12207031 -242.409179688 c 0
 3630.36816406 -148.612304688 3733.47753906 -34.1455078125 3817.81542969 98.1474609375 c 0
 3885.28320312 203.979492188 3940.74121094 320.865234375 3983.91113281 447.59765625 c 0
 4061.65625 675.826171875 4100 935.657226562 4100 1229 c 0
 4100 1522.34277344 4061.65625 1782.17382812 3983.91113281 2010.40234375 c 0
 3940.74121094 2137.13476562 3885.28320312 2254.02050781 3817.81542969 2359.85253906 c 0
 3733.47753906 2492.14550781 3630.36816406 2606.61230469 3513.12207031 2700.40917969 c 0
 3207.43164062 2944.96191406 2822.36621094 3041 2417.59960938 3041 c 0
 2146.43066406 3041 1863.47265625 2998.53320312 1573.578125 2923.23632812 c 0
 1465.22949219 2895.09375 1355.86523438 2862.31933594 1245.84863281 2825.234375 c 1
 2466.69433594 5187.56933594 l 2
 2487.97753906 5228.75195312 2500 5275.48339844 2500 5325 c 0
 2500 5490.57421875 2365.57421875 5625 2200 5625 c 0
 2083.94238281 5625 1983.18945312 5558.95507812 1933.30566406 5462.43066406 c 2
 333.305664062 2366.43066406 l 2
 312.022460938 2325.24804688 300 2278.51660156 300 2229 c 0
 300 2063.42578125 434.42578125 1929 600 1929 c 0
 648.096679688 1929 693.564453125 1940.34277344 733.873046875 1960.49707031 c 0
 1073.58886719 2130.35449219 1410.98632812 2260.97753906 1724.63867188 2342.44628906 c 0
 1975.54003906 2407.61523438 2210.90234375 2441 2417.59960938 2441 c 0
 2729.63378906 2441 2970.34667969 2366.37109375 3138.72949219 2231.6640625 c 0
 3329.66699219 2078.91503906 3439.66894531 1840.01074219 3481.2421875 1529 c 1
 1600 1529 l 2
EndSplineSet
Validated: 524297
EndChar

StartChar: uniE522
Encoding: 58658 58658 33
Width: 4400
Flags: HW
LayerCount: 2
Fore
SplineSet
2800 929 m 2
 2965.57421875 929 3100 1063.42578125 3100 1229 c 0
 3100 1394.57421875 2965.57421875 1529 2800 1529 c 2
 918.7578125 1529 l 1
 960.4296875 1840.74414062 1069.78417969 2078.47558594 1261.27050781 2231.6640625 c 0
 1429.65332031 2366.37109375 1670.36621094 2441 1982.40039062 2441 c 0
 2189.09765625 2441 2424.45996094 2407.61523438 2675.36132812 2342.44628906 c 0
 2989.01367188 2260.97753906 3326.41113281 2130.35449219 3666.12695312 1960.49707031 c 0
 3706.43554688 1940.34277344 3751.90332031 1929 3800 1929 c 0
 3965.57421875 1929 4100 2063.42578125 4100 2229 c 0
 4100 2278.51660156 4087.97753906 2325.24804688 4066.69433594 2366.43066406 c 2
 2466.69433594 5462.43066406 l 2
 2416.81054688 5558.95507812 2316.05761719 5625 2200 5625 c 0
 2034.42578125 5625 1900 5490.57421875 1900 5325 c 0
 1900 5275.48339844 1912.02246094 5228.75195312 1933.30566406 5187.56933594 c 2
 3154.15136719 2825.234375 l 1
 3044.13476562 2862.31933594 2934.77050781 2895.09375 2826.421875 2923.23632812 c 0
 2536.52734375 2998.53320312 2253.56933594 3041 1982.40039062 3041 c 0
 1577.63378906 3041 1192.56835938 2944.96191406 886.877929688 2700.40917969 c 0
 769.631835938 2606.61230469 666.522460938 2492.14550781 582.184570312 2359.85253906 c 0
 514.716796875 2254.02050781 459.258789062 2137.13476562 416.088867188 2010.40234375 c 0
 338.34375 1782.17382812 300 1522.34277344 300 1229 c 0
 300 935.657226562 338.34375 675.826171875 416.088867188 447.59765625 c 0
 459.258789062 320.865234375 514.716796875 203.979492188 582.184570312 98.1474609375 c 0
 666.522460938 -34.1455078125 769.631835938 -148.612304688 886.877929688 -242.409179688 c 0
 1192.56835938 -486.961914062 1577.63378906 -583 1982.40039062 -583 c 0
 2253.56933594 -583 2536.52734375 -540.533203125 2826.421875 -465.236328125 c 0
 3188.76464844 -371.12109375 3562.47753906 -225.200195312 3933.87304688 -39.5029296875 c 0
 4032.328125 9.724609375 4100 111.521484375 4100 229 c 0
 4100 394.57421875 3965.57421875 529 3800 529 c 0
 3751.90332031 529 3706.43554688 517.657226562 3666.12695312 497.502929688 c 0
 3326.41113281 327.645507812 2989.01367188 197.022460938 2675.36132812 115.553710938 c 0
 2424.45996094 50.384765625 2189.09765625 17 1982.40039062 17 c 0
 1670.36621094 17 1429.65332031 91.62890625 1261.27050781 226.3359375 c 0
 1070.33300781 379.084960938 960.331054688 617.989257812 918.7578125 929 c 1
 2800 929 l 2
EndSplineSet
Validated: 524297
EndChar

StartChar: uniE523
Encoding: 58659 58659 34
Width: 4400
Flags: HW
LayerCount: 2
Fore
SplineSet
1600 1529 m 2
 1434.42578125 1529 1300 1394.57421875 1300 1229 c 0
 1300 1063.42578125 1434.42578125 929 1600 929 c 2
 3481.2421875 929 l 1
 3439.5703125 617.255859375 3330.21582031 379.524414062 3138.72949219 226.3359375 c 0
 2970.34667969 91.62890625 2729.63378906 17 2417.59960938 17 c 0
 2210.90234375 17 1975.54003906 50.384765625 1724.63867188 115.553710938 c 0
 1410.98632812 197.022460938 1073.58886719 327.645507812 733.873046875 497.502929688 c 0
 693.564453125 517.657226562 648.096679688 529 600 529 c 0
 434.42578125 529 300 394.57421875 300 229 c 0
 300 179.483398438 312.022460938 132.751953125 333.305664062 91.5693359375 c 2
 1933.30566406 -3004.43066406 l 2
 1983.18945312 -3100.95507812 2083.94238281 -3167 2200 -3167 c 0
 2365.57421875 -3167 2500 -3032.57421875 2500 -2867 c 0
 2500 -2817.48339844 2487.97753906 -2770.75195312 2466.69433594 -2729.56933594 c 2
 1245.84863281 -367.234375 l 1
 1355.86523438 -404.319335938 1465.22949219 -437.09375 1573.578125 -465.236328125 c 0
 1863.47265625 -540.533203125 2146.43066406 -583 2417.59960938 -583 c 0
 2822.36621094 -583 3207.43164062 -486.961914062 3513.12207031 -242.409179688 c 0
 3630.36816406 -148.612304688 3733.47753906 -34.1455078125 3817.81542969 98.1474609375 c 0
 3885.28320312 203.979492188 3940.74121094 320.865234375 3983.91113281 447.59765625 c 0
 4061.65625 675.826171875 4100 935.657226562 4100 1229 c 0
 4100 1522.34277344 4061.65625 1782.17382812 3983.91113281 2010.40234375 c 0
 3940.74121094 2137.13476562 3885.28320312 2254.02050781 3817.81542969 2359.85253906 c 0
 3733.47753906 2492.14550781 3630.36816406 2606.61230469 3513.12207031 2700.40917969 c 0
 3207.43164062 2944.96191406 2822.36621094 3041 2417.59960938 3041 c 0
 2146.43066406 3041 1863.47265625 2998.53320312 1573.578125 2923.23632812 c 0
 1211.23535156 2829.12109375 837.522460938 2683.20019531 466.126953125 2497.50292969 c 0
 367.671875 2448.27539062 300 2346.47851562 300 2229 c 0
 300 2063.42578125 434.42578125 1929 600 1929 c 0
 648.096679688 1929 693.564453125 1940.34277344 733.873046875 1960.49707031 c 0
 1073.58886719 2130.35449219 1410.98632812 2260.97753906 1724.63867188 2342.44628906 c 0
 1975.54003906 2407.61523438 2210.90234375 2441 2417.59960938 2441 c 0
 2729.63378906 2441 2970.34667969 2366.37109375 3138.72949219 2231.6640625 c 0
 3329.66699219 2078.91503906 3439.66894531 1840.01074219 3481.2421875 1529 c 1
 1600 1529 l 2
EndSplineSet
Validated: 524297
EndChar

StartChar: uniE524
Encoding: 58660 58660 35
Width: 4400
Flags: HW
LayerCount: 2
Fore
SplineSet
2800 929 m 2
 2965.57421875 929 3100 1063.42578125 3100 1229 c 0
 3100 1394.57421875 2965.57421875 1529 2800 1529 c 2
 918.7578125 1529 l 1
 960.4296875 1840.74414062 1069.78417969 2078.47558594 1261.27050781 2231.6640625 c 0
 1429.65332031 2366.37109375 1670.36621094 2441 1982.40039062 2441 c 0
 2189.09765625 2441 2424.45996094 2407.61523438 2675.36132812 2342.44628906 c 0
 2989.01367188 2260.97753906 3326.41113281 2130.35449219 3666.12695312 1960.49707031 c 0
 3706.43554688 1940.34277344 3751.90332031 1929 3800 1929 c 0
 3965.57421875 1929 4100 2063.42578125 4100 2229 c 0
 4100 2346.47851562 4032.328125 2448.27539062 3933.87304688 2497.50292969 c 0
 3562.47753906 2683.20019531 3188.76464844 2829.12109375 2826.421875 2923.23632812 c 0
 2536.52734375 2998.53320312 2253.56933594 3041 1982.40039062 3041 c 0
 1577.63378906 3041 1192.56835938 2944.96191406 886.877929688 2700.40917969 c 0
 769.631835938 2606.61230469 666.522460938 2492.14550781 582.184570312 2359.85253906 c 0
 514.716796875 2254.02050781 459.258789062 2137.13476562 416.088867188 2010.40234375 c 0
 338.34375 1782.17382812 300 1522.34277344 300 1229 c 0
 300 935.657226562 338.34375 675.826171875 416.088867188 447.59765625 c 0
 459.258789062 320.865234375 514.716796875 203.979492188 582.184570312 98.1474609375 c 0
 666.522460938 -34.1455078125 769.631835938 -148.612304688 886.877929688 -242.409179688 c 0
 1192.56835938 -486.961914062 1577.63378906 -583 1982.40039062 -583 c 0
 2253.56933594 -583 2536.52734375 -540.533203125 2826.421875 -465.236328125 c 0
 2934.77050781 -437.09375 3044.13476562 -404.319335938 3154.15136719 -367.234375 c 1
 1933.30566406 -2729.56933594 l 2
 1912.02246094 -2770.75195312 1900 -2817.48339844 1900 -2867 c 0
 1900 -3032.57421875 2034.42578125 -3167 2200 -3167 c 0
 2316.05761719 -3167 2416.81054688 -3100.95507812 2466.69433594 -3004.43066406 c 2
 4066.69433594 91.5693359375 l 2
 4087.97753906 132.751953125 4100 179.483398438 4100 229 c 0
 4100 394.57421875 3965.57421875 529 3800 529 c 0
 3751.90332031 529 3706.43554688 517.657226562 3666.12695312 497.502929688 c 0
 3326.41113281 327.645507812 2989.01367188 197.022460938 2675.36132812 115.553710938 c 0
 2424.45996094 50.384765625 2189.09765625 17 1982.40039062 17 c 0
 1670.36621094 17 1429.65332031 91.62890625 1261.27050781 226.3359375 c 0
 1070.33300781 379.084960938 960.331054688 617.989257812 918.7578125 929 c 1
 2800 929 l 2
EndSplineSet
Validated: 524297
EndChar

StartChar: uniE525
Encoding: 58661 58661 36
Width: 4224
Flags: HW
LayerCount: 2
Fore
SplineSet
1812 629 m 2
 1812 463.42578125 1946.42578125 329 2112 329 c 0
 2277.57421875 329 2412 463.42578125 2412 629 c 2
 2412 2510.2421875 l 1
 2723.74414062 2468.5703125 2961.47558594 2359.21582031 3114.6640625 2167.72949219 c 0
 3249.37109375 1999.34667969 3324 1758.63378906 3324 1446.59960938 c 0
 3324 1239.90234375 3290.61523438 1004.54003906 3225.44628906 753.638671875 c 0
 3143.97753906 439.986328125 3013.35449219 102.588867188 2843.49707031 -237.126953125 c 0
 2823.34277344 -277.435546875 2812 -322.903320312 2812 -371 c 0
 2812 -536.57421875 2946.42578125 -671 3112 -671 c 0
 3229.47851562 -671 3331.27539062 -603.328125 3380.50292969 -504.873046875 c 0
 3566.20019531 -133.477539062 3712.12109375 240.235351562 3806.23632812 602.578125 c 0
 3881.53320312 892.47265625 3924 1175.43066406 3924 1446.59960938 c 0
 3924 1851.36621094 3827.96191406 2236.43164062 3583.40917969 2542.12207031 c 0
 3489.61230469 2659.36816406 3375.14550781 2762.47753906 3242.85253906 2846.81542969 c 0
 3018.97265625 2989.54003906 2741.22363281 3081.03222656 2412 3114.43847656 c 1
 2412 5325 l 2
 2412 5490.57421875 2277.57421875 5625 2112 5625 c 0
 1946.42578125 5625 1812 5490.57421875 1812 5325 c 2
 1812 3114.43847656 l 1
 1289.72753906 3061.44335938 896.6328125 2862.17578125 640.590820312 2542.12207031 c 0
 396.038085938 2236.43164062 300 1851.36621094 300 1446.59960938 c 0
 300 1175.43066406 342.466796875 892.47265625 417.763671875 602.578125 c 0
 511.87890625 240.235351562 657.799804688 -133.477539062 843.497070312 -504.873046875 c 0
 892.724609375 -603.328125 994.521484375 -671 1112 -671 c 0
 1277.57421875 -671 1412 -536.57421875 1412 -371 c 0
 1412 -322.903320312 1400.65722656 -277.435546875 1380.50292969 -237.126953125 c 0
 1210.64550781 102.588867188 1080.02246094 439.986328125 998.553710938 753.638671875 c 0
 933.384765625 1004.54003906 900 1239.90234375 900 1446.59960938 c 0
 900 1758.63378906 974.62890625 1999.34667969 1109.3359375 2167.72949219 c 0
 1262.08496094 2358.66699219 1500.98925781 2468.66894531 1812 2510.2421875 c 1
 1812 629 l 2
EndSplineSet
Validated: 524297
EndChar

StartChar: uniE526
Encoding: 58662 58662 37
Width: 4224
Flags: HW
LayerCount: 2
Fore
SplineSet
2412 1829 m 2
 2412 1994.57421875 2277.57421875 2129 2112 2129 c 0
 1946.42578125 2129 1812 1994.57421875 1812 1829 c 2
 1812 -52.2421875 l 1
 1500.25585938 -10.5703125 1262.52441406 98.7841796875 1109.3359375 290.270507812 c 0
 974.62890625 458.653320312 900 699.366210938 900 1011.40039062 c 0
 900 1218.09765625 933.384765625 1453.45996094 998.553710938 1704.36132812 c 0
 1080.02246094 2018.01367188 1210.64550781 2355.41113281 1380.50292969 2695.12695312 c 0
 1400.65722656 2735.43554688 1412 2780.90332031 1412 2829 c 0
 1412 2994.57421875 1277.57421875 3129 1112 3129 c 0
 994.521484375 3129 892.724609375 3061.328125 843.497070312 2962.87304688 c 0
 657.799804688 2591.47753906 511.87890625 2217.76464844 417.763671875 1855.421875 c 0
 342.466796875 1565.52734375 300 1282.56933594 300 1011.40039062 c 0
 300 606.633789062 396.038085938 221.568359375 640.590820312 -84.1220703125 c 0
 734.387695312 -201.368164062 848.854492188 -304.477539062 981.147460938 -388.815429688 c 0
 1205.02734375 -531.540039062 1482.77636719 -623.032226562 1812 -656.438476562 c 1
 1812 -2867 l 2
 1812 -3032.57421875 1946.42578125 -3167 2112 -3167 c 0
 2277.57421875 -3167 2412 -3032.57421875 2412 -2867 c 2
 2412 -656.438476562 l 1
 2934.27246094 -603.443359375 3327.3671875 -404.17578125 3583.40917969 -84.1220703125 c 0
 3827.96191406 221.568359375 3924 606.633789062 3924 1011.40039062 c 0
 3924 1282.56933594 3881.53320312 1565.52734375 3806.23632812 1855.421875 c 0
 3712.12109375 2217.76464844 3566.20019531 2591.47753906 3380.50292969 2962.87304688 c 0
 3331.27539062 3061.328125 3229.47851562 3129 3112 3129 c 0
 2946.42578125 3129 2812 2994.57421875 2812 2829 c 0
 2812 2780.90332031 2823.34277344 2735.43554688 2843.49707031 2695.12695312 c 0
 3013.35449219 2355.41113281 3143.97753906 2018.01367188 3225.44628906 1704.36132812 c 0
 3290.61523438 1453.45996094 3324 1218.09765625 3324 1011.40039062 c 0
 3324 699.366210938 3249.37109375 458.653320312 3114.6640625 290.270507812 c 0
 2961.91503906 99.3330078125 2723.01074219 -10.6689453125 2412 -52.2421875 c 1
 2412 1829 l 2
EndSplineSet
Validated: 524297
EndChar

StartChar: uniE527
Encoding: 58663 58663 38
Width: 4224
Flags: HW
LayerCount: 2
Fore
SplineSet
2812 2829 m 0
 2812 2780.90332031 2823.34277344 2735.43554688 2843.49707031 2695.12695312 c 0
 3013.35449219 2355.41113281 3143.97753906 2018.01367188 3225.44628906 1704.36132812 c 0
 3290.61523438 1453.45996094 3324 1218.09765625 3324 1011.40039062 c 0
 3324 699.366210938 3249.37109375 458.653320312 3114.6640625 290.270507812 c 0
 2961.91503906 99.3330078125 2723.01074219 -10.6689453125 2412 -52.2421875 c 1
 2412 5325 l 2
 2412 5490.57421875 2277.57421875 5625 2112 5625 c 0
 1946.42578125 5625 1812 5490.57421875 1812 5325 c 2
 1812 -52.2421875 l 1
 1500.25585938 -10.5703125 1262.52441406 98.7841796875 1109.3359375 290.270507812 c 0
 974.62890625 458.653320312 900 699.366210938 900 1011.40039062 c 0
 900 1218.09765625 933.384765625 1453.45996094 998.553710938 1704.36132812 c 0
 1080.02246094 2018.01367188 1210.64550781 2355.41113281 1380.50292969 2695.12695312 c 0
 1400.65722656 2735.43554688 1412 2780.90332031 1412 2829 c 0
 1412 2994.57421875 1277.57421875 3129 1112 3129 c 0
 994.521484375 3129 892.724609375 3061.328125 843.497070312 2962.87304688 c 0
 657.799804688 2591.47753906 511.87890625 2217.76464844 417.763671875 1855.421875 c 0
 342.466796875 1565.52734375 300 1282.56933594 300 1011.40039062 c 0
 300 606.633789062 396.038085938 221.568359375 640.590820312 -84.1220703125 c 0
 734.387695312 -201.368164062 848.854492188 -304.477539062 981.147460938 -388.815429688 c 0
 1086.97949219 -456.283203125 1203.86523438 -511.741210938 1330.59765625 -554.911132812 c 0
 1558.82617188 -632.65625 1818.65722656 -671 2112 -671 c 0
 2405.34277344 -671 2665.17382812 -632.65625 2893.40234375 -554.911132812 c 0
 3020.13476562 -511.741210938 3137.02050781 -456.283203125 3242.85253906 -388.815429688 c 0
 3375.14550781 -304.477539062 3489.61230469 -201.368164062 3583.40917969 -84.1220703125 c 0
 3827.96191406 221.568359375 3924 606.633789062 3924 1011.40039062 c 0
 3924 1282.56933594 3881.53320312 1565.52734375 3806.23632812 1855.421875 c 0
 3712.12109375 2217.76464844 3566.20019531 2591.47753906 3380.50292969 2962.87304688 c 0
 3331.27539062 3061.328125 3229.47851562 3129 3112 3129 c 0
 2946.42578125 3129 2812 2994.57421875 2812 2829 c 0
EndSplineSet
Validated: 524297
EndChar

StartChar: uniE528
Encoding: 58664 58664 39
Width: 4224
Flags: HW
LayerCount: 2
Fore
SplineSet
2812 -371 m 0
 2812 -536.57421875 2946.42578125 -671 3112 -671 c 0
 3229.47851562 -671 3331.27539062 -603.328125 3380.50292969 -504.873046875 c 0
 3566.20019531 -133.477539062 3712.12109375 240.235351562 3806.23632812 602.578125 c 0
 3881.53320312 892.47265625 3924 1175.43066406 3924 1446.59960938 c 0
 3924 1851.36621094 3827.96191406 2236.43164062 3583.40917969 2542.12207031 c 0
 3489.61230469 2659.36816406 3375.14550781 2762.47753906 3242.85253906 2846.81542969 c 0
 3137.02050781 2914.28320312 3020.13476562 2969.74121094 2893.40234375 3012.91113281 c 0
 2665.17382812 3090.65625 2405.34277344 3129 2112 3129 c 0
 1818.65722656 3129 1558.82617188 3090.65625 1330.59765625 3012.91113281 c 0
 1203.86523438 2969.74121094 1086.97949219 2914.28320312 981.147460938 2846.81542969 c 0
 848.854492188 2762.47753906 734.387695312 2659.36816406 640.590820312 2542.12207031 c 0
 396.038085938 2236.43164062 300 1851.36621094 300 1446.59960938 c 0
 300 1175.43066406 342.466796875 892.47265625 417.763671875 602.578125 c 0
 511.87890625 240.235351562 657.799804688 -133.477539062 843.497070312 -504.873046875 c 0
 892.724609375 -603.328125 994.521484375 -671 1112 -671 c 0
 1277.57421875 -671 1412 -536.57421875 1412 -371 c 0
 1412 -322.903320312 1400.65722656 -277.435546875 1380.50292969 -237.126953125 c 0
 1210.64550781 102.588867188 1080.02246094 439.986328125 998.553710938 753.638671875 c 0
 933.384765625 1004.54003906 900 1239.90234375 900 1446.59960938 c 0
 900 1758.63378906 974.62890625 1999.34667969 1109.3359375 2167.72949219 c 0
 1262.08496094 2358.66699219 1500.98925781 2468.66894531 1812 2510.2421875 c 1
 1812 -2867 l 2
 1812 -3032.57421875 1946.42578125 -3167 2112 -3167 c 0
 2277.57421875 -3167 2412 -3032.57421875 2412 -2867 c 2
 2412 2510.2421875 l 1
 2723.74414062 2468.5703125 2961.47558594 2359.21582031 3114.6640625 2167.72949219 c 0
 3249.37109375 1999.34667969 3324 1758.63378906 3324 1446.59960938 c 0
 3324 1239.90234375 3290.61523438 1004.54003906 3225.44628906 753.638671875 c 0
 3143.97753906 439.986328125 3013.35449219 102.588867188 2843.49707031 -237.126953125 c 0
 2823.34277344 -277.435546875 2812 -322.903320312 2812 -371 c 0
EndSplineSet
Validated: 524297
EndChar

StartChar: uniE529
Encoding: 58665 58665 40
Width: 4224
Flags: HW
LayerCount: 2
Fore
SplineSet
2812 2829 m 0
 2812 2780.90332031 2823.34277344 2735.43554688 2843.49707031 2695.12695312 c 0
 3013.35449219 2355.41113281 3143.97753906 2018.01367188 3225.44628906 1704.36132812 c 0
 3240.87011719 1644.97949219 3254.51367188 1586.46777344 3266.35546875 1529 c 1
 957.64453125 1529 l 1
 969.486328125 1586.46777344 983.129882812 1644.97949219 998.553710938 1704.36132812 c 0
 1080.02246094 2018.01367188 1210.64550781 2355.41113281 1380.50292969 2695.12695312 c 0
 1400.65722656 2735.43554688 1412 2780.90332031 1412 2829 c 0
 1412 2994.57421875 1277.57421875 3129 1112 3129 c 0
 994.521484375 3129 892.724609375 3061.328125 843.497070312 2962.87304688 c 0
 657.799804688 2591.47753906 511.87890625 2217.76464844 417.763671875 1855.421875 c 0
 342.466796875 1565.52734375 300 1282.56933594 300 1011.40039062 c 0
 300 606.633789062 396.038085938 221.568359375 640.590820312 -84.1220703125 c 0
 734.387695312 -201.368164062 848.854492188 -304.477539062 981.147460938 -388.815429688 c 0
 1086.97949219 -456.283203125 1203.86523438 -511.741210938 1330.59765625 -554.911132812 c 0
 1558.82617188 -632.65625 1818.65722656 -671 2112 -671 c 0
 2405.34277344 -671 2665.17382812 -632.65625 2893.40234375 -554.911132812 c 0
 3020.13476562 -511.741210938 3137.02050781 -456.283203125 3242.85253906 -388.815429688 c 0
 3375.14550781 -304.477539062 3489.61230469 -201.368164062 3583.40917969 -84.1220703125 c 0
 3827.96191406 221.568359375 3924 606.633789062 3924 1011.40039062 c 0
 3924 1282.56933594 3881.53320312 1565.52734375 3806.23632812 1855.421875 c 0
 3712.12109375 2217.76464844 3566.20019531 2591.47753906 3380.50292969 2962.87304688 c 0
 3331.27539062 3061.328125 3229.47851562 3129 3112 3129 c 0
 2946.42578125 3129 2812 2994.57421875 2812 2829 c 0
2112 -71 m 0
 1872.00976562 -71 1677.51953125 -39.111328125 1523.93652344 13.2060546875 c 0
 1347.68847656 73.244140625 1210.09863281 164.31640625 1109.3359375 290.270507812 c 0
 986.735351562 443.520507812 913.899414062 656.68359375 901.797851562 929 c 1
 3322.20214844 929 l 1
 3310.10058594 656.68359375 3237.26464844 443.520507812 3114.6640625 290.270507812 c 0
 3013.96582031 164.396484375 2876.18847656 73.2021484375 2700.06347656 13.2060546875 c 0
 2546.48046875 -39.111328125 2351.99023438 -71 2112 -71 c 0
EndSplineSet
Validated: 524297
EndChar

StartChar: uniE52A
Encoding: 58666 58666 41
Width: 4400
Flags: HW
LayerCount: 2
Fore
SplineSet
4100 229 m 0
 4100 394.57421875 3965.57421875 529 3800 529 c 0
 3751.90332031 529 3706.43554688 517.657226562 3666.12695312 497.502929688 c 0
 3326.41113281 327.645507812 2989.01367188 197.022460938 2675.36132812 115.553710938 c 0
 2615.97949219 100.129882812 2557.46777344 86.486328125 2500 74.64453125 c 1
 2500 2383.35546875 l 1
 2557.46777344 2371.51367188 2615.97949219 2357.87011719 2675.36132812 2342.44628906 c 0
 2989.01367188 2260.97753906 3326.41113281 2130.35449219 3666.12695312 1960.49707031 c 0
 3706.43554688 1940.34277344 3751.90332031 1929 3800 1929 c 0
 3965.57421875 1929 4100 2063.42578125 4100 2229 c 0
 4100 2346.47851562 4032.328125 2448.27539062 3933.87304688 2497.50292969 c 0
 3562.47753906 2683.20019531 3188.76464844 2829.12109375 2826.421875 2923.23632812 c 0
 2536.52734375 2998.53320312 2253.56933594 3041 1982.40039062 3041 c 0
 1577.63378906 3041 1192.56835938 2944.96191406 886.877929688 2700.40917969 c 0
 769.631835938 2606.61230469 666.522460938 2492.14550781 582.184570312 2359.85253906 c 0
 514.716796875 2254.02050781 459.258789062 2137.13476562 416.088867188 2010.40234375 c 0
 338.34375 1782.17382812 300 1522.34277344 300 1229 c 0
 300 935.657226562 338.34375 675.826171875 416.088867188 447.59765625 c 0
 459.258789062 320.865234375 514.716796875 203.979492188 582.184570312 98.1474609375 c 0
 666.522460938 -34.1455078125 769.631835938 -148.612304688 886.877929688 -242.409179688 c 0
 1192.56835938 -486.961914062 1577.63378906 -583 1982.40039062 -583 c 0
 2253.56933594 -583 2536.52734375 -540.533203125 2826.421875 -465.236328125 c 0
 3188.76464844 -371.12109375 3562.47753906 -225.200195312 3933.87304688 -39.5029296875 c 0
 4032.328125 9.724609375 4100 111.521484375 4100 229 c 0
900 1229 m 0
 900 1468.99023438 931.888671875 1663.48046875 984.206054688 1817.06347656 c 0
 1044.24414062 1993.31152344 1135.31640625 2130.90136719 1261.27050781 2231.6640625 c 0
 1414.52050781 2354.26464844 1627.68359375 2427.10058594 1900 2439.20214844 c 1
 1900 18.7978515625 l 1
 1627.68359375 30.8994140625 1414.52050781 103.735351562 1261.27050781 226.3359375 c 0
 1135.39648438 327.034179688 1044.20214844 464.811523438 984.206054688 640.936523438 c 0
 931.888671875 794.51953125 900 989.009765625 900 1229 c 0
EndSplineSet
Validated: 524297
EndChar

StartChar: uniE52B
Encoding: 58667 58667 42
Width: 4224
Flags: HW
LayerCount: 2
Fore
SplineSet
1112 -671 m 0
 1277.57421875 -671 1412 -536.57421875 1412 -371 c 0
 1412 -322.903320312 1400.65722656 -277.435546875 1380.50292969 -237.126953125 c 0
 1210.64550781 102.588867188 1080.02246094 439.986328125 998.553710938 753.638671875 c 0
 983.129882812 813.020507812 969.486328125 871.532226562 957.64453125 929 c 1
 3266.35546875 929 l 1
 3254.51367188 871.532226562 3240.87011719 813.020507812 3225.44628906 753.638671875 c 0
 3143.97753906 439.986328125 3013.35449219 102.588867188 2843.49707031 -237.126953125 c 0
 2823.34277344 -277.435546875 2812 -322.903320312 2812 -371 c 0
 2812 -536.57421875 2946.42578125 -671 3112 -671 c 0
 3229.47851562 -671 3331.27539062 -603.328125 3380.50292969 -504.873046875 c 0
 3566.20019531 -133.477539062 3712.12109375 240.235351562 3806.23632812 602.578125 c 0
 3881.53320312 892.47265625 3924 1175.43066406 3924 1446.59960938 c 0
 3924 1851.36621094 3827.96191406 2236.43164062 3583.40917969 2542.12207031 c 0
 3489.61230469 2659.36816406 3375.14550781 2762.47753906 3242.85253906 2846.81542969 c 0
 3137.02050781 2914.28320312 3020.13476562 2969.74121094 2893.40234375 3012.91113281 c 0
 2665.17382812 3090.65625 2405.34277344 3129 2112 3129 c 0
 1818.65722656 3129 1558.82617188 3090.65625 1330.59765625 3012.91113281 c 0
 1203.86523438 2969.74121094 1086.97949219 2914.28320312 981.147460938 2846.81542969 c 0
 848.854492188 2762.47753906 734.387695312 2659.36816406 640.590820312 2542.12207031 c 0
 396.038085938 2236.43164062 300 1851.36621094 300 1446.59960938 c 0
 300 1175.43066406 342.466796875 892.47265625 417.763671875 602.578125 c 0
 511.87890625 240.235351562 657.799804688 -133.477539062 843.497070312 -504.873046875 c 0
 892.724609375 -603.328125 994.521484375 -671 1112 -671 c 0
2112 2529 m 0
 2351.99023438 2529 2546.48046875 2497.11132812 2700.06347656 2444.79394531 c 0
 2876.31152344 2384.75585938 3013.90136719 2293.68359375 3114.6640625 2167.72949219 c 0
 3237.26464844 2014.47949219 3310.10058594 1801.31640625 3322.20214844 1529 c 1
 901.797851562 1529 l 1
 913.899414062 1801.31640625 986.735351562 2014.47949219 1109.3359375 2167.72949219 c 0
 1210.03417969 2293.60351562 1347.81152344 2384.79785156 1523.93652344 2444.79394531 c 0
 1677.51953125 2497.11132812 1872.00976562 2529 2112 2529 c 0
EndSplineSet
Validated: 524297
EndChar

StartChar: uniE52C
Encoding: 58668 58668 43
Width: 4400
Flags: HW
LayerCount: 2
Fore
SplineSet
600 1929 m 0
 648.096679688 1929 693.564453125 1940.34277344 733.873046875 1960.49707031 c 0
 1073.58886719 2130.35449219 1410.98632812 2260.97753906 1724.63867188 2342.44628906 c 0
 1784.02050781 2357.87011719 1842.53222656 2371.51367188 1900 2383.35546875 c 1
 1900 74.64453125 l 1
 1842.53222656 86.486328125 1784.02050781 100.129882812 1724.63867188 115.553710938 c 0
 1410.98632812 197.022460938 1073.58886719 327.645507812 733.873046875 497.502929688 c 0
 693.564453125 517.657226562 648.096679688 529 600 529 c 0
 434.42578125 529 300 394.57421875 300 229 c 0
 300 111.521484375 367.671875 9.724609375 466.126953125 -39.5029296875 c 0
 837.522460938 -225.200195312 1211.23535156 -371.12109375 1573.578125 -465.236328125 c 0
 1863.47265625 -540.533203125 2146.43066406 -583 2417.59960938 -583 c 0
 2822.36621094 -583 3207.43164062 -486.961914062 3513.12207031 -242.409179688 c 0
 3630.36816406 -148.612304688 3733.47753906 -34.1455078125 3817.81542969 98.1474609375 c 0
 3885.28320312 203.979492188 3940.74121094 320.865234375 3983.91113281 447.59765625 c 0
 4061.65625 675.826171875 4100 935.657226562 4100 1229 c 0
 4100 1522.34277344 4061.65625 1782.17382812 3983.91113281 2010.40234375 c 0
 3940.74121094 2137.13476562 3885.28320312 2254.02050781 3817.81542969 2359.85253906 c 0
 3733.47753906 2492.14550781 3630.36816406 2606.61230469 3513.12207031 2700.40917969 c 0
 3207.43164062 2944.96191406 2822.36621094 3041 2417.59960938 3041 c 0
 2146.43066406 3041 1863.47265625 2998.53320312 1573.578125 2923.23632812 c 0
 1211.23535156 2829.12109375 837.522460938 2683.20019531 466.126953125 2497.50292969 c 0
 367.671875 2448.27539062 300 2346.47851562 300 2229 c 0
 300 2063.42578125 434.42578125 1929 600 1929 c 0
3500 1229 m 0
 3500 989.009765625 3468.11132812 794.51953125 3415.79394531 640.936523438 c 0
 3355.75585938 464.688476562 3264.68359375 327.098632812 3138.72949219 226.3359375 c 0
 2985.47949219 103.735351562 2772.31640625 30.8994140625 2500 18.7978515625 c 1
 2500 2439.20214844 l 1
 2772.31640625 2427.10058594 2985.47949219 2354.26464844 3138.72949219 2231.6640625 c 0
 3264.60351562 2130.96582031 3355.79785156 1993.18847656 3415.79394531 1817.06347656 c 0
 3468.11132812 1663.48046875 3500 1468.99023438 3500 1229 c 0
EndSplineSet
Validated: 524297
EndChar

StartChar: uniE52D
Encoding: 58669 58669 44
Width: 4224
Flags: HW
LayerCount: 2
Fore
SplineSet
2412 5325 m 0
 2412 5490.57421875 2277.57421875 5625 2112 5625 c 0
 1985.77929688 5625 1877.66015625 5546.88085938 1833.39550781 5436.39550781 c 2
 837.928710938 2951.71191406 l 1
 654.881835938 2583.9921875 510.936523438 2214.13476562 417.763671875 1855.421875 c 0
 342.466796875 1565.52734375 300 1282.56933594 300 1011.40039062 c 0
 300 606.633789062 396.038085938 221.568359375 640.590820312 -84.1220703125 c 0
 734.387695312 -201.368164062 848.854492188 -304.477539062 981.147460938 -388.815429688 c 0
 1086.97949219 -456.283203125 1203.86523438 -511.741210938 1330.59765625 -554.911132812 c 0
 1558.82617188 -632.65625 1818.65722656 -671 2112 -671 c 0
 2405.34277344 -671 2665.17382812 -632.65625 2893.40234375 -554.911132812 c 0
 3020.13476562 -511.741210938 3137.02050781 -456.283203125 3242.85253906 -388.815429688 c 0
 3375.14550781 -304.477539062 3489.61230469 -201.368164062 3583.40917969 -84.1220703125 c 0
 3827.96191406 221.568359375 3924 606.633789062 3924 1011.40039062 c 0
 3924 1282.56933594 3881.53320312 1565.52734375 3806.23632812 1855.421875 c 0
 3712.12109375 2217.76464844 3566.20019531 2591.47753906 3380.50292969 2962.87304688 c 0
 3331.27539062 3061.328125 3229.47851562 3129 3112 3129 c 0
 2946.42578125 3129 2812 2994.57421875 2812 2829 c 0
 2812 2780.90332031 2823.34277344 2735.43554688 2843.49707031 2695.12695312 c 0
 3013.35449219 2355.41113281 3143.97753906 2018.01367188 3225.44628906 1704.36132812 c 0
 3240.87011719 1644.97949219 3254.51367188 1586.46777344 3266.35546875 1529 c 1
 957.64453125 1529 l 1
 969.486328125 1586.46777344 983.129882812 1644.97949219 998.553710938 1704.36132812 c 0
 1080.02246094 2018.01367188 1210.64550781 2355.41113281 1380.50292969 2695.12695312 c 0
 1384.16699219 2702.45410156 1387.5390625 2709.95214844 1390.60449219 2717.60449219 c 2
 2390.60449219 5213.60449219 l 2
 2404.40625 5248.05175781 2412 5285.64648438 2412 5325 c 0
2112 -71 m 0
 1872.00976562 -71 1677.51953125 -39.111328125 1523.93652344 13.2060546875 c 0
 1347.68847656 73.244140625 1210.09863281 164.31640625 1109.3359375 290.270507812 c 0
 986.735351562 443.520507812 913.899414062 656.68359375 901.797851562 929 c 1
 3322.20214844 929 l 1
 3310.10058594 656.68359375 3237.26464844 443.520507812 3114.6640625 290.270507812 c 0
 3013.96582031 164.396484375 2876.18847656 73.2021484375 2700.06347656 13.2060546875 c 0
 2546.48046875 -39.111328125 2351.99023438 -71 2112 -71 c 0
EndSplineSet
Validated: 524297
EndChar

StartChar: uniE52E
Encoding: 58670 58670 45
Width: 4224
Flags: HW
LayerCount: 2
Fore
SplineSet
2112 5625 m 0
 1946.42578125 5625 1812 5490.57421875 1812 5325 c 0
 1812 5285.64648438 1819.59375 5248.05175781 1833.39550781 5213.60449219 c 2
 2833.39550781 2717.60449219 l 2
 2836.4609375 2709.95214844 2839.83300781 2702.45410156 2843.49707031 2695.12695312 c 0
 3013.35449219 2355.41113281 3143.97753906 2018.01367188 3225.44628906 1704.36132812 c 0
 3240.87011719 1644.97949219 3254.51367188 1586.46777344 3266.35546875 1529 c 1
 957.64453125 1529 l 1
 969.486328125 1586.46777344 983.129882812 1644.97949219 998.553710938 1704.36132812 c 0
 1080.02246094 2018.01367188 1210.64550781 2355.41113281 1380.50292969 2695.12695312 c 0
 1400.65722656 2735.43554688 1412 2780.90332031 1412 2829 c 0
 1412 2994.57421875 1277.57421875 3129 1112 3129 c 0
 994.521484375 3129 892.724609375 3061.328125 843.497070312 2962.87304688 c 0
 657.799804688 2591.47753906 511.87890625 2217.76464844 417.763671875 1855.421875 c 0
 342.466796875 1565.52734375 300 1282.56933594 300 1011.40039062 c 0
 300 606.633789062 396.038085938 221.568359375 640.590820312 -84.1220703125 c 0
 734.387695312 -201.368164062 848.854492188 -304.477539062 981.147460938 -388.815429688 c 0
 1086.97949219 -456.283203125 1203.86523438 -511.741210938 1330.59765625 -554.911132812 c 0
 1558.82617188 -632.65625 1818.65722656 -671 2112 -671 c 0
 2405.34277344 -671 2665.17382812 -632.65625 2893.40234375 -554.911132812 c 0
 3020.13476562 -511.741210938 3137.02050781 -456.283203125 3242.85253906 -388.815429688 c 0
 3375.14550781 -304.477539062 3489.61230469 -201.368164062 3583.40917969 -84.1220703125 c 0
 3827.96191406 221.568359375 3924 606.633789062 3924 1011.40039062 c 0
 3924 1282.56933594 3881.53320312 1565.52734375 3806.23632812 1855.421875 c 0
 3713.06347656 2214.13476562 3538.83398438 2570.41503906 3386.07128906 2951.71191406 c 2
 2390.60449219 5436.39550781 l 2
 2346.33984375 5546.88085938 2238.22070312 5625 2112 5625 c 0
2112 -71 m 0
 1872.00976562 -71 1677.51953125 -39.111328125 1523.93652344 13.2060546875 c 0
 1347.68847656 73.244140625 1210.09863281 164.31640625 1109.3359375 290.270507812 c 0
 986.735351562 443.520507812 913.899414062 656.68359375 901.797851562 929 c 1
 3322.20214844 929 l 1
 3310.10058594 656.68359375 3237.26464844 443.520507812 3114.6640625 290.270507812 c 0
 3013.96582031 164.396484375 2876.18847656 73.2021484375 2700.06347656 13.2060546875 c 0
 2546.48046875 -39.111328125 2351.99023438 -71 2112 -71 c 0
EndSplineSet
Validated: 524297
EndChar

StartChar: uniE52F
Encoding: 58671 58671 46
Width: 4224
Flags: HW
LayerCount: 2
Fore
SplineSet
2112 -3167 m 0
 2277.57421875 -3167 2412 -3032.57421875 2412 -2867 c 0
 2412 -2827.64648438 2404.40625 -2790.05175781 2390.60449219 -2755.60449219 c 2
 1390.60449219 -259.604492188 l 2
 1387.5390625 -251.952148438 1384.16699219 -244.454101562 1380.50292969 -237.126953125 c 0
 1210.64550781 102.588867188 1080.02246094 439.986328125 998.553710938 753.638671875 c 0
 983.129882812 813.020507812 969.486328125 871.532226562 957.64453125 929 c 1
 3266.35546875 929 l 1
 3254.51367188 871.532226562 3240.87011719 813.020507812 3225.44628906 753.638671875 c 0
 3143.97753906 439.986328125 3013.35449219 102.588867188 2843.49707031 -237.126953125 c 0
 2823.34277344 -277.435546875 2812 -322.903320312 2812 -371 c 0
 2812 -536.57421875 2946.42578125 -671 3112 -671 c 0
 3229.47851562 -671 3331.27539062 -603.328125 3380.50292969 -504.873046875 c 0
 3566.20019531 -133.477539062 3712.12109375 240.235351562 3806.23632812 602.578125 c 0
 3881.53320312 892.47265625 3924 1175.43066406 3924 1446.59960938 c 0
 3924 1851.36621094 3827.96191406 2236.43164062 3583.40917969 2542.12207031 c 0
 3489.61230469 2659.36816406 3375.14550781 2762.47753906 3242.85253906 2846.81542969 c 0
 3137.02050781 2914.28320312 3020.13476562 2969.74121094 2893.40234375 3012.91113281 c 0
 2665.17382812 3090.65625 2405.34277344 3129 2112 3129 c 0
 1818.65722656 3129 1558.82617188 3090.65625 1330.59765625 3012.91113281 c 0
 1203.86523438 2969.74121094 1086.97949219 2914.28320312 981.147460938 2846.81542969 c 0
 848.854492188 2762.47753906 734.387695312 2659.36816406 640.590820312 2542.12207031 c 0
 396.038085938 2236.43164062 300 1851.36621094 300 1446.59960938 c 0
 300 1175.43066406 342.466796875 892.47265625 417.763671875 602.578125 c 0
 510.936523438 243.865234375 685.166015625 -112.415039062 837.928710938 -493.711914062 c 2
 1833.39550781 -2978.39550781 l 2
 1877.66015625 -3088.88085938 1985.77929688 -3167 2112 -3167 c 0
2112 2529 m 0
 2351.99023438 2529 2546.48046875 2497.11132812 2700.06347656 2444.79394531 c 0
 2876.31152344 2384.75585938 3013.90136719 2293.68359375 3114.6640625 2167.72949219 c 0
 3237.26464844 2014.47949219 3310.10058594 1801.31640625 3322.20214844 1529 c 1
 901.797851562 1529 l 1
 913.899414062 1801.31640625 986.735351562 2014.47949219 1109.3359375 2167.72949219 c 0
 1210.03417969 2293.60351562 1347.81152344 2384.79785156 1523.93652344 2444.79394531 c 0
 1677.51953125 2497.11132812 1872.00976562 2529 2112 2529 c 0
EndSplineSet
Validated: 524297
EndChar

StartChar: uniE530
Encoding: 58672 58672 47
Width: 4224
Flags: HW
LayerCount: 2
Fore
SplineSet
1812 -2867 m 0
 1812 -3032.57421875 1946.42578125 -3167 2112 -3167 c 0
 2238.22070312 -3167 2346.33984375 -3088.88085938 2390.60449219 -2978.39550781 c 2
 3386.07128906 -493.711914062 l 1
 3569.11816406 -125.9921875 3713.06347656 243.865234375 3806.23632812 602.578125 c 0
 3881.53320312 892.47265625 3924 1175.43066406 3924 1446.59960938 c 0
 3924 1851.36621094 3827.96191406 2236.43164062 3583.40917969 2542.12207031 c 0
 3489.61230469 2659.36816406 3375.14550781 2762.47753906 3242.85253906 2846.81542969 c 0
 3137.02050781 2914.28320312 3020.13476562 2969.74121094 2893.40234375 3012.91113281 c 0
 2665.17382812 3090.65625 2405.34277344 3129 2112 3129 c 0
 1818.65722656 3129 1558.82617188 3090.65625 1330.59765625 3012.91113281 c 0
 1203.86523438 2969.74121094 1086.97949219 2914.28320312 981.147460938 2846.81542969 c 0
 848.854492188 2762.47753906 734.387695312 2659.36816406 640.590820312 2542.12207031 c 0
 396.038085938 2236.43164062 300 1851.36621094 300 1446.59960938 c 0
 300 1175.43066406 342.466796875 892.47265625 417.763671875 602.578125 c 0
 511.87890625 240.235351562 657.799804688 -133.477539062 843.497070312 -504.873046875 c 0
 892.724609375 -603.328125 994.521484375 -671 1112 -671 c 0
 1277.57421875 -671 1412 -536.57421875 1412 -371 c 0
 1412 -322.903320312 1400.65722656 -277.435546875 1380.50292969 -237.126953125 c 0
 1210.64550781 102.588867188 1080.02246094 439.986328125 998.553710938 753.638671875 c 0
 983.129882812 813.020507812 969.486328125 871.532226562 957.64453125 929 c 1
 3266.35546875 929 l 1
 3254.51367188 871.532226562 3240.87011719 813.020507812 3225.44628906 753.638671875 c 0
 3143.97753906 439.986328125 3013.35449219 102.588867188 2843.49707031 -237.126953125 c 0
 2839.83300781 -244.454101562 2836.4609375 -251.952148438 2833.39550781 -259.604492188 c 2
 1833.39550781 -2755.60449219 l 2
 1819.59375 -2790.05175781 1812 -2827.64648438 1812 -2867 c 0
2112 2529 m 0
 2351.99023438 2529 2546.48046875 2497.11132812 2700.06347656 2444.79394531 c 0
 2876.31152344 2384.75585938 3013.90136719 2293.68359375 3114.6640625 2167.72949219 c 0
 3237.26464844 2014.47949219 3310.10058594 1801.31640625 3322.20214844 1529 c 1
 901.797851562 1529 l 1
 913.899414062 1801.31640625 986.735351562 2014.47949219 1109.3359375 2167.72949219 c 0
 1210.03417969 2293.60351562 1347.81152344 2384.79785156 1523.93652344 2444.79394531 c 0
 1677.51953125 2497.11132812 1872.00976562 2529 2112 2529 c 0
EndSplineSet
Validated: 524297
EndChar

StartChar: uniE531
Encoding: 58673 58673 48
Width: 4400
Flags: HW
LayerCount: 2
Fore
SplineSet
2500 5325 m 0
 2500 5490.57421875 2365.57421875 5625 2200 5625 c 0
 2083.94238281 5625 1983.18945312 5558.95507812 1933.30566406 5462.43066406 c 2
 333.305664062 2366.43066406 l 2
 312.022460938 2325.24804688 300 2278.51660156 300 2229 c 0
 300 2063.42578125 434.42578125 1929 600 1929 c 0
 648.096679688 1929 693.564453125 1940.34277344 733.873046875 1960.49707031 c 0
 1073.58886719 2130.35449219 1410.98632812 2260.97753906 1724.63867188 2342.44628906 c 0
 1784.02050781 2357.87011719 1842.53222656 2371.51367188 1900 2383.35546875 c 1
 1900 74.64453125 l 1
 1842.53222656 86.486328125 1784.02050781 100.129882812 1724.63867188 115.553710938 c 0
 1410.98632812 197.022460938 1073.58886719 327.645507812 733.873046875 497.502929688 c 0
 693.564453125 517.657226562 648.096679688 529 600 529 c 0
 434.42578125 529 300 394.57421875 300 229 c 0
 300 111.521484375 367.671875 9.724609375 466.126953125 -39.5029296875 c 0
 837.522460938 -225.200195312 1211.23535156 -371.12109375 1573.578125 -465.236328125 c 0
 1863.47265625 -540.533203125 2146.43066406 -583 2417.59960938 -583 c 0
 2822.36621094 -583 3207.43164062 -486.961914062 3513.12207031 -242.409179688 c 0
 3630.36816406 -148.612304688 3733.47753906 -34.1455078125 3817.81542969 98.1474609375 c 0
 3885.28320312 203.979492188 3940.74121094 320.865234375 3983.91113281 447.59765625 c 0
 4061.65625 675.826171875 4100 935.657226562 4100 1229 c 0
 4100 1522.34277344 4061.65625 1782.17382812 3983.91113281 2010.40234375 c 0
 3940.74121094 2137.13476562 3885.28320312 2254.02050781 3817.81542969 2359.85253906 c 0
 3733.47753906 2492.14550781 3630.36816406 2606.61230469 3513.12207031 2700.40917969 c 0
 3207.43164062 2944.96191406 2822.36621094 3041 2417.59960938 3041 c 0
 2146.43066406 3041 1863.47265625 2998.53320312 1573.578125 2923.23632812 c 0
 1465.22949219 2895.09375 1355.86523438 2862.31933594 1245.84863281 2825.234375 c 1
 2466.69433594 5187.56933594 l 2
 2487.97753906 5228.75195312 2500 5275.48339844 2500 5325 c 0
3500 1229 m 0
 3500 989.009765625 3468.11132812 794.51953125 3415.79394531 640.936523438 c 0
 3355.75585938 464.688476562 3264.68359375 327.098632812 3138.72949219 226.3359375 c 0
 2985.47949219 103.735351562 2772.31640625 30.8994140625 2500 18.7978515625 c 1
 2500 2439.20214844 l 1
 2772.31640625 2427.10058594 2985.47949219 2354.26464844 3138.72949219 2231.6640625 c 0
 3264.60351562 2130.96582031 3355.79785156 1993.18847656 3415.79394531 1817.06347656 c 0
 3468.11132812 1663.48046875 3500 1468.99023438 3500 1229 c 0
EndSplineSet
Validated: 524297
EndChar

StartChar: uniE532
Encoding: 58674 58674 49
Width: 4400
Flags: HW
LayerCount: 2
Fore
SplineSet
2200 5625 m 0
 2034.42578125 5625 1900 5490.57421875 1900 5325 c 0
 1900 5275.48339844 1912.02246094 5228.75195312 1933.30566406 5187.56933594 c 2
 3154.15136719 2825.234375 l 1
 3044.13476562 2862.31933594 2934.77050781 2895.09375 2826.421875 2923.23632812 c 0
 2536.52734375 2998.53320312 2253.56933594 3041 1982.40039062 3041 c 0
 1577.63378906 3041 1192.56835938 2944.96191406 886.877929688 2700.40917969 c 0
 769.631835938 2606.61230469 666.522460938 2492.14550781 582.184570312 2359.85253906 c 0
 514.716796875 2254.02050781 459.258789062 2137.13476562 416.088867188 2010.40234375 c 0
 338.34375 1782.17382812 300 1522.34277344 300 1229 c 0
 300 935.657226562 338.34375 675.826171875 416.088867188 447.59765625 c 0
 459.258789062 320.865234375 514.716796875 203.979492188 582.184570312 98.1474609375 c 0
 666.522460938 -34.1455078125 769.631835938 -148.612304688 886.877929688 -242.409179688 c 0
 1192.56835938 -486.961914062 1577.63378906 -583 1982.40039062 -583 c 0
 2253.56933594 -583 2536.52734375 -540.533203125 2826.421875 -465.236328125 c 0
 3188.76464844 -371.12109375 3562.47753906 -225.200195312 3933.87304688 -39.5029296875 c 0
 4032.328125 9.724609375 4100 111.521484375 4100 229 c 0
 4100 394.57421875 3965.57421875 529 3800 529 c 0
 3751.90332031 529 3706.43554688 517.657226562 3666.12695312 497.502929688 c 0
 3326.41113281 327.645507812 2989.01367188 197.022460938 2675.36132812 115.553710938 c 0
 2615.97949219 100.129882812 2557.46777344 86.486328125 2500 74.64453125 c 1
 2500 2383.35546875 l 1
 2557.46777344 2371.51367188 2615.97949219 2357.87011719 2675.36132812 2342.44628906 c 0
 2989.01367188 2260.97753906 3326.41113281 2130.35449219 3666.12695312 1960.49707031 c 0
 3706.43554688 1940.34277344 3751.90332031 1929 3800 1929 c 0
 3965.57421875 1929 4100 2063.42578125 4100 2229 c 0
 4100 2278.51660156 4087.97753906 2325.24804688 4066.69433594 2366.43066406 c 2
 2466.69433594 5462.43066406 l 2
 2416.81054688 5558.95507812 2316.05761719 5625 2200 5625 c 0
900 1229 m 0
 900 1468.99023438 931.888671875 1663.48046875 984.206054688 1817.06347656 c 0
 1044.24414062 1993.31152344 1135.31640625 2130.90136719 1261.27050781 2231.6640625 c 0
 1414.52050781 2354.26464844 1627.68359375 2427.10058594 1900 2439.20214844 c 1
 1900 18.7978515625 l 1
 1627.68359375 30.8994140625 1414.52050781 103.735351562 1261.27050781 226.3359375 c 0
 1135.39648438 327.034179688 1044.20214844 464.811523438 984.206054688 640.936523438 c 0
 931.888671875 794.51953125 900 989.009765625 900 1229 c 0
EndSplineSet
Validated: 524297
EndChar

StartChar: uniE533
Encoding: 58675 58675 50
Width: 4400
Flags: HW
LayerCount: 2
Fore
SplineSet
2200 -3167 m 0
 2365.57421875 -3167 2500 -3032.57421875 2500 -2867 c 0
 2500 -2817.48339844 2487.97753906 -2770.75195312 2466.69433594 -2729.56933594 c 2
 1245.84863281 -367.234375 l 1
 1355.86523438 -404.319335938 1465.22949219 -437.09375 1573.578125 -465.236328125 c 0
 1863.47265625 -540.533203125 2146.43066406 -583 2417.59960938 -583 c 0
 2822.36621094 -583 3207.43164062 -486.961914062 3513.12207031 -242.409179688 c 0
 3630.36816406 -148.612304688 3733.47753906 -34.1455078125 3817.81542969 98.1474609375 c 0
 3885.28320312 203.979492188 3940.74121094 320.865234375 3983.91113281 447.59765625 c 0
 4061.65625 675.826171875 4100 935.657226562 4100 1229 c 0
 4100 1522.34277344 4061.65625 1782.17382812 3983.91113281 2010.40234375 c 0
 3940.74121094 2137.13476562 3885.28320312 2254.02050781 3817.81542969 2359.85253906 c 0
 3733.47753906 2492.14550781 3630.36816406 2606.61230469 3513.12207031 2700.40917969 c 0
 3207.43164062 2944.96191406 2822.36621094 3041 2417.59960938 3041 c 0
 2146.43066406 3041 1863.47265625 2998.53320312 1573.578125 2923.23632812 c 0
 1211.23535156 2829.12109375 837.522460938 2683.20019531 466.126953125 2497.50292969 c 0
 367.671875 2448.27539062 300 2346.47851562 300 2229 c 0
 300 2063.42578125 434.42578125 1929 600 1929 c 0
 648.096679688 1929 693.564453125 1940.34277344 733.873046875 1960.49707031 c 0
 1073.58886719 2130.35449219 1410.98632812 2260.97753906 1724.63867188 2342.44628906 c 0
 1784.02050781 2357.87011719 1842.53222656 2371.51367188 1900 2383.35546875 c 1
 1900 74.64453125 l 1
 1842.53222656 86.486328125 1784.02050781 100.129882812 1724.63867188 115.553710938 c 0
 1410.98632812 197.022460938 1073.58886719 327.645507812 733.873046875 497.502929688 c 0
 693.564453125 517.657226562 648.096679688 529 600 529 c 0
 434.42578125 529 300 394.57421875 300 229 c 0
 300 179.483398438 312.022460938 132.751953125 333.305664062 91.5693359375 c 2
 1933.30566406 -3004.43066406 l 2
 1983.18945312 -3100.95507812 2083.94238281 -3167 2200 -3167 c 0
3500 1229 m 0
 3500 989.009765625 3468.11132812 794.51953125 3415.79394531 640.936523438 c 0
 3355.75585938 464.688476562 3264.68359375 327.098632812 3138.72949219 226.3359375 c 0
 2985.47949219 103.735351562 2772.31640625 30.8994140625 2500 18.7978515625 c 1
 2500 2439.20214844 l 1
 2772.31640625 2427.10058594 2985.47949219 2354.26464844 3138.72949219 2231.6640625 c 0
 3264.60351562 2130.96582031 3355.79785156 1993.18847656 3415.79394531 1817.06347656 c 0
 3468.11132812 1663.48046875 3500 1468.99023438 3500 1229 c 0
EndSplineSet
Validated: 524297
EndChar

StartChar: uniE534
Encoding: 58676 58676 51
Width: 4400
Flags: HW
LayerCount: 2
Fore
SplineSet
1900 -2867 m 0
 1900 -3032.57421875 2034.42578125 -3167 2200 -3167 c 0
 2316.05761719 -3167 2416.81054688 -3100.95507812 2466.69433594 -3004.43066406 c 2
 4066.69433594 91.5693359375 l 2
 4087.97753906 132.751953125 4100 179.483398438 4100 229 c 0
 4100 394.57421875 3965.57421875 529 3800 529 c 0
 3751.90332031 529 3706.43554688 517.657226562 3666.12695312 497.502929688 c 0
 3326.41113281 327.645507812 2989.01367188 197.022460938 2675.36132812 115.553710938 c 0
 2615.97949219 100.129882812 2557.46777344 86.486328125 2500 74.64453125 c 1
 2500 2383.35546875 l 1
 2557.46777344 2371.51367188 2615.97949219 2357.87011719 2675.36132812 2342.44628906 c 0
 2989.01367188 2260.97753906 3326.41113281 2130.35449219 3666.12695312 1960.49707031 c 0
 3706.43554688 1940.34277344 3751.90332031 1929 3800 1929 c 0
 3965.57421875 1929 4100 2063.42578125 4100 2229 c 0
 4100 2346.47851562 4032.328125 2448.27539062 3933.87304688 2497.50292969 c 0
 3562.47753906 2683.20019531 3188.76464844 2829.12109375 2826.421875 2923.23632812 c 0
 2536.52734375 2998.53320312 2253.56933594 3041 1982.40039062 3041 c 0
 1577.63378906 3041 1192.56835938 2944.96191406 886.877929688 2700.40917969 c 0
 769.631835938 2606.61230469 666.522460938 2492.14550781 582.184570312 2359.85253906 c 0
 514.716796875 2254.02050781 459.258789062 2137.13476562 416.088867188 2010.40234375 c 0
 338.34375 1782.17382812 300 1522.34277344 300 1229 c 0
 300 935.657226562 338.34375 675.826171875 416.088867188 447.59765625 c 0
 459.258789062 320.865234375 514.716796875 203.979492188 582.184570312 98.1474609375 c 0
 666.522460938 -34.1455078125 769.631835938 -148.612304688 886.877929688 -242.409179688 c 0
 1192.56835938 -486.961914062 1577.63378906 -583 1982.40039062 -583 c 0
 2253.56933594 -583 2536.52734375 -540.533203125 2826.421875 -465.236328125 c 0
 2934.77050781 -437.09375 3044.13476562 -404.319335938 3154.15136719 -367.234375 c 1
 1933.30566406 -2729.56933594 l 2
 1912.02246094 -2770.75195312 1900 -2817.48339844 1900 -2867 c 0
900 1229 m 0
 900 1468.99023438 931.888671875 1663.48046875 984.206054688 1817.06347656 c 0
 1044.24414062 1993.31152344 1135.31640625 2130.90136719 1261.27050781 2231.6640625 c 0
 1414.52050781 2354.26464844 1627.68359375 2427.10058594 1900 2439.20214844 c 1
 1900 18.7978515625 l 1
 1627.68359375 30.8994140625 1414.52050781 103.735351562 1261.27050781 226.3359375 c 0
 1135.39648438 327.034179688 1044.20214844 464.811523438 984.206054688 640.936523438 c 0
 931.888671875 794.51953125 900 989.009765625 900 1229 c 0
EndSplineSet
Validated: 524297
EndChar

StartChar: uniE535
Encoding: 58677 58677 52
Width: 4224
Flags: HW
LayerCount: 2
Fore
SplineSet
2812 -371 m 0
 2812 -536.57421875 2946.42578125 -671 3112 -671 c 0
 3229.47851562 -671 3331.27539062 -603.328125 3380.50292969 -504.873046875 c 0
 3566.20019531 -133.477539062 3712.12109375 240.235351562 3806.23632812 602.578125 c 0
 3881.53320312 892.47265625 3924 1175.43066406 3924 1446.59960938 c 0
 3924 1851.36621094 3827.96191406 2236.43164062 3583.40917969 2542.12207031 c 0
 3489.61230469 2659.36816406 3375.14550781 2762.47753906 3242.85253906 2846.81542969 c 0
 3018.97265625 2989.54003906 2741.22363281 3081.03222656 2412 3114.43847656 c 1
 2412 5325 l 2
 2412 5490.57421875 2277.57421875 5625 2112 5625 c 0
 1946.42578125 5625 1812 5490.57421875 1812 5325 c 2
 1812 3114.43847656 l 1
 1289.72753906 3061.44335938 896.6328125 2862.17578125 640.590820312 2542.12207031 c 0
 396.038085938 2236.43164062 300 1851.36621094 300 1446.59960938 c 0
 300 1175.43066406 342.466796875 892.47265625 417.763671875 602.578125 c 0
 511.87890625 240.235351562 657.799804688 -133.477539062 843.497070312 -504.873046875 c 0
 892.724609375 -603.328125 994.521484375 -671 1112 -671 c 0
 1277.57421875 -671 1412 -536.57421875 1412 -371 c 0
 1412 -322.903320312 1400.65722656 -277.435546875 1380.50292969 -237.126953125 c 0
 1210.64550781 102.588867188 1080.02246094 439.986328125 998.553710938 753.638671875 c 0
 983.129882812 813.020507812 969.486328125 871.532226562 957.64453125 929 c 1
 3266.35546875 929 l 1
 3254.51367188 871.532226562 3240.87011719 813.020507812 3225.44628906 753.638671875 c 0
 3143.97753906 439.986328125 3013.35449219 102.588867188 2843.49707031 -237.126953125 c 0
 2823.34277344 -277.435546875 2812 -322.903320312 2812 -371 c 0
2112 2529 m 0
 2351.99023438 2529 2546.48046875 2497.11132812 2700.06347656 2444.79394531 c 0
 2876.31152344 2384.75585938 3013.90136719 2293.68359375 3114.6640625 2167.72949219 c 0
 3237.26464844 2014.47949219 3310.10058594 1801.31640625 3322.20214844 1529 c 1
 901.797851562 1529 l 1
 913.899414062 1801.31640625 986.735351562 2014.47949219 1109.3359375 2167.72949219 c 0
 1210.03417969 2293.60351562 1347.81152344 2384.79785156 1523.93652344 2444.79394531 c 0
 1677.51953125 2497.11132812 1872.00976562 2529 2112 2529 c 0
EndSplineSet
EndChar

StartChar: uniE536
Encoding: 58678 58678 53
Width: 4224
Flags: HW
LayerCount: 2
Fore
SplineSet
2812 2829 m 0
 2812 2780.90332031 2823.34277344 2735.43554688 2843.49707031 2695.12695312 c 0
 3013.35449219 2355.41113281 3143.97753906 2018.01367188 3225.44628906 1704.36132812 c 0
 3240.87011719 1644.97949219 3254.51367188 1586.46777344 3266.35546875 1529 c 1
 957.64453125 1529 l 1
 969.486328125 1586.46777344 983.129882812 1644.97949219 998.553710938 1704.36132812 c 0
 1080.02246094 2018.01367188 1210.64550781 2355.41113281 1380.50292969 2695.12695312 c 0
 1400.65722656 2735.43554688 1412 2780.90332031 1412 2829 c 0
 1412 2994.57421875 1277.57421875 3129 1112 3129 c 0
 994.521484375 3129 892.724609375 3061.328125 843.497070312 2962.87304688 c 0
 657.799804688 2591.47753906 511.87890625 2217.76464844 417.763671875 1855.421875 c 0
 342.466796875 1565.52734375 300 1282.56933594 300 1011.40039062 c 0
 300 606.633789062 396.038085938 221.568359375 640.590820312 -84.1220703125 c 0
 734.387695312 -201.368164062 848.854492188 -304.477539062 981.147460938 -388.815429688 c 0
 1205.02734375 -531.540039062 1482.77636719 -623.032226562 1812 -656.438476562 c 1
 1812 -2867 l 2
 1812 -3032.57421875 1946.42578125 -3167 2112 -3167 c 0
 2277.57421875 -3167 2412 -3032.57421875 2412 -2867 c 2
 2412 -656.438476562 l 1
 2934.27246094 -603.443359375 3327.3671875 -404.17578125 3583.40917969 -84.1220703125 c 0
 3827.96191406 221.568359375 3924 606.633789062 3924 1011.40039062 c 0
 3924 1282.56933594 3881.53320312 1565.52734375 3806.23632812 1855.421875 c 0
 3712.12109375 2217.76464844 3566.20019531 2591.47753906 3380.50292969 2962.87304688 c 0
 3331.27539062 3061.328125 3229.47851562 3129 3112 3129 c 0
 2946.42578125 3129 2812 2994.57421875 2812 2829 c 0
2112 -71 m 0
 1872.00976562 -71 1677.51953125 -39.111328125 1523.93652344 13.2060546875 c 0
 1347.68847656 73.244140625 1210.09863281 164.31640625 1109.3359375 290.270507812 c 0
 986.735351562 443.520507812 913.899414062 656.68359375 901.797851562 929 c 1
 3322.20214844 929 l 1
 3310.10058594 656.68359375 3237.26464844 443.520507812 3114.6640625 290.270507812 c 0
 3013.96582031 164.396484375 2876.18847656 73.2021484375 2700.06347656 13.2060546875 c 0
 2546.48046875 -39.111328125 2351.99023438 -71 2112 -71 c 0
EndSplineSet
EndChar

StartChar: uniE537
Encoding: 58679 58679 54
Width: 4224
Flags: HW
LayerCount: 2
Fore
SplineSet
2812 2829 m 0
 2812 2780.90332031 2823.34277344 2735.43554688 2843.49707031 2695.12695312 c 0
 3013.35449219 2355.41113281 3143.97753906 2018.01367188 3225.44628906 1704.36132812 c 0
 3240.87011719 1644.97949219 3254.51367188 1586.46777344 3266.35546875 1529 c 1
 2412 1529 l 1
 2412 5325 l 2
 2412 5490.57421875 2277.57421875 5625 2112 5625 c 0
 1946.42578125 5625 1812 5490.57421875 1812 5325 c 2
 1812 1529 l 1
 957.64453125 1529 l 1
 969.486328125 1586.46777344 983.129882812 1644.97949219 998.553710938 1704.36132812 c 0
 1080.02246094 2018.01367188 1210.64550781 2355.41113281 1380.50292969 2695.12695312 c 0
 1400.65722656 2735.43554688 1412 2780.90332031 1412 2829 c 0
 1412 2994.57421875 1277.57421875 3129 1112 3129 c 0
 994.521484375 3129 892.724609375 3061.328125 843.497070312 2962.87304688 c 0
 657.799804688 2591.47753906 511.87890625 2217.76464844 417.763671875 1855.421875 c 0
 342.466796875 1565.52734375 300 1282.56933594 300 1011.40039062 c 0
 300 606.633789062 396.038085938 221.568359375 640.590820312 -84.1220703125 c 0
 734.387695312 -201.368164062 848.854492188 -304.477539062 981.147460938 -388.815429688 c 0
 1086.97949219 -456.283203125 1203.86523438 -511.741210938 1330.59765625 -554.911132812 c 0
 1558.82617188 -632.65625 1818.65722656 -671 2112 -671 c 0
 2405.34277344 -671 2665.17382812 -632.65625 2893.40234375 -554.911132812 c 0
 3020.13476562 -511.741210938 3137.02050781 -456.283203125 3242.85253906 -388.815429688 c 0
 3375.14550781 -304.477539062 3489.61230469 -201.368164062 3583.40917969 -84.1220703125 c 0
 3827.96191406 221.568359375 3924 606.633789062 3924 1011.40039062 c 0
 3924 1282.56933594 3881.53320312 1565.52734375 3806.23632812 1855.421875 c 0
 3712.12109375 2217.76464844 3566.20019531 2591.47753906 3380.50292969 2962.87304688 c 0
 3331.27539062 3061.328125 3229.47851562 3129 3112 3129 c 0
 2946.42578125 3129 2812 2994.57421875 2812 2829 c 0
3322.20214844 929 m 1
 3310.10058594 656.68359375 3237.26464844 443.520507812 3114.6640625 290.270507812 c 0
 3013.96582031 164.396484375 2876.18847656 73.2021484375 2700.06347656 13.2060546875 c 0
 2546.48046875 -39.111328125 2351.99023438 -71 2112 -71 c 0
 1872.00976562 -71 1677.51953125 -39.111328125 1523.93652344 13.2060546875 c 0
 1347.68847656 73.244140625 1210.09863281 164.31640625 1109.3359375 290.270507812 c 0
 986.735351562 443.520507812 913.899414062 656.68359375 901.797851562 929 c 1
 3322.20214844 929 l 1
EndSplineSet
Validated: 524297
EndChar

StartChar: uniE538
Encoding: 58680 58680 55
Width: 4224
Flags: HW
LayerCount: 2
Fore
SplineSet
2812 -371 m 0
 2812 -536.57421875 2946.42578125 -671 3112 -671 c 0
 3229.47851562 -671 3331.27539062 -603.328125 3380.50292969 -504.873046875 c 0
 3566.20019531 -133.477539062 3712.12109375 240.235351562 3806.23632812 602.578125 c 0
 3881.53320312 892.47265625 3924 1175.43066406 3924 1446.59960938 c 0
 3924 1851.36621094 3827.96191406 2236.43164062 3583.40917969 2542.12207031 c 0
 3489.61230469 2659.36816406 3375.14550781 2762.47753906 3242.85253906 2846.81542969 c 0
 3137.02050781 2914.28320312 3020.13476562 2969.74121094 2893.40234375 3012.91113281 c 0
 2665.17382812 3090.65625 2405.34277344 3129 2112 3129 c 0
 1818.65722656 3129 1558.82617188 3090.65625 1330.59765625 3012.91113281 c 0
 1203.86523438 2969.74121094 1086.97949219 2914.28320312 981.147460938 2846.81542969 c 0
 848.854492188 2762.47753906 734.387695312 2659.36816406 640.590820312 2542.12207031 c 0
 396.038085938 2236.43164062 300 1851.36621094 300 1446.59960938 c 0
 300 1175.43066406 342.466796875 892.47265625 417.763671875 602.578125 c 0
 511.87890625 240.235351562 657.799804688 -133.477539062 843.497070312 -504.873046875 c 0
 892.724609375 -603.328125 994.521484375 -671 1112 -671 c 0
 1277.57421875 -671 1412 -536.57421875 1412 -371 c 0
 1412 -322.903320312 1400.65722656 -277.435546875 1380.50292969 -237.126953125 c 0
 1210.64550781 102.588867188 1080.02246094 439.986328125 998.553710938 753.638671875 c 0
 983.129882812 813.020507812 969.486328125 871.532226562 957.64453125 929 c 1
 1812 929 l 1
 1812 -2867 l 2
 1812 -3032.57421875 1946.42578125 -3167 2112 -3167 c 0
 2277.57421875 -3167 2412 -3032.57421875 2412 -2867 c 2
 2412 929 l 1
 3266.35546875 929 l 1
 3254.51367188 871.532226562 3240.87011719 813.020507812 3225.44628906 753.638671875 c 0
 3143.97753906 439.986328125 3013.35449219 102.588867188 2843.49707031 -237.126953125 c 0
 2823.34277344 -277.435546875 2812 -322.903320312 2812 -371 c 0
3322.20214844 1529 m 1
 2515.40039062 1529 1708.59960938 1529 901.797851562 1529 c 1
 913.899414062 1801.31640625 986.735351562 2014.47949219 1109.3359375 2167.72949219 c 0
 1210.03417969 2293.60351562 1347.81152344 2384.79785156 1523.93652344 2444.79394531 c 0
 1677.51953125 2497.11132812 1872.00976562 2529 2112 2529 c 0
 2351.99023438 2529 2546.48046875 2497.11132812 2700.06347656 2444.79394531 c 0
 2876.31152344 2384.75585938 3013.90136719 2293.68359375 3114.6640625 2167.72949219 c 0
 3237.26464844 2014.47949219 3310.10058594 1801.31640625 3322.20214844 1529 c 1
EndSplineSet
Validated: 524297
EndChar

StartChar: uniE539
Encoding: 58681 58681 56
Width: 3600
Flags: HW
LayerCount: 2
Fore
SplineSet
300 -271 m 1
 300 2729 l 1
 900 2729 l 1
 900 329 l 1
 2700 329 l 1
 2700 2729 l 1
 3300 2729 l 1
 3300 329 l 1
 3300 -271 l 1
 300 -271 l 1
EndSplineSet
Validated: 1
EndChar

StartChar: uniE53A
Encoding: 58682 58682 57
Width: 3600
Flags: HW
LayerCount: 2
Fore
SplineSet
300 2729 m 1
 3300 2729 l 1
 3300 2129 l 1
 900 2129 l 1
 900 329 l 1
 3300 329 l 1
 3300 -271 l 1
 900 -271 l 1
 300 -271 l 1
 300 2729 l 1
EndSplineSet
Validated: 1
EndChar

StartChar: uniE53B
Encoding: 58683 58683 58
Width: 3600
Flags: HW
LayerCount: 2
Fore
SplineSet
3300 2729 m 1
 3300 -271 l 1
 2700 -271 l 1
 2700 2129 l 1
 900 2129 l 1
 900 -271 l 1
 300 -271 l 1
 300 2129 l 1
 300 2729 l 1
 3300 2729 l 1
EndSplineSet
Validated: 1
EndChar

StartChar: uniE53C
Encoding: 58684 58684 59
Width: 3600
Flags: HW
LayerCount: 2
Fore
SplineSet
3300 -271 m 1
 300 -271 l 1
 300 329 l 1
 2700 329 l 1
 2700 2129 l 1
 300 2129 l 1
 300 2729 l 1
 2700 2729 l 1
 3300 2729 l 1
 3300 -271 l 1
EndSplineSet
Validated: 1
EndChar

StartChar: uniE53D
Encoding: 58685 58685 60
Width: 3600
Flags: HW
LayerCount: 2
Fore
SplineSet
1500 5325 m 1
 2100 5325 l 1
 900 2729 l 1
 900 329 l 1
 2700 329 l 1
 2700 2729 l 1
 3300 2729 l 1
 3300 -271 l 1
 300 -271 l 1
 300 2729 l 1
 1500 5325 l 1
EndSplineSet
Validated: 1
EndChar

StartChar: uniE53E
Encoding: 58686 58686 61
Width: 3600
Flags: HW
LayerCount: 2
Fore
SplineSet
2100 5325 m 1
 3300 2729 l 1
 3300 -271 l 1
 300 -271 l 1
 300 2729 l 1
 900 2729 l 1
 900 329 l 1
 2700 329 l 1
 2700 2729 l 1
 1500 5325 l 1
 2100 5325 l 1
EndSplineSet
Validated: 1
EndChar

StartChar: uniE53F
Encoding: 58687 58687 62
Width: 3600
Flags: HW
LayerCount: 2
Fore
SplineSet
1500 -2867 m 1
 300 -271 l 1
 300 2729 l 1
 3300 2729 l 1
 3300 -271 l 1
 2700 -271 l 1
 2700 2129 l 1
 900 2129 l 1
 900 -271 l 1
 2100 -2867 l 1
 1500 -2867 l 1
EndSplineSet
Validated: 1
EndChar

StartChar: uniE540
Encoding: 58688 58688 63
Width: 3600
Flags: HW
LayerCount: 2
Fore
SplineSet
2100 -2867 m 1
 1500 -2867 l 1
 2700 -271 l 1
 2700 2129 l 1
 900 2129 l 1
 900 -271 l 1
 300 -271 l 1
 300 2729 l 1
 3300 2729 l 1
 3300 -271 l 1
 2100 -2867 l 1
EndSplineSet
Validated: 1
EndChar

StartChar: uniE541
Encoding: 58689 58689 64
Width: 3600
Flags: HW
LayerCount: 2
Fore
SplineSet
1500 5325 m 1
 2100 5325 l 1
 900 2729 l 1
 3300 2729 l 1
 3300 -271 l 1
 300 -271 l 1
 300 329 l 1
 2700 329 l 1
 2700 2129 l 1
 300 2129 l 1
 300 2729 l 1
 1500 5325 l 1
EndSplineSet
Validated: 1
EndChar

StartChar: uniE542
Encoding: 58690 58690 65
Width: 3600
Flags: HW
LayerCount: 2
Fore
SplineSet
2100 5325 m 1
 3300 2729 l 1
 3300 2129 l 1
 900 2129 l 1
 900 329 l 1
 3300 329 l 1
 3300 -271 l 1
 300 -271 l 1
 300 2729 l 1
 2700 2729 l 1
 1500 5325 l 1
 2100 5325 l 1
EndSplineSet
Validated: 1
EndChar

StartChar: uniE543
Encoding: 58691 58691 66
Width: 3600
Flags: HW
LayerCount: 2
Fore
SplineSet
1500 -2867 m 1
 300 -271 l 1
 300 329 l 1
 2700 329 l 1
 2700 2129 l 1
 300 2129 l 1
 300 2729 l 1
 3300 2729 l 1
 3300 -271 l 1
 900 -271 l 1
 2100 -2867 l 1
 1500 -2867 l 1
EndSplineSet
Validated: 1
EndChar

StartChar: uniE544
Encoding: 58692 58692 67
Width: 3600
Flags: HW
LayerCount: 2
Fore
SplineSet
2100 -2867 m 1
 1500 -2867 l 1
 2700 -271 l 1
 300 -271 l 1
 300 2729 l 1
 3300 2729 l 1
 3300 2129 l 1
 900 2129 l 1
 900 329 l 1
 3300 329 l 1
 3300 -271 l 1
 2100 -2867 l 1
EndSplineSet
Validated: 1
EndChar

StartChar: uniE545
Encoding: 58693 58693 68
Width: 3600
Flags: HW
LayerCount: 2
Fore
SplineSet
300 2729 m 1
 3300 2729 l 1
 3300 929 l 1
 900 929 l 1
 900 329 l 1
 3300 329 l 1
 3300 -271 l 1
 300 -271 l 1
 300 1529 l 1
 900 1529 l 1
 2700 1529 l 1
 2700 2129 l 1
 300 2129 l 1
 300 2729 l 1
EndSplineSet
Validated: 1
EndChar

StartChar: uniE546
Encoding: 58694 58694 69
Width: 3600
Flags: HW
LayerCount: 2
Fore
SplineSet
3300 2729 m 1
 3300 -271 l 1
 1500 -271 l 1
 1500 2129 l 1
 900 2129 l 1
 900 -271 l 1
 300 -271 l 1
 300 2729 l 1
 2100 2729 l 1
 2100 2129 l 1
 2100 329 l 1
 2700 329 l 1
 2700 2729 l 1
 3300 2729 l 1
EndSplineSet
Validated: 1
EndChar

StartChar: uniE547
Encoding: 58695 58695 70
Width: 3600
Flags: HW
LayerCount: 2
Fore
SplineSet
300 -271 m 1
 300 329 l 1
 2700 329 l 1
 2700 929 l 1
 900 929 l 1
 300 929 l 1
 300 2729 l 1
 3300 2729 l 1
 3300 2129 l 1
 900 2129 l 1
 900 1529 l 1
 3300 1529 l 1
 3300 -271 l 1
 300 -271 l 1
EndSplineSet
Validated: 1
EndChar

StartChar: uniE548
Encoding: 58696 58696 71
Width: 3600
Flags: HW
LayerCount: 2
Fore
SplineSet
300 2729 m 1
 900 2729 l 1
 900 329 l 1
 1500 329 l 1
 1500 2129 l 1
 1500 2729 l 1
 3300 2729 l 1
 3300 -271 l 1
 2700 -271 l 1
 2700 2129 l 1
 2100 2129 l 1
 2100 -271 l 1
 300 -271 l 1
 300 2729 l 1
EndSplineSet
Validated: 1
EndChar

StartChar: uniE549
Encoding: 58697 58697 72
Width: 3600
Flags: HW
LayerCount: 2
Fore
SplineSet
1500 5325 m 1
 2100 5325 l 1
 900 2729 l 1
 3300 2729 l 1
 3300 929 l 1
 900 929 l 1
 900 329 l 1
 3300 329 l 1
 3300 -271 l 1
 300 -271 l 1
 300 1529 l 1
 2700 1529 l 1
 2700 2129 l 1
 300 2129 l 1
 300 2729 l 1
 1500 5325 l 1
EndSplineSet
Validated: 1
EndChar

StartChar: uniE54A
Encoding: 58698 58698 73
Width: 3600
Flags: HW
LayerCount: 2
Fore
SplineSet
2100 5325 m 1
 3300 2729 l 1
 3300 2129 l 1
 900 2129 l 1
 900 1529 l 1
 3300 1529 l 1
 3300 -271 l 1
 300 -271 l 1
 300 329 l 1
 2700 329 l 1
 2700 929 l 1
 300 929 l 1
 300 2729 l 1
 2700 2729 l 1
 1500 5325 l 1
 2100 5325 l 1
EndSplineSet
Validated: 1
EndChar

StartChar: uniE54B
Encoding: 58699 58699 74
Width: 3600
Flags: HW
LayerCount: 2
Fore
SplineSet
1500 -2867 m 1
 300 -271 l 1
 300 329 l 1
 2700 329 l 1
 2700 929 l 1
 300 929 l 1
 300 2729 l 1
 3300 2729 l 1
 3300 2129 l 1
 900 2129 l 1
 900 1529 l 1
 3300 1529 l 1
 3300 -271 l 1
 900 -271 l 1
 2100 -2867 l 1
 1500 -2867 l 1
EndSplineSet
Validated: 1
EndChar

StartChar: uniE54C
Encoding: 58700 58700 75
Width: 3600
Flags: HW
LayerCount: 2
Fore
SplineSet
2100 -2867 m 1
 1500 -2867 l 1
 2700 -271 l 1
 300 -271 l 1
 300 1529 l 1
 2700 1529 l 1
 2700 2129 l 1
 300 2129 l 1
 300 2729 l 1
 3300 2729 l 1
 3300 929 l 1
 900 929 l 1
 900 329 l 1
 3300 329 l 1
 3300 -271 l 1
 2100 -2867 l 1
EndSplineSet
Validated: 1
EndChar

StartChar: uniE54D
Encoding: 58701 58701 76
Width: 3600
Flags: HW
LayerCount: 2
Fore
SplineSet
1500 5325 m 1
 2100 5325 l 1
 900 2729 l 1
 900 329 l 1
 1500 329 l 1
 1500 2729 l 1
 3300 2729 l 1
 3300 -271 l 1
 2700 -271 l 1
 2700 2129 l 1
 2100 2129 l 1
 2100 -271 l 1
 300 -271 l 1
 300 2729 l 1
 1500 5325 l 1
EndSplineSet
Validated: 1
EndChar

StartChar: uniE54E
Encoding: 58702 58702 77
Width: 3600
Flags: HW
LayerCount: 2
Fore
SplineSet
2100 5325 m 1
 3300 2729 l 1
 3300 -271 l 1
 1500 -271 l 1
 1500 2129 l 1
 900 2129 l 1
 900 -271 l 1
 300 -271 l 1
 300 2729 l 1
 2100 2729 l 1
 2100 329 l 1
 2700 329 l 1
 2700 2729 l 1
 1500 5325 l 1
 2100 5325 l 1
EndSplineSet
Validated: 1
EndChar

StartChar: uniE54F
Encoding: 58703 58703 78
Width: 3600
Flags: HW
LayerCount: 2
Fore
SplineSet
1500 -2867 m 1
 300 -271 l 1
 300 2729 l 1
 2100 2729 l 1
 2100 329 l 1
 2700 329 l 1
 2700 2729 l 1
 3300 2729 l 1
 3300 -271 l 1
 1500 -271 l 1
 1500 2129 l 1
 900 2129 l 1
 900 -271 l 1
 2100 -2867 l 1
 1500 -2867 l 1
EndSplineSet
Validated: 1
EndChar

StartChar: uniE550
Encoding: 58704 58704 79
Width: 3600
Flags: HW
LayerCount: 2
Fore
SplineSet
2100 -2867 m 1
 1500 -2867 l 1
 2700 -271 l 1
 2700 2129 l 1
 2100 2129 l 1
 2100 -271 l 1
 300 -271 l 1
 300 2729 l 1
 900 2729 l 1
 900 329 l 1
 1500 329 l 1
 1500 2729 l 1
 3300 2729 l 1
 3300 -271 l 1
 2100 -2867 l 1
EndSplineSet
Validated: 1
EndChar

StartChar: uniE551
Encoding: 58705 58705 80
Width: 3600
Flags: HW
LayerCount: 2
Fore
SplineSet
300 -271 m 1
 300 2729 l 1
 900 2729 l 1
 900 329 l 1
 1500 329 l 1
 1500 2729 l 1
 2100 2729 l 1
 2100 329 l 1
 2700 329 l 1
 2700 2729 l 1
 3300 2729 l 1
 3300 329 l 1
 3300 -271 l 1
 300 -271 l 1
EndSplineSet
Validated: 1
EndChar

StartChar: uniE552
Encoding: 58706 58706 81
Width: 3600
Flags: HW
LayerCount: 2
Fore
SplineSet
300 2729 m 1
 3300 2729 l 1
 3300 2129 l 1
 900 2129 l 1
 900 1529 l 1
 3300 1529 l 1
 3300 929 l 1
 900 929 l 1
 900 329 l 1
 3300 329 l 1
 3300 -271 l 1
 900 -271 l 1
 300 -271 l 1
 300 2729 l 1
EndSplineSet
Validated: 1
EndChar

StartChar: uniE553
Encoding: 58707 58707 82
Width: 3600
Flags: HW
LayerCount: 2
Fore
SplineSet
3300 2729 m 1
 3300 -271 l 1
 2700 -271 l 1
 2700 2129 l 1
 2100 2129 l 1
 2100 -271 l 1
 1500 -271 l 1
 1500 2129 l 1
 900 2129 l 1
 900 -271 l 1
 300 -271 l 1
 300 2129 l 1
 300 2729 l 1
 3300 2729 l 1
EndSplineSet
Validated: 1
EndChar

StartChar: uniE554
Encoding: 58708 58708 83
Width: 3600
Flags: HW
LayerCount: 2
Fore
SplineSet
3300 -271 m 1
 300 -271 l 1
 300 329 l 1
 2700 329 l 1
 2700 929 l 1
 300 929 l 1
 300 1529 l 1
 2700 1529 l 1
 2700 2129 l 1
 300 2129 l 1
 300 2729 l 1
 2700 2729 l 1
 3300 2729 l 1
 3300 -271 l 1
EndSplineSet
Validated: 1
EndChar

StartChar: uniE555
Encoding: 58709 58709 84
Width: 3600
Flags: HW
LayerCount: 2
Fore
SplineSet
1500 5325 m 1
 2100 5325 l 1
 900 2729 l 1
 900 329 l 1
 1500 329 l 1
 1500 2729 l 1
 2100 2729 l 1
 2100 329 l 1
 2700 329 l 1
 2700 2729 l 1
 3300 2729 l 1
 3300 329 l 1
 3300 -271 l 1
 300 -271 l 1
 300 2729 l 1
 1500 5325 l 1
EndSplineSet
Validated: 1
EndChar

StartChar: uniE556
Encoding: 58710 58710 85
Width: 3600
Flags: HW
LayerCount: 2
Fore
SplineSet
2100 5325 m 1
 3300 2729 l 1
 3300 -271 l 1
 300 -271 l 1
 300 329 l 1
 300 2729 l 1
 900 2729 l 1
 900 329 l 1
 1500 329 l 1
 1500 2729 l 1
 2100 2729 l 1
 2100 329 l 1
 2700 329 l 1
 2700 2729 l 1
 1500 5325 l 1
 2100 5325 l 1
EndSplineSet
Validated: 1
EndChar

StartChar: uniE557
Encoding: 58711 58711 86
Width: 3600
Flags: HW
LayerCount: 2
Fore
SplineSet
1500 -2867 m 1
 300 -271 l 1
 300 2729 l 1
 1300 2729 2300 2729 3300 2729 c 1
 3300 2129 l 1
 3300 -271 l 1
 2700 -271 l 1
 2700 2129 l 1
 2100 2129 l 1
 2100 -271 l 1
 1500 -271 l 1
 1500 2129 l 1
 900 2129 l 1
 900 -271 l 1
 2100 -2867 l 1
 1500 -2867 l 1
EndSplineSet
Validated: 1
EndChar

StartChar: uniE558
Encoding: 58712 58712 87
Width: 3600
Flags: HW
LayerCount: 2
Fore
SplineSet
2100 -2867 m 1
 1500 -2867 l 1
 2700 -271 l 1
 2700 2129 l 1
 2100 2129 l 1
 2100 -271 l 1
 1500 -271 l 1
 1500 2129 l 1
 900 2129 l 1
 900 -271 l 1
 300 -271 l 1
 300 2129 l 1
 300 2729 l 1
 1300 2729 2300 2729 3300 2729 c 1
 3300 -271 l 1
 2100 -2867 l 1
EndSplineSet
Validated: 1
EndChar

StartChar: uniE559
Encoding: 58713 58713 88
Width: 3600
Flags: HW
LayerCount: 2
Fore
SplineSet
1500 5325 m 1
 2100 5325 l 1
 900 2729 l 1
 3300 2729 l 1
 3300 -271 l 1
 2700 -271 l 1
 300 -271 l 1
 300 329 l 1
 2700 329 l 1
 2700 929 l 1
 300 929 l 1
 300 1529 l 1
 2700 1529 l 1
 2700 2129 l 1
 300 2129 l 1
 300 2729 l 1
 1500 5325 l 1
EndSplineSet
Validated: 1
EndChar

StartChar: uniE55A
Encoding: 58714 58714 89
Width: 3600
Flags: HW
LayerCount: 2
Fore
SplineSet
2100 5325 m 1
 3300 2729 l 1
 3300 2129 l 1
 900 2129 l 1
 900 1529 l 1
 3300 1529 l 1
 3300 929 l 1
 900 929 l 1
 900 329 l 1
 3300 329 l 1
 3300 -271 l 1
 900 -271 l 1
 300 -271 l 1
 300 2729 l 1
 2700 2729 l 1
 1500 5325 l 1
 2100 5325 l 1
EndSplineSet
Validated: 1
EndChar

StartChar: uniE55B
Encoding: 58715 58715 90
Width: 3600
Flags: HW
LayerCount: 2
Fore
SplineSet
1500 -2867 m 1
 300 -271 l 1
 300 329 l 1
 2700 329 l 1
 2700 929 l 1
 300 929 l 1
 300 1529 l 1
 2700 1529 l 1
 2700 2129 l 1
 300 2129 l 1
 300 2729 l 1
 2700 2729 l 1
 3300 2729 l 1
 3300 -271 l 1
 900 -271 l 1
 2100 -2867 l 1
 1500 -2867 l 1
EndSplineSet
Validated: 1
EndChar

StartChar: uniE55C
Encoding: 58716 58716 91
Width: 3600
Flags: HW
LayerCount: 2
Fore
SplineSet
2100 -2867 m 1
 1500 -2867 l 1
 2700 -271 l 1
 300 -271 l 1
 300 2729 l 1
 900 2729 l 1
 3300 2729 l 1
 3300 2129 l 1
 900 2129 l 1
 900 1529 l 1
 3300 1529 l 1
 3300 929 l 1
 900 929 l 1
 900 329 l 1
 3300 329 l 1
 3300 -271 l 1
 2100 -2867 l 1
EndSplineSet
Validated: 1
EndChar

StartChar: uniE55D
Encoding: 58717 58717 92
Width: 3600
Flags: HW
LayerCount: 2
Fore
SplineSet
1500 5325 m 1
 2100 5325 l 1
 2100 2729 l 1
 3300 2729 l 1
 3300 -271 l 1
 2700 -271 l 1
 2700 2129 l 1
 2100 2129 l 1
 2100 -271 l 1
 1500 -271 l 1
 1500 2129 l 1
 900 2129 l 1
 900 -271 l 1
 300 -271 l 1
 300 2729 l 1
 1500 2729 l 1
 1500 5325 l 1
EndSplineSet
Validated: 1
EndChar

StartChar: uniE55E
Encoding: 58718 58718 93
Width: 3600
Flags: HW
LayerCount: 2
Fore
SplineSet
1500 -2867 m 1
 1500 -271 l 1
 300 -271 l 1
 300 2729 l 1
 900 2729 l 1
 900 329 l 1
 1500 329 l 1
 1500 2729 l 1
 2100 2729 l 1
 2100 329 l 1
 2700 329 l 1
 2700 2729 l 1
 3300 2729 l 1
 3300 -271 l 1
 2100 -271 l 1
 2100 -2867 l 1
 1500 -2867 l 1
EndSplineSet
Validated: 1
EndChar

StartChar: uniE55F
Encoding: 58719 58719 94
Width: 3600
Flags: HW
LayerCount: 2
Fore
SplineSet
3300 2729 m 1
 3300 -271 l 1
 300 -271 l 1
 300 329 l 1
 300 2729 l 1
 900 2729 l 1
 900 329 l 1
 1500 329 l 1
 1500 5325 l 1
 2100 5325 l 1
 2100 329 l 1
 2700 329 l 1
 2700 2729 l 1
 3300 2729 l 1
EndSplineSet
Validated: 1
EndChar

StartChar: uniE560
Encoding: 58720 58720 95
Width: 3600
Flags: HW
LayerCount: 2
Fore
SplineSet
3300 -271 m 1
 2700 -271 l 1
 2700 2129 l 1
 2100 2129 l 1
 2100 -2867 l 1
 1500 -2867 l 1
 1500 2129 l 1
 900 2129 l 1
 900 -271 l 1
 300 -271 l 1
 300 2129 l 1
 300 2729 l 1
 3300 2729 l 1
 3300 -271 l 1
EndSplineSet
Validated: 1
EndChar

StartChar: uniE561
Encoding: 58721 58721 96
Width: 3600
Flags: HW
LayerCount: 2
Fore
SplineSet
300 2729 m 1
 900 2729 l 1
 900 1529 l 1
 2700 1529 l 1
 2700 2729 l 1
 3300 2729 l 1
 3300 -271 l 1
 300 -271 l 1
 300 2729 l 1
900 929 m 1
 900 329 l 1
 2700 329 l 1
 2700 929 l 1
 900 929 l 1
EndSplineSet
Validated: 1
EndChar

StartChar: uniE562
Encoding: 58722 58722 97
Width: 3600
Flags: HW
LayerCount: 2
Fore
SplineSet
3300 2729 m 1
 3300 2129 l 1
 2100 2129 l 1
 2100 329 l 1
 3300 329 l 1
 3300 -271 l 1
 300 -271 l 1
 300 2729 l 1
 3300 2729 l 1
1500 2129 m 1
 900 2129 l 1
 900 329 l 1
 1500 329 l 1
 1500 2129 l 1
EndSplineSet
Validated: 1
EndChar

StartChar: uniE563
Encoding: 58723 58723 98
Width: 3600
Flags: HW
LayerCount: 2
Fore
SplineSet
3300 -271 m 1
 2700 -271 l 1
 2700 929 l 1
 900 929 l 1
 900 -271 l 1
 300 -271 l 1
 300 2729 l 1
 3300 2729 l 1
 3300 -271 l 1
2700 1529 m 1
 2700 2129 l 1
 900 2129 l 1
 900 1529 l 1
 2700 1529 l 1
EndSplineSet
Validated: 1
EndChar

StartChar: uniE564
Encoding: 58724 58724 99
Width: 3600
Flags: HW
LayerCount: 2
Fore
SplineSet
300 -271 m 1
 300 329 l 1
 1500 329 l 1
 1500 2129 l 1
 300 2129 l 1
 300 2729 l 1
 3300 2729 l 1
 3300 -271 l 1
 300 -271 l 1
2100 329 m 1
 2700 329 l 1
 2700 2129 l 1
 2100 2129 l 1
 2100 329 l 1
EndSplineSet
Validated: 1
EndChar

StartChar: uniE565
Encoding: 58725 58725 100
Width: 3600
Flags: HW
LayerCount: 2
Fore
SplineSet
1500 5325 m 1
 2100 5325 l 1
 900 2729 l 1
 900 1529 l 1
 2700 1529 l 1
 2700 2729 l 1
 3300 2729 l 1
 3300 -271 l 1
 300 -271 l 1
 300 2729 l 1
 1500 5325 l 1
900 929 m 1
 900 329 l 1
 2700 329 l 1
 2700 929 l 1
 900 929 l 1
EndSplineSet
Validated: 1
EndChar

StartChar: uniE566
Encoding: 58726 58726 101
Width: 3600
Flags: HW
LayerCount: 2
Fore
SplineSet
2100 5325 m 1
 3300 2729 l 1
 3300 -271 l 1
 300 -271 l 1
 300 2729 l 1
 900 2729 l 1
 900 1529 l 1
 2700 1529 l 1
 2700 2729 l 1
 1500 5325 l 1
 2100 5325 l 1
2700 929 m 1
 900 929 l 1
 900 329 l 1
 2700 329 l 1
 2700 929 l 1
EndSplineSet
Validated: 1
EndChar

StartChar: uniE567
Encoding: 58727 58727 102
Width: 3600
Flags: HW
LayerCount: 2
Fore
SplineSet
1500 -2867 m 1
 300 -271 l 1
 300 2729 l 1
 3300 2729 l 1
 3300 -271 l 1
 2700 -271 l 1
 2700 929 l 1
 900 929 l 1
 900 -271 l 1
 2100 -2867 l 1
 1500 -2867 l 1
900 1529 m 1
 2700 1529 l 1
 2700 2129 l 1
 900 2129 l 1
 900 1529 l 1
EndSplineSet
Validated: 1
EndChar

StartChar: uniE568
Encoding: 58728 58728 103
Width: 3600
Flags: HW
LayerCount: 2
Fore
SplineSet
2100 -2867 m 1
 1500 -2867 l 1
 2700 -271 l 1
 2700 929 l 1
 900 929 l 1
 900 -271 l 1
 300 -271 l 1
 300 2729 l 1
 3300 2729 l 1
 3300 -271 l 1
 2100 -2867 l 1
2700 1529 m 1
 2700 2129 l 1
 900 2129 l 1
 900 1529 l 1
 2700 1529 l 1
EndSplineSet
Validated: 1
EndChar

StartChar: uniE569
Encoding: 58729 58729 104
Width: 3600
Flags: HW
LayerCount: 2
Fore
SplineSet
1500 5325 m 1
 2100 5325 l 1
 900 2729 l 1
 3300 2729 l 1
 3300 -271 l 1
 300 -271 l 1
 300 329 l 1
 1500 329 l 1
 1500 2129 l 1
 300 2129 l 1
 300 2729 l 1
 1500 5325 l 1
2100 2129 m 1
 2100 329 l 1
 2700 329 l 1
 2700 2129 l 1
 2100 2129 l 1
EndSplineSet
Validated: 1
EndChar

StartChar: uniE56A
Encoding: 58730 58730 105
Width: 3600
Flags: HW
LayerCount: 2
Fore
SplineSet
2100 5325 m 1
 3300 2729 l 1
 3300 2129 l 1
 2100 2129 l 1
 2100 329 l 1
 3300 329 l 1
 3300 -271 l 1
 300 -271 l 1
 300 2729 l 1
 2700 2729 l 1
 1500 5325 l 1
 2100 5325 l 1
1500 2129 m 1
 900 2129 l 1
 900 329 l 1
 1500 329 l 1
 1500 2129 l 1
EndSplineSet
Validated: 1
EndChar

StartChar: uniE56B
Encoding: 58731 58731 106
Width: 3600
Flags: HW
LayerCount: 2
Fore
SplineSet
1500 -2867 m 1
 300 -271 l 1
 300 329 l 1
 1500 329 l 1
 1500 2129 l 1
 300 2129 l 1
 300 2729 l 1
 3300 2729 l 1
 3300 -271 l 1
 900 -271 l 1
 2100 -2867 l 1
 1500 -2867 l 1
2100 329 m 1
 2700 329 l 1
 2700 2129 l 1
 2100 2129 l 1
 2100 329 l 1
EndSplineSet
Validated: 1
EndChar

StartChar: uniE56C
Encoding: 58732 58732 107
Width: 3600
Flags: HW
LayerCount: 2
Fore
SplineSet
2100 -2867 m 1
 1500 -2867 l 1
 2700 -271 l 1
 300 -271 l 1
 300 2729 l 1
 3300 2729 l 1
 3300 2129 l 1
 2100 2129 l 1
 2100 329 l 1
 3300 329 l 1
 3300 -271 l 1
 2100 -2867 l 1
1500 329 m 1
 1500 2129 l 1
 900 2129 l 1
 900 329 l 1
 1500 329 l 1
EndSplineSet
Validated: 1
EndChar

StartChar: uniE56D
Encoding: 58733 58733 108
Width: 3600
Flags: HW
LayerCount: 2
Fore
SplineSet
300 -271 m 1
 300 2729 l 1
 1500 2729 l 1
 1500 5325 l 1
 2100 5325 l 1
 2100 2729 l 1
 3300 2729 l 1
 3300 -271 l 1
 2700 -271 l 1
 2700 929 l 1
 900 929 l 1
 900 -271 l 1
 300 -271 l 1
900 1529 m 1
 2700 1529 l 1
 2700 2129 l 1
 900 2129 l 1
 900 1529 l 1
EndSplineSet
EndChar

StartChar: uniE56E
Encoding: 58734 58734 109
Width: 3600
Flags: HW
LayerCount: 2
Fore
SplineSet
300 2729 m 1
 900 2729 l 1
 900 1529 l 1
 2700 1529 l 1
 2700 2729 l 1
 3300 2729 l 1
 3300 -271 l 1
 2100 -271 l 1
 2100 -2867 l 1
 1500 -2867 l 1
 1500 -271 l 1
 300 -271 l 1
 300 2729 l 1
900 929 m 1
 900 329 l 1
 2700 329 l 1
 2700 929 l 1
 900 929 l 1
EndSplineSet
EndChar

StartChar: uniE56F
Encoding: 58735 58735 110
Width: 3600
Flags: HW
LayerCount: 2
Fore
SplineSet
1500 5325 m 1
 2100 5325 l 1
 2100 1529 l 1
 2700 1529 l 1
 2700 2729 l 1
 3300 2729 l 1
 3300 -271 l 1
 300 -271 l 1
 300 2729 l 1
 900 2729 l 1
 900 1529 l 1
 1500 1529 l 1
 1500 5325 l 1
900 929 m 1
 900 329 l 1
 2700 329 l 1
 2700 929 l 1
 900 929 l 1
EndSplineSet
Validated: 1
EndChar

StartChar: uniE570
Encoding: 58736 58736 111
Width: 3600
Flags: HW
LayerCount: 2
Fore
SplineSet
1500 -2867 m 1
 1500 929 l 1
 900 929 l 1
 900 -271 l 1
 300 -271 l 1
 300 2729 l 1
 3300 2729 l 1
 3300 -271 l 1
 2700 -271 l 1
 2700 929 l 1
 2100 929 l 1
 2100 -2867 l 1
 1500 -2867 l 1
900 1529 m 1
 2700 1529 l 1
 2700 2129 l 1
 900 2129 l 1
 900 1529 l 1
EndSplineSet
Validated: 1
EndChar
